<?xml version="1.0" encoding="utf-8" standalone="no"?>
<!DOCTYPE svg PUBLIC "-//W3C//DTD SVG 1.1//EN"
  "http://www.w3.org/Graphics/SVG/1.1/DTD/svg11.dtd">
<!-- Created with matplotlib (http://matplotlib.org/) -->
<svg height="720pt" version="1.1" viewBox="0 0 1440 720" width="1440pt" xmlns="http://www.w3.org/2000/svg" xmlns:xlink="http://www.w3.org/1999/xlink">
 <defs>
  <style type="text/css">
*{stroke-linecap:butt;stroke-linejoin:round;}
  </style>
 </defs>
 <g id="figure_1">
  <g id="patch_1">
   <path d="M 0 720 
L 1440 720 
L 1440 0 
L 0 0 
z
" style="fill:#ffffff;"/>
  </g>
  <g id="axes_1">
   <g id="patch_2">
    <path d="M 180 165.6 
L 1296 165.6 
L 1296 86.4 
L 180 86.4 
z
" style="fill:#ffffff;"/>
   </g>
   <g id="matplotlib.axis_1">
    <g id="xtick_1">
     <g id="line2d_1">
      <path clip-path="url(#pd914f1ce9a)" d="M 230.727273 165.6 
L 230.727273 86.4 
" style="fill:none;stroke:#b0b0b0;stroke-linecap:square;stroke-width:0.8;"/>
     </g>
     <g id="line2d_2">
      <defs>
       <path d="M 0 0 
L 0 3.5 
" id="ma7f42e4ad2" style="stroke:#000000;stroke-width:0.8;"/>
      </defs>
      <g>
       <use style="stroke:#000000;stroke-width:0.8;" x="230.727273" xlink:href="#ma7f42e4ad2" y="165.6"/>
      </g>
     </g>
     <g id="text_1">
      <!-- 0.0 -->
      <defs>
       <path d="M 31.78125 66.40625 
Q 24.171875 66.40625 20.328125 58.90625 
Q 16.5 51.421875 16.5 36.375 
Q 16.5 21.390625 20.328125 13.890625 
Q 24.171875 6.390625 31.78125 6.390625 
Q 39.453125 6.390625 43.28125 13.890625 
Q 47.125 21.390625 47.125 36.375 
Q 47.125 51.421875 43.28125 58.90625 
Q 39.453125 66.40625 31.78125 66.40625 
M 31.78125 74.21875 
Q 44.046875 74.21875 50.515625 64.515625 
Q 56.984375 54.828125 56.984375 36.375 
Q 56.984375 17.96875 50.515625 8.265625 
Q 44.046875 -1.421875 31.78125 -1.421875 
Q 19.53125 -1.421875 13.0625 8.265625 
Q 6.59375 17.96875 6.59375 36.375 
Q 6.59375 54.828125 13.0625 64.515625 
Q 19.53125 74.21875 31.78125 74.21875 
" id="DejaVuSans-30"/>
       <path d="M 10.6875 12.40625 
L 21 12.40625 
L 21 0 
L 10.6875 0 
z
" id="DejaVuSans-2e"/>
      </defs>
      <g transform="translate(222.77571 180.198438)scale(0.1 -0.1)">
       <use xlink:href="#DejaVuSans-30"/>
       <use x="63.623047" xlink:href="#DejaVuSans-2e"/>
       <use x="95.410156" xlink:href="#DejaVuSans-30"/>
      </g>
     </g>
    </g>
    <g id="xtick_2">
     <g id="line2d_3">
      <path clip-path="url(#pd914f1ce9a)" d="M 433.636364 165.6 
L 433.636364 86.4 
" style="fill:none;stroke:#b0b0b0;stroke-linecap:square;stroke-width:0.8;"/>
     </g>
     <g id="line2d_4">
      <g>
       <use style="stroke:#000000;stroke-width:0.8;" x="433.636364" xlink:href="#ma7f42e4ad2" y="165.6"/>
      </g>
     </g>
     <g id="text_2">
      <!-- 0.2 -->
      <defs>
       <path d="M 19.1875 8.296875 
L 53.609375 8.296875 
L 53.609375 0 
L 7.328125 0 
L 7.328125 8.296875 
Q 12.9375 14.109375 22.625 23.890625 
Q 32.328125 33.6875 34.8125 36.53125 
Q 39.546875 41.84375 41.421875 45.53125 
Q 43.3125 49.21875 43.3125 52.78125 
Q 43.3125 58.59375 39.234375 62.25 
Q 35.15625 65.921875 28.609375 65.921875 
Q 23.96875 65.921875 18.8125 64.3125 
Q 13.671875 62.703125 7.8125 59.421875 
L 7.8125 69.390625 
Q 13.765625 71.78125 18.9375 73 
Q 24.125 74.21875 28.421875 74.21875 
Q 39.75 74.21875 46.484375 68.546875 
Q 53.21875 62.890625 53.21875 53.421875 
Q 53.21875 48.921875 51.53125 44.890625 
Q 49.859375 40.875 45.40625 35.40625 
Q 44.1875 33.984375 37.640625 27.21875 
Q 31.109375 20.453125 19.1875 8.296875 
" id="DejaVuSans-32"/>
      </defs>
      <g transform="translate(425.684801 180.198438)scale(0.1 -0.1)">
       <use xlink:href="#DejaVuSans-30"/>
       <use x="63.623047" xlink:href="#DejaVuSans-2e"/>
       <use x="95.410156" xlink:href="#DejaVuSans-32"/>
      </g>
     </g>
    </g>
    <g id="xtick_3">
     <g id="line2d_5">
      <path clip-path="url(#pd914f1ce9a)" d="M 636.545455 165.6 
L 636.545455 86.4 
" style="fill:none;stroke:#b0b0b0;stroke-linecap:square;stroke-width:0.8;"/>
     </g>
     <g id="line2d_6">
      <g>
       <use style="stroke:#000000;stroke-width:0.8;" x="636.545455" xlink:href="#ma7f42e4ad2" y="165.6"/>
      </g>
     </g>
     <g id="text_3">
      <!-- 0.4 -->
      <defs>
       <path d="M 37.796875 64.3125 
L 12.890625 25.390625 
L 37.796875 25.390625 
z
M 35.203125 72.90625 
L 47.609375 72.90625 
L 47.609375 25.390625 
L 58.015625 25.390625 
L 58.015625 17.1875 
L 47.609375 17.1875 
L 47.609375 0 
L 37.796875 0 
L 37.796875 17.1875 
L 4.890625 17.1875 
L 4.890625 26.703125 
z
" id="DejaVuSans-34"/>
      </defs>
      <g transform="translate(628.593892 180.198438)scale(0.1 -0.1)">
       <use xlink:href="#DejaVuSans-30"/>
       <use x="63.623047" xlink:href="#DejaVuSans-2e"/>
       <use x="95.410156" xlink:href="#DejaVuSans-34"/>
      </g>
     </g>
    </g>
    <g id="xtick_4">
     <g id="line2d_7">
      <path clip-path="url(#pd914f1ce9a)" d="M 839.454545 165.6 
L 839.454545 86.4 
" style="fill:none;stroke:#b0b0b0;stroke-linecap:square;stroke-width:0.8;"/>
     </g>
     <g id="line2d_8">
      <g>
       <use style="stroke:#000000;stroke-width:0.8;" x="839.454545" xlink:href="#ma7f42e4ad2" y="165.6"/>
      </g>
     </g>
     <g id="text_4">
      <!-- 0.6 -->
      <defs>
       <path d="M 33.015625 40.375 
Q 26.375 40.375 22.484375 35.828125 
Q 18.609375 31.296875 18.609375 23.390625 
Q 18.609375 15.53125 22.484375 10.953125 
Q 26.375 6.390625 33.015625 6.390625 
Q 39.65625 6.390625 43.53125 10.953125 
Q 47.40625 15.53125 47.40625 23.390625 
Q 47.40625 31.296875 43.53125 35.828125 
Q 39.65625 40.375 33.015625 40.375 
M 52.59375 71.296875 
L 52.59375 62.3125 
Q 48.875 64.0625 45.09375 64.984375 
Q 41.3125 65.921875 37.59375 65.921875 
Q 27.828125 65.921875 22.671875 59.328125 
Q 17.53125 52.734375 16.796875 39.40625 
Q 19.671875 43.65625 24.015625 45.921875 
Q 28.375 48.1875 33.59375 48.1875 
Q 44.578125 48.1875 50.953125 41.515625 
Q 57.328125 34.859375 57.328125 23.390625 
Q 57.328125 12.15625 50.6875 5.359375 
Q 44.046875 -1.421875 33.015625 -1.421875 
Q 20.359375 -1.421875 13.671875 8.265625 
Q 6.984375 17.96875 6.984375 36.375 
Q 6.984375 53.65625 15.1875 63.9375 
Q 23.390625 74.21875 37.203125 74.21875 
Q 40.921875 74.21875 44.703125 73.484375 
Q 48.484375 72.75 52.59375 71.296875 
" id="DejaVuSans-36"/>
      </defs>
      <g transform="translate(831.502983 180.198438)scale(0.1 -0.1)">
       <use xlink:href="#DejaVuSans-30"/>
       <use x="63.623047" xlink:href="#DejaVuSans-2e"/>
       <use x="95.410156" xlink:href="#DejaVuSans-36"/>
      </g>
     </g>
    </g>
    <g id="xtick_5">
     <g id="line2d_9">
      <path clip-path="url(#pd914f1ce9a)" d="M 1042.363636 165.6 
L 1042.363636 86.4 
" style="fill:none;stroke:#b0b0b0;stroke-linecap:square;stroke-width:0.8;"/>
     </g>
     <g id="line2d_10">
      <g>
       <use style="stroke:#000000;stroke-width:0.8;" x="1042.363636" xlink:href="#ma7f42e4ad2" y="165.6"/>
      </g>
     </g>
     <g id="text_5">
      <!-- 0.8 -->
      <defs>
       <path d="M 31.78125 34.625 
Q 24.75 34.625 20.71875 30.859375 
Q 16.703125 27.09375 16.703125 20.515625 
Q 16.703125 13.921875 20.71875 10.15625 
Q 24.75 6.390625 31.78125 6.390625 
Q 38.8125 6.390625 42.859375 10.171875 
Q 46.921875 13.96875 46.921875 20.515625 
Q 46.921875 27.09375 42.890625 30.859375 
Q 38.875 34.625 31.78125 34.625 
M 21.921875 38.8125 
Q 15.578125 40.375 12.03125 44.71875 
Q 8.5 49.078125 8.5 55.328125 
Q 8.5 64.0625 14.71875 69.140625 
Q 20.953125 74.21875 31.78125 74.21875 
Q 42.671875 74.21875 48.875 69.140625 
Q 55.078125 64.0625 55.078125 55.328125 
Q 55.078125 49.078125 51.53125 44.71875 
Q 48 40.375 41.703125 38.8125 
Q 48.828125 37.15625 52.796875 32.3125 
Q 56.78125 27.484375 56.78125 20.515625 
Q 56.78125 9.90625 50.3125 4.234375 
Q 43.84375 -1.421875 31.78125 -1.421875 
Q 19.734375 -1.421875 13.25 4.234375 
Q 6.78125 9.90625 6.78125 20.515625 
Q 6.78125 27.484375 10.78125 32.3125 
Q 14.796875 37.15625 21.921875 38.8125 
M 18.3125 54.390625 
Q 18.3125 48.734375 21.84375 45.5625 
Q 25.390625 42.390625 31.78125 42.390625 
Q 38.140625 42.390625 41.71875 45.5625 
Q 45.3125 48.734375 45.3125 54.390625 
Q 45.3125 60.0625 41.71875 63.234375 
Q 38.140625 66.40625 31.78125 66.40625 
Q 25.390625 66.40625 21.84375 63.234375 
Q 18.3125 60.0625 18.3125 54.390625 
" id="DejaVuSans-38"/>
      </defs>
      <g transform="translate(1034.412074 180.198438)scale(0.1 -0.1)">
       <use xlink:href="#DejaVuSans-30"/>
       <use x="63.623047" xlink:href="#DejaVuSans-2e"/>
       <use x="95.410156" xlink:href="#DejaVuSans-38"/>
      </g>
     </g>
    </g>
    <g id="xtick_6">
     <g id="line2d_11">
      <path clip-path="url(#pd914f1ce9a)" d="M 1245.272727 165.6 
L 1245.272727 86.4 
" style="fill:none;stroke:#b0b0b0;stroke-linecap:square;stroke-width:0.8;"/>
     </g>
     <g id="line2d_12">
      <g>
       <use style="stroke:#000000;stroke-width:0.8;" x="1245.272727" xlink:href="#ma7f42e4ad2" y="165.6"/>
      </g>
     </g>
     <g id="text_6">
      <!-- 1.0 -->
      <defs>
       <path d="M 12.40625 8.296875 
L 28.515625 8.296875 
L 28.515625 63.921875 
L 10.984375 60.40625 
L 10.984375 69.390625 
L 28.421875 72.90625 
L 38.28125 72.90625 
L 38.28125 8.296875 
L 54.390625 8.296875 
L 54.390625 0 
L 12.40625 0 
z
" id="DejaVuSans-31"/>
      </defs>
      <g transform="translate(1237.321165 180.198438)scale(0.1 -0.1)">
       <use xlink:href="#DejaVuSans-31"/>
       <use x="63.623047" xlink:href="#DejaVuSans-2e"/>
       <use x="95.410156" xlink:href="#DejaVuSans-30"/>
      </g>
     </g>
    </g>
   </g>
   <g id="matplotlib.axis_2">
    <g id="ytick_1">
     <g id="line2d_13">
      <path clip-path="url(#pd914f1ce9a)" d="M 180 153.210157 
L 1296 153.210157 
" style="fill:none;stroke:#b0b0b0;stroke-linecap:square;stroke-width:0.8;"/>
     </g>
     <g id="line2d_14">
      <defs>
       <path d="M 0 0 
L -3.5 0 
" id="m4b35b2081a" style="stroke:#000000;stroke-width:0.8;"/>
      </defs>
      <g>
       <use style="stroke:#000000;stroke-width:0.8;" x="180" xlink:href="#m4b35b2081a" y="153.210157"/>
      </g>
     </g>
     <g id="text_7">
      <!-- −4 -->
      <defs>
       <path d="M 10.59375 35.5 
L 73.1875 35.5 
L 73.1875 27.203125 
L 10.59375 27.203125 
z
" id="DejaVuSans-2212"/>
      </defs>
      <g transform="translate(158.257812 157.009376)scale(0.1 -0.1)">
       <use xlink:href="#DejaVuSans-2212"/>
       <use x="83.789062" xlink:href="#DejaVuSans-34"/>
      </g>
     </g>
    </g>
    <g id="ytick_2">
     <g id="line2d_15">
      <path clip-path="url(#pd914f1ce9a)" d="M 180 121.605062 
L 1296 121.605062 
" style="fill:none;stroke:#b0b0b0;stroke-linecap:square;stroke-width:0.8;"/>
     </g>
     <g id="line2d_16">
      <g>
       <use style="stroke:#000000;stroke-width:0.8;" x="180" xlink:href="#m4b35b2081a" y="121.605062"/>
      </g>
     </g>
     <g id="text_8">
      <!-- −2 -->
      <g transform="translate(158.257812 125.404281)scale(0.1 -0.1)">
       <use xlink:href="#DejaVuSans-2212"/>
       <use x="83.789062" xlink:href="#DejaVuSans-32"/>
      </g>
     </g>
    </g>
    <g id="ytick_3">
     <g id="line2d_17">
      <path clip-path="url(#pd914f1ce9a)" d="M 180 89.999967 
L 1296 89.999967 
" style="fill:none;stroke:#b0b0b0;stroke-linecap:square;stroke-width:0.8;"/>
     </g>
     <g id="line2d_18">
      <g>
       <use style="stroke:#000000;stroke-width:0.8;" x="180" xlink:href="#m4b35b2081a" y="89.999967"/>
      </g>
     </g>
     <g id="text_9">
      <!-- 0 -->
      <g transform="translate(166.6375 93.799186)scale(0.1 -0.1)">
       <use xlink:href="#DejaVuSans-30"/>
      </g>
     </g>
    </g>
    <g id="text_10">
     <!-- 1e−12 -->
     <defs>
      <path d="M 56.203125 29.59375 
L 56.203125 25.203125 
L 14.890625 25.203125 
Q 15.484375 15.921875 20.484375 11.0625 
Q 25.484375 6.203125 34.421875 6.203125 
Q 39.59375 6.203125 44.453125 7.46875 
Q 49.3125 8.734375 54.109375 11.28125 
L 54.109375 2.78125 
Q 49.265625 0.734375 44.1875 -0.34375 
Q 39.109375 -1.421875 33.890625 -1.421875 
Q 20.796875 -1.421875 13.15625 6.1875 
Q 5.515625 13.8125 5.515625 26.8125 
Q 5.515625 40.234375 12.765625 48.109375 
Q 20.015625 56 32.328125 56 
Q 43.359375 56 49.78125 48.890625 
Q 56.203125 41.796875 56.203125 29.59375 
M 47.21875 32.234375 
Q 47.125 39.59375 43.09375 43.984375 
Q 39.0625 48.390625 32.421875 48.390625 
Q 24.90625 48.390625 20.390625 44.140625 
Q 15.875 39.890625 15.1875 32.171875 
z
" id="DejaVuSans-65"/>
     </defs>
     <g transform="translate(180 83.4)scale(0.1 -0.1)">
      <use xlink:href="#DejaVuSans-31"/>
      <use x="63.623047" xlink:href="#DejaVuSans-65"/>
      <use x="125.146484" xlink:href="#DejaVuSans-2212"/>
      <use x="208.935547" xlink:href="#DejaVuSans-31"/>
      <use x="272.558594" xlink:href="#DejaVuSans-32"/>
     </g>
    </g>
   </g>
   <g id="line2d_19">
    <path clip-path="url(#pd914f1ce9a)" d="M 230.727273 90 
L 485.358289 90.099891 
L 521.165775 90.308666 
L 545.037433 90.653828 
L 560.951872 91.076916 
L 572.887701 91.563848 
L 584.823529 92.267405 
L 592.780749 92.901106 
L 600.737968 93.707178 
L 608.695187 94.729495 
L 616.652406 96.021191 
L 624.609626 97.645396 
L 632.566845 99.675149 
L 636.545455 100.867298 
L 640.524064 102.191821 
L 644.502674 103.65953 
L 648.481283 105.281055 
L 652.459893 107.066497 
L 656.438503 109.024975 
L 660.417112 111.164087 
L 664.395722 113.489253 
L 668.374332 116.002961 
L 672.352941 118.703919 
L 676.331551 121.586127 
L 680.31016 124.637922 
L 688.26738 131.169779 
L 708.160428 148.224449 
L 712.139037 151.315399 
L 716.117647 154.140103 
L 720.096257 156.627359 
L 724.074866 158.710206 
L 728.053476 160.329508 
L 732.032086 161.437355 
L 736.010695 162 
L 739.989305 162 
L 743.967914 161.437355 
L 747.946524 160.329508 
L 751.925134 158.710206 
L 755.903743 156.627359 
L 759.882353 154.140103 
L 763.860963 151.315399 
L 767.839572 148.224449 
L 775.796791 141.529604 
L 787.73262 131.169779 
L 795.68984 124.637922 
L 799.668449 121.586127 
L 803.647059 118.703919 
L 807.625668 116.002961 
L 811.604278 113.489253 
L 815.582888 111.164087 
L 819.561497 109.024975 
L 823.540107 107.066497 
L 827.518717 105.281055 
L 831.497326 103.65953 
L 835.475936 102.191821 
L 839.454545 100.867298 
L 843.433155 99.675149 
L 851.390374 97.645396 
L 859.347594 96.021191 
L 867.304813 94.729495 
L 875.262032 93.707178 
L 883.219251 92.901106 
L 895.15508 92.003746 
L 907.090909 91.381191 
L 923.005348 90.839273 
L 942.898396 90.44934 
L 970.748663 90.186994 
L 1014.513369 90.047047 
L 1125.914439 90.00137 
L 1245.272727 90 
L 1245.272727 90 
" style="fill:none;stroke:#1f77b4;stroke-linecap:square;stroke-width:1.5;"/>
   </g>
   <g id="patch_3">
    <path d="M 180 165.6 
L 180 86.4 
" style="fill:none;stroke:#000000;stroke-linecap:square;stroke-linejoin:miter;stroke-width:0.8;"/>
   </g>
   <g id="patch_4">
    <path d="M 1296 165.6 
L 1296 86.4 
" style="fill:none;stroke:#000000;stroke-linecap:square;stroke-linejoin:miter;stroke-width:0.8;"/>
   </g>
   <g id="patch_5">
    <path d="M 180 165.6 
L 1296 165.6 
" style="fill:none;stroke:#000000;stroke-linecap:square;stroke-linejoin:miter;stroke-width:0.8;"/>
   </g>
   <g id="patch_6">
    <path d="M 180 86.4 
L 1296 86.4 
" style="fill:none;stroke:#000000;stroke-linecap:square;stroke-linejoin:miter;stroke-width:0.8;"/>
   </g>
   <g id="legend_1">
    <g id="patch_7">
     <path d="M 1229.935937 109.35625 
L 1289 109.35625 
Q 1291 109.35625 1291 107.35625 
L 1291 93.4 
Q 1291 91.4 1289 91.4 
L 1229.935937 91.4 
Q 1227.935937 91.4 1227.935937 93.4 
L 1227.935937 107.35625 
Q 1227.935937 109.35625 1229.935937 109.35625 
z
" style="fill:#ffffff;opacity:0.8;stroke:#cccccc;stroke-linejoin:miter;"/>
    </g>
    <g id="line2d_20">
     <path d="M 1231.935937 99.498437 
L 1251.935937 99.498437 
" style="fill:none;stroke:#1f77b4;stroke-linecap:square;stroke-width:1.5;"/>
    </g>
    <g id="line2d_21"/>
    <g id="text_11">
     <!-- rho_c -->
     <defs>
      <path d="M 41.109375 46.296875 
Q 39.59375 47.171875 37.8125 47.578125 
Q 36.03125 48 33.890625 48 
Q 26.265625 48 22.1875 43.046875 
Q 18.109375 38.09375 18.109375 28.8125 
L 18.109375 0 
L 9.078125 0 
L 9.078125 54.6875 
L 18.109375 54.6875 
L 18.109375 46.1875 
Q 20.953125 51.171875 25.484375 53.578125 
Q 30.03125 56 36.53125 56 
Q 37.453125 56 38.578125 55.875 
Q 39.703125 55.765625 41.0625 55.515625 
z
" id="DejaVuSans-72"/>
      <path d="M 54.890625 33.015625 
L 54.890625 0 
L 45.90625 0 
L 45.90625 32.71875 
Q 45.90625 40.484375 42.875 44.328125 
Q 39.84375 48.1875 33.796875 48.1875 
Q 26.515625 48.1875 22.3125 43.546875 
Q 18.109375 38.921875 18.109375 30.90625 
L 18.109375 0 
L 9.078125 0 
L 9.078125 75.984375 
L 18.109375 75.984375 
L 18.109375 46.1875 
Q 21.34375 51.125 25.703125 53.5625 
Q 30.078125 56 35.796875 56 
Q 45.21875 56 50.046875 50.171875 
Q 54.890625 44.34375 54.890625 33.015625 
" id="DejaVuSans-68"/>
      <path d="M 30.609375 48.390625 
Q 23.390625 48.390625 19.1875 42.75 
Q 14.984375 37.109375 14.984375 27.296875 
Q 14.984375 17.484375 19.15625 11.84375 
Q 23.34375 6.203125 30.609375 6.203125 
Q 37.796875 6.203125 41.984375 11.859375 
Q 46.1875 17.53125 46.1875 27.296875 
Q 46.1875 37.015625 41.984375 42.703125 
Q 37.796875 48.390625 30.609375 48.390625 
M 30.609375 56 
Q 42.328125 56 49.015625 48.375 
Q 55.71875 40.765625 55.71875 27.296875 
Q 55.71875 13.875 49.015625 6.21875 
Q 42.328125 -1.421875 30.609375 -1.421875 
Q 18.84375 -1.421875 12.171875 6.21875 
Q 5.515625 13.875 5.515625 27.296875 
Q 5.515625 40.765625 12.171875 48.375 
Q 18.84375 56 30.609375 56 
" id="DejaVuSans-6f"/>
      <path d="M 50.984375 -16.609375 
L 50.984375 -23.578125 
L -0.984375 -23.578125 
L -0.984375 -16.609375 
z
" id="DejaVuSans-5f"/>
      <path d="M 48.78125 52.59375 
L 48.78125 44.1875 
Q 44.96875 46.296875 41.140625 47.34375 
Q 37.3125 48.390625 33.40625 48.390625 
Q 24.65625 48.390625 19.8125 42.84375 
Q 14.984375 37.3125 14.984375 27.296875 
Q 14.984375 17.28125 19.8125 11.734375 
Q 24.65625 6.203125 33.40625 6.203125 
Q 37.3125 6.203125 41.140625 7.25 
Q 44.96875 8.296875 48.78125 10.40625 
L 48.78125 2.09375 
Q 45.015625 0.34375 40.984375 -0.53125 
Q 36.96875 -1.421875 32.421875 -1.421875 
Q 20.0625 -1.421875 12.78125 6.34375 
Q 5.515625 14.109375 5.515625 27.296875 
Q 5.515625 40.671875 12.859375 48.328125 
Q 20.21875 56 33.015625 56 
Q 37.15625 56 41.109375 55.140625 
Q 45.0625 54.296875 48.78125 52.59375 
" id="DejaVuSans-63"/>
     </defs>
     <g transform="translate(1259.935937 102.998437)scale(0.1 -0.1)">
      <use xlink:href="#DejaVuSans-72"/>
      <use x="41.097656" xlink:href="#DejaVuSans-68"/>
      <use x="104.476562" xlink:href="#DejaVuSans-6f"/>
      <use x="165.658203" xlink:href="#DejaVuSans-5f"/>
      <use x="215.658203" xlink:href="#DejaVuSans-63"/>
     </g>
    </g>
   </g>
  </g>
  <g id="axes_2">
   <g id="patch_8">
    <path d="M 180 260.64 
L 1296 260.64 
L 1296 181.44 
L 180 181.44 
z
" style="fill:#ffffff;"/>
   </g>
   <g id="matplotlib.axis_3">
    <g id="xtick_7">
     <g id="line2d_22">
      <path clip-path="url(#p5f6efbec61)" d="M 230.727273 260.64 
L 230.727273 181.44 
" style="fill:none;stroke:#b0b0b0;stroke-linecap:square;stroke-width:0.8;"/>
     </g>
     <g id="line2d_23">
      <g>
       <use style="stroke:#000000;stroke-width:0.8;" x="230.727273" xlink:href="#ma7f42e4ad2" y="260.64"/>
      </g>
     </g>
     <g id="text_12">
      <!-- 0.0 -->
      <g transform="translate(222.77571 275.238437)scale(0.1 -0.1)">
       <use xlink:href="#DejaVuSans-30"/>
       <use x="63.623047" xlink:href="#DejaVuSans-2e"/>
       <use x="95.410156" xlink:href="#DejaVuSans-30"/>
      </g>
     </g>
    </g>
    <g id="xtick_8">
     <g id="line2d_24">
      <path clip-path="url(#p5f6efbec61)" d="M 433.636364 260.64 
L 433.636364 181.44 
" style="fill:none;stroke:#b0b0b0;stroke-linecap:square;stroke-width:0.8;"/>
     </g>
     <g id="line2d_25">
      <g>
       <use style="stroke:#000000;stroke-width:0.8;" x="433.636364" xlink:href="#ma7f42e4ad2" y="260.64"/>
      </g>
     </g>
     <g id="text_13">
      <!-- 0.2 -->
      <g transform="translate(425.684801 275.238437)scale(0.1 -0.1)">
       <use xlink:href="#DejaVuSans-30"/>
       <use x="63.623047" xlink:href="#DejaVuSans-2e"/>
       <use x="95.410156" xlink:href="#DejaVuSans-32"/>
      </g>
     </g>
    </g>
    <g id="xtick_9">
     <g id="line2d_26">
      <path clip-path="url(#p5f6efbec61)" d="M 636.545455 260.64 
L 636.545455 181.44 
" style="fill:none;stroke:#b0b0b0;stroke-linecap:square;stroke-width:0.8;"/>
     </g>
     <g id="line2d_27">
      <g>
       <use style="stroke:#000000;stroke-width:0.8;" x="636.545455" xlink:href="#ma7f42e4ad2" y="260.64"/>
      </g>
     </g>
     <g id="text_14">
      <!-- 0.4 -->
      <g transform="translate(628.593892 275.238437)scale(0.1 -0.1)">
       <use xlink:href="#DejaVuSans-30"/>
       <use x="63.623047" xlink:href="#DejaVuSans-2e"/>
       <use x="95.410156" xlink:href="#DejaVuSans-34"/>
      </g>
     </g>
    </g>
    <g id="xtick_10">
     <g id="line2d_28">
      <path clip-path="url(#p5f6efbec61)" d="M 839.454545 260.64 
L 839.454545 181.44 
" style="fill:none;stroke:#b0b0b0;stroke-linecap:square;stroke-width:0.8;"/>
     </g>
     <g id="line2d_29">
      <g>
       <use style="stroke:#000000;stroke-width:0.8;" x="839.454545" xlink:href="#ma7f42e4ad2" y="260.64"/>
      </g>
     </g>
     <g id="text_15">
      <!-- 0.6 -->
      <g transform="translate(831.502983 275.238437)scale(0.1 -0.1)">
       <use xlink:href="#DejaVuSans-30"/>
       <use x="63.623047" xlink:href="#DejaVuSans-2e"/>
       <use x="95.410156" xlink:href="#DejaVuSans-36"/>
      </g>
     </g>
    </g>
    <g id="xtick_11">
     <g id="line2d_30">
      <path clip-path="url(#p5f6efbec61)" d="M 1042.363636 260.64 
L 1042.363636 181.44 
" style="fill:none;stroke:#b0b0b0;stroke-linecap:square;stroke-width:0.8;"/>
     </g>
     <g id="line2d_31">
      <g>
       <use style="stroke:#000000;stroke-width:0.8;" x="1042.363636" xlink:href="#ma7f42e4ad2" y="260.64"/>
      </g>
     </g>
     <g id="text_16">
      <!-- 0.8 -->
      <g transform="translate(1034.412074 275.238437)scale(0.1 -0.1)">
       <use xlink:href="#DejaVuSans-30"/>
       <use x="63.623047" xlink:href="#DejaVuSans-2e"/>
       <use x="95.410156" xlink:href="#DejaVuSans-38"/>
      </g>
     </g>
    </g>
    <g id="xtick_12">
     <g id="line2d_32">
      <path clip-path="url(#p5f6efbec61)" d="M 1245.272727 260.64 
L 1245.272727 181.44 
" style="fill:none;stroke:#b0b0b0;stroke-linecap:square;stroke-width:0.8;"/>
     </g>
     <g id="line2d_33">
      <g>
       <use style="stroke:#000000;stroke-width:0.8;" x="1245.272727" xlink:href="#ma7f42e4ad2" y="260.64"/>
      </g>
     </g>
     <g id="text_17">
      <!-- 1.0 -->
      <g transform="translate(1237.321165 275.238437)scale(0.1 -0.1)">
       <use xlink:href="#DejaVuSans-31"/>
       <use x="63.623047" xlink:href="#DejaVuSans-2e"/>
       <use x="95.410156" xlink:href="#DejaVuSans-30"/>
      </g>
     </g>
    </g>
   </g>
   <g id="matplotlib.axis_4">
    <g id="ytick_4">
     <g id="line2d_34">
      <path clip-path="url(#p5f6efbec61)" d="M 180 257.040033 
L 1296 257.040033 
" style="fill:none;stroke:#b0b0b0;stroke-linecap:square;stroke-width:0.8;"/>
     </g>
     <g id="line2d_35">
      <g>
       <use style="stroke:#000000;stroke-width:0.8;" x="180" xlink:href="#m4b35b2081a" y="257.040033"/>
      </g>
     </g>
     <g id="text_18">
      <!-- 0 -->
      <g transform="translate(166.6375 260.839252)scale(0.1 -0.1)">
       <use xlink:href="#DejaVuSans-30"/>
      </g>
     </g>
    </g>
    <g id="ytick_5">
     <g id="line2d_36">
      <path clip-path="url(#p5f6efbec61)" d="M 180 225.434934 
L 1296 225.434934 
" style="fill:none;stroke:#b0b0b0;stroke-linecap:square;stroke-width:0.8;"/>
     </g>
     <g id="line2d_37">
      <g>
       <use style="stroke:#000000;stroke-width:0.8;" x="180" xlink:href="#m4b35b2081a" y="225.434934"/>
      </g>
     </g>
     <g id="text_19">
      <!-- 2 -->
      <g transform="translate(166.6375 229.234153)scale(0.1 -0.1)">
       <use xlink:href="#DejaVuSans-32"/>
      </g>
     </g>
    </g>
    <g id="ytick_6">
     <g id="line2d_38">
      <path clip-path="url(#p5f6efbec61)" d="M 180 193.829835 
L 1296 193.829835 
" style="fill:none;stroke:#b0b0b0;stroke-linecap:square;stroke-width:0.8;"/>
     </g>
     <g id="line2d_39">
      <g>
       <use style="stroke:#000000;stroke-width:0.8;" x="180" xlink:href="#m4b35b2081a" y="193.829835"/>
      </g>
     </g>
     <g id="text_20">
      <!-- 4 -->
      <g transform="translate(166.6375 197.629054)scale(0.1 -0.1)">
       <use xlink:href="#DejaVuSans-34"/>
      </g>
     </g>
    </g>
    <g id="text_21">
     <!-- 1e−12 -->
     <g transform="translate(180 178.44)scale(0.1 -0.1)">
      <use xlink:href="#DejaVuSans-31"/>
      <use x="63.623047" xlink:href="#DejaVuSans-65"/>
      <use x="125.146484" xlink:href="#DejaVuSans-2212"/>
      <use x="208.935547" xlink:href="#DejaVuSans-31"/>
      <use x="272.558594" xlink:href="#DejaVuSans-32"/>
     </g>
    </g>
   </g>
   <g id="line2d_40">
    <path clip-path="url(#p5f6efbec61)" d="M 230.727273 257.04 
L 485.358289 256.940109 
L 521.165775 256.731334 
L 545.037433 256.386172 
L 560.951872 255.963084 
L 572.887701 255.476152 
L 584.823529 254.772595 
L 592.780749 254.138894 
L 600.737968 253.332822 
L 608.695187 252.310505 
L 616.652406 251.018808 
L 624.609626 249.394603 
L 632.566845 247.36485 
L 636.545455 246.172701 
L 640.524064 244.848178 
L 644.502674 243.38047 
L 648.481283 241.758944 
L 652.459893 239.973502 
L 656.438503 238.015023 
L 660.417112 235.875911 
L 664.395722 233.550745 
L 668.374332 231.037036 
L 672.352941 228.336077 
L 676.331551 225.453869 
L 680.31016 222.402073 
L 688.26738 215.870214 
L 708.160428 198.815538 
L 712.139037 195.724589 
L 716.117647 192.899886 
L 720.096257 190.412633 
L 724.074866 188.329788 
L 728.053476 186.710489 
L 732.032086 185.602644 
L 736.010695 185.04 
L 739.989305 185.04 
L 743.967914 185.602644 
L 747.946524 186.710489 
L 751.925134 188.329788 
L 755.903743 190.412633 
L 759.882353 192.899886 
L 763.860963 195.724589 
L 767.839572 198.815538 
L 775.796791 205.510385 
L 787.73262 215.870214 
L 795.68984 222.402073 
L 799.668449 225.453869 
L 803.647059 228.336077 
L 807.625668 231.037036 
L 811.604278 233.550745 
L 815.582888 235.875911 
L 819.561497 238.015023 
L 823.540107 239.973502 
L 827.518717 241.758944 
L 831.497326 243.38047 
L 835.475936 244.848178 
L 839.454545 246.172701 
L 843.433155 247.36485 
L 851.390374 249.394603 
L 859.347594 251.018808 
L 867.304813 252.310505 
L 875.262032 253.332822 
L 883.219251 254.138894 
L 895.15508 255.036254 
L 907.090909 255.658809 
L 923.005348 256.200726 
L 942.898396 256.59066 
L 970.748663 256.853006 
L 1014.513369 256.992953 
L 1125.914439 257.03863 
L 1245.272727 257.04 
L 1245.272727 257.04 
" style="fill:none;stroke:#1f77b4;stroke-linecap:square;stroke-width:1.5;"/>
   </g>
   <g id="patch_9">
    <path d="M 180 260.64 
L 180 181.44 
" style="fill:none;stroke:#000000;stroke-linecap:square;stroke-linejoin:miter;stroke-width:0.8;"/>
   </g>
   <g id="patch_10">
    <path d="M 1296 260.64 
L 1296 181.44 
" style="fill:none;stroke:#000000;stroke-linecap:square;stroke-linejoin:miter;stroke-width:0.8;"/>
   </g>
   <g id="patch_11">
    <path d="M 180 260.64 
L 1296 260.64 
" style="fill:none;stroke:#000000;stroke-linecap:square;stroke-linejoin:miter;stroke-width:0.8;"/>
   </g>
   <g id="patch_12">
    <path d="M 180 181.44 
L 1296 181.44 
" style="fill:none;stroke:#000000;stroke-linecap:square;stroke-linejoin:miter;stroke-width:0.8;"/>
   </g>
   <g id="legend_2">
    <g id="patch_13">
     <path d="M 1229.096875 204.39625 
L 1289 204.39625 
Q 1291 204.39625 1291 202.39625 
L 1291 188.44 
Q 1291 186.44 1289 186.44 
L 1229.096875 186.44 
Q 1227.096875 186.44 1227.096875 188.44 
L 1227.096875 202.39625 
Q 1227.096875 204.39625 1229.096875 204.39625 
z
" style="fill:#ffffff;opacity:0.8;stroke:#cccccc;stroke-linejoin:miter;"/>
    </g>
    <g id="line2d_41">
     <path d="M 1231.096875 194.538437 
L 1251.096875 194.538437 
" style="fill:none;stroke:#1f77b4;stroke-linecap:square;stroke-width:1.5;"/>
    </g>
    <g id="line2d_42"/>
    <g id="text_22">
     <!-- rho_n -->
     <defs>
      <path d="M 54.890625 33.015625 
L 54.890625 0 
L 45.90625 0 
L 45.90625 32.71875 
Q 45.90625 40.484375 42.875 44.328125 
Q 39.84375 48.1875 33.796875 48.1875 
Q 26.515625 48.1875 22.3125 43.546875 
Q 18.109375 38.921875 18.109375 30.90625 
L 18.109375 0 
L 9.078125 0 
L 9.078125 54.6875 
L 18.109375 54.6875 
L 18.109375 46.1875 
Q 21.34375 51.125 25.703125 53.5625 
Q 30.078125 56 35.796875 56 
Q 45.21875 56 50.046875 50.171875 
Q 54.890625 44.34375 54.890625 33.015625 
" id="DejaVuSans-6e"/>
     </defs>
     <g transform="translate(1259.096875 198.038437)scale(0.1 -0.1)">
      <use xlink:href="#DejaVuSans-72"/>
      <use x="41.097656" xlink:href="#DejaVuSans-68"/>
      <use x="104.476562" xlink:href="#DejaVuSans-6f"/>
      <use x="165.658203" xlink:href="#DejaVuSans-5f"/>
      <use x="215.658203" xlink:href="#DejaVuSans-6e"/>
     </g>
    </g>
   </g>
  </g>
  <g id="axes_3">
   <g id="patch_14">
    <path d="M 180 355.68 
L 1296 355.68 
L 1296 276.48 
L 180 276.48 
z
" style="fill:#ffffff;"/>
   </g>
   <g id="matplotlib.axis_5">
    <g id="xtick_13">
     <g id="line2d_43">
      <path clip-path="url(#p98fb16c32c)" d="M 230.727273 355.68 
L 230.727273 276.48 
" style="fill:none;stroke:#b0b0b0;stroke-linecap:square;stroke-width:0.8;"/>
     </g>
     <g id="line2d_44">
      <g>
       <use style="stroke:#000000;stroke-width:0.8;" x="230.727273" xlink:href="#ma7f42e4ad2" y="355.68"/>
      </g>
     </g>
     <g id="text_23">
      <!-- 0.0 -->
      <g transform="translate(222.77571 370.278437)scale(0.1 -0.1)">
       <use xlink:href="#DejaVuSans-30"/>
       <use x="63.623047" xlink:href="#DejaVuSans-2e"/>
       <use x="95.410156" xlink:href="#DejaVuSans-30"/>
      </g>
     </g>
    </g>
    <g id="xtick_14">
     <g id="line2d_45">
      <path clip-path="url(#p98fb16c32c)" d="M 433.636364 355.68 
L 433.636364 276.48 
" style="fill:none;stroke:#b0b0b0;stroke-linecap:square;stroke-width:0.8;"/>
     </g>
     <g id="line2d_46">
      <g>
       <use style="stroke:#000000;stroke-width:0.8;" x="433.636364" xlink:href="#ma7f42e4ad2" y="355.68"/>
      </g>
     </g>
     <g id="text_24">
      <!-- 0.2 -->
      <g transform="translate(425.684801 370.278437)scale(0.1 -0.1)">
       <use xlink:href="#DejaVuSans-30"/>
       <use x="63.623047" xlink:href="#DejaVuSans-2e"/>
       <use x="95.410156" xlink:href="#DejaVuSans-32"/>
      </g>
     </g>
    </g>
    <g id="xtick_15">
     <g id="line2d_47">
      <path clip-path="url(#p98fb16c32c)" d="M 636.545455 355.68 
L 636.545455 276.48 
" style="fill:none;stroke:#b0b0b0;stroke-linecap:square;stroke-width:0.8;"/>
     </g>
     <g id="line2d_48">
      <g>
       <use style="stroke:#000000;stroke-width:0.8;" x="636.545455" xlink:href="#ma7f42e4ad2" y="355.68"/>
      </g>
     </g>
     <g id="text_25">
      <!-- 0.4 -->
      <g transform="translate(628.593892 370.278437)scale(0.1 -0.1)">
       <use xlink:href="#DejaVuSans-30"/>
       <use x="63.623047" xlink:href="#DejaVuSans-2e"/>
       <use x="95.410156" xlink:href="#DejaVuSans-34"/>
      </g>
     </g>
    </g>
    <g id="xtick_16">
     <g id="line2d_49">
      <path clip-path="url(#p98fb16c32c)" d="M 839.454545 355.68 
L 839.454545 276.48 
" style="fill:none;stroke:#b0b0b0;stroke-linecap:square;stroke-width:0.8;"/>
     </g>
     <g id="line2d_50">
      <g>
       <use style="stroke:#000000;stroke-width:0.8;" x="839.454545" xlink:href="#ma7f42e4ad2" y="355.68"/>
      </g>
     </g>
     <g id="text_26">
      <!-- 0.6 -->
      <g transform="translate(831.502983 370.278437)scale(0.1 -0.1)">
       <use xlink:href="#DejaVuSans-30"/>
       <use x="63.623047" xlink:href="#DejaVuSans-2e"/>
       <use x="95.410156" xlink:href="#DejaVuSans-36"/>
      </g>
     </g>
    </g>
    <g id="xtick_17">
     <g id="line2d_51">
      <path clip-path="url(#p98fb16c32c)" d="M 1042.363636 355.68 
L 1042.363636 276.48 
" style="fill:none;stroke:#b0b0b0;stroke-linecap:square;stroke-width:0.8;"/>
     </g>
     <g id="line2d_52">
      <g>
       <use style="stroke:#000000;stroke-width:0.8;" x="1042.363636" xlink:href="#ma7f42e4ad2" y="355.68"/>
      </g>
     </g>
     <g id="text_27">
      <!-- 0.8 -->
      <g transform="translate(1034.412074 370.278437)scale(0.1 -0.1)">
       <use xlink:href="#DejaVuSans-30"/>
       <use x="63.623047" xlink:href="#DejaVuSans-2e"/>
       <use x="95.410156" xlink:href="#DejaVuSans-38"/>
      </g>
     </g>
    </g>
    <g id="xtick_18">
     <g id="line2d_53">
      <path clip-path="url(#p98fb16c32c)" d="M 1245.272727 355.68 
L 1245.272727 276.48 
" style="fill:none;stroke:#b0b0b0;stroke-linecap:square;stroke-width:0.8;"/>
     </g>
     <g id="line2d_54">
      <g>
       <use style="stroke:#000000;stroke-width:0.8;" x="1245.272727" xlink:href="#ma7f42e4ad2" y="355.68"/>
      </g>
     </g>
     <g id="text_28">
      <!-- 1.0 -->
      <g transform="translate(1237.321165 370.278437)scale(0.1 -0.1)">
       <use xlink:href="#DejaVuSans-31"/>
       <use x="63.623047" xlink:href="#DejaVuSans-2e"/>
       <use x="95.410156" xlink:href="#DejaVuSans-30"/>
      </g>
     </g>
    </g>
   </g>
   <g id="matplotlib.axis_6">
    <g id="ytick_7">
     <g id="line2d_55">
      <path clip-path="url(#p98fb16c32c)" d="M 180 348.822325 
L 1296 348.822325 
" style="fill:none;stroke:#b0b0b0;stroke-linecap:square;stroke-width:0.8;"/>
     </g>
     <g id="line2d_56">
      <g>
       <use style="stroke:#000000;stroke-width:0.8;" x="180" xlink:href="#m4b35b2081a" y="348.822325"/>
      </g>
     </g>
     <g id="text_29">
      <!-- −0.1 -->
      <g transform="translate(148.717187 352.621544)scale(0.1 -0.1)">
       <use xlink:href="#DejaVuSans-2212"/>
       <use x="83.789062" xlink:href="#DejaVuSans-30"/>
       <use x="147.412109" xlink:href="#DejaVuSans-2e"/>
       <use x="179.199219" xlink:href="#DejaVuSans-31"/>
      </g>
     </g>
    </g>
    <g id="ytick_8">
     <g id="line2d_57">
      <path clip-path="url(#p98fb16c32c)" d="M 180 316.08 
L 1296 316.08 
" style="fill:none;stroke:#b0b0b0;stroke-linecap:square;stroke-width:0.8;"/>
     </g>
     <g id="line2d_58">
      <g>
       <use style="stroke:#000000;stroke-width:0.8;" x="180" xlink:href="#m4b35b2081a" y="316.08"/>
      </g>
     </g>
     <g id="text_30">
      <!-- 0.0 -->
      <g transform="translate(157.096875 319.879219)scale(0.1 -0.1)">
       <use xlink:href="#DejaVuSans-30"/>
       <use x="63.623047" xlink:href="#DejaVuSans-2e"/>
       <use x="95.410156" xlink:href="#DejaVuSans-30"/>
      </g>
     </g>
    </g>
    <g id="ytick_9">
     <g id="line2d_59">
      <path clip-path="url(#p98fb16c32c)" d="M 180 283.337675 
L 1296 283.337675 
" style="fill:none;stroke:#b0b0b0;stroke-linecap:square;stroke-width:0.8;"/>
     </g>
     <g id="line2d_60">
      <g>
       <use style="stroke:#000000;stroke-width:0.8;" x="180" xlink:href="#m4b35b2081a" y="283.337675"/>
      </g>
     </g>
     <g id="text_31">
      <!-- 0.1 -->
      <g transform="translate(157.096875 287.136893)scale(0.1 -0.1)">
       <use xlink:href="#DejaVuSans-30"/>
       <use x="63.623047" xlink:href="#DejaVuSans-2e"/>
       <use x="95.410156" xlink:href="#DejaVuSans-31"/>
      </g>
     </g>
    </g>
   </g>
   <g id="line2d_61">
    <path clip-path="url(#p98fb16c32c)" d="M 230.727273 316.079986 
L 489.336898 315.980198 
L 525.144385 315.771788 
L 549.016043 315.427562 
L 564.930481 315.0062 
L 576.86631 314.522065 
L 588.802139 313.824134 
L 596.759358 313.197167 
L 604.716578 312.402045 
L 612.673797 311.397658 
L 620.631016 310.1355 
L 628.588235 308.560235 
L 636.545455 306.611992 
L 644.502674 304.231712 
L 648.481283 302.863747 
L 652.459893 301.371596 
L 656.438503 299.754058 
L 664.395722 296.157411 
L 672.352941 292.161721 
L 684.28877 285.961977 
L 688.26738 284.070272 
L 692.245989 282.411748 
L 696.224599 281.102497 
L 700.203209 280.276306 
L 704.181818 280.08 
L 708.160428 280.664714 
L 712.139037 282.172339 
L 716.117647 284.717107 
L 720.096257 288.363644 
L 724.074866 293.104685 
L 728.053476 298.843517 
L 732.032086 305.387122 
L 743.967914 326.772878 
L 747.946524 333.316483 
L 751.925134 339.055315 
L 755.903743 343.796356 
L 759.882353 347.442893 
L 763.860963 349.987661 
L 767.839572 351.495286 
L 771.818182 352.08 
L 775.796791 351.883694 
L 779.775401 351.057503 
L 783.754011 349.748252 
L 787.73262 348.089728 
L 791.71123 346.198023 
L 803.647059 339.998279 
L 811.604278 336.002589 
L 819.561497 332.405942 
L 823.540107 330.788404 
L 827.518717 329.296253 
L 831.497326 327.928288 
L 839.454545 325.548008 
L 847.411765 323.599765 
L 855.368984 322.0245 
L 863.326203 320.762342 
L 871.283422 319.757955 
L 879.240642 318.962833 
L 891.176471 318.074539 
L 903.112299 317.45643 
L 919.026738 316.917206 
L 938.919786 316.528556 
L 966.770053 316.266771 
L 1010.534759 316.127026 
L 1121.935829 316.081401 
L 1245.272727 316.080016 
L 1245.272727 316.080016 
" style="fill:none;stroke:#1f77b4;stroke-linecap:square;stroke-width:1.5;"/>
   </g>
   <g id="patch_15">
    <path d="M 180 355.68 
L 180 276.48 
" style="fill:none;stroke:#000000;stroke-linecap:square;stroke-linejoin:miter;stroke-width:0.8;"/>
   </g>
   <g id="patch_16">
    <path d="M 1296 355.68 
L 1296 276.48 
" style="fill:none;stroke:#000000;stroke-linecap:square;stroke-linejoin:miter;stroke-width:0.8;"/>
   </g>
   <g id="patch_17">
    <path d="M 180 355.68 
L 1296 355.68 
" style="fill:none;stroke:#000000;stroke-linecap:square;stroke-linejoin:miter;stroke-width:0.8;"/>
   </g>
   <g id="patch_18">
    <path d="M 180 276.48 
L 1296 276.48 
" style="fill:none;stroke:#000000;stroke-linecap:square;stroke-linejoin:miter;stroke-width:0.8;"/>
   </g>
   <g id="legend_3">
    <g id="patch_19">
     <path d="M 1234.664062 299.43625 
L 1289 299.43625 
Q 1291 299.43625 1291 297.43625 
L 1291 283.48 
Q 1291 281.48 1289 281.48 
L 1234.664062 281.48 
Q 1232.664062 281.48 1232.664062 283.48 
L 1232.664062 297.43625 
Q 1232.664062 299.43625 1234.664062 299.43625 
z
" style="fill:#ffffff;opacity:0.8;stroke:#cccccc;stroke-linejoin:miter;"/>
    </g>
    <g id="line2d_62">
     <path d="M 1236.664062 289.578438 
L 1256.664062 289.578438 
" style="fill:none;stroke:#1f77b4;stroke-linecap:square;stroke-width:1.5;"/>
    </g>
    <g id="line2d_63"/>
    <g id="text_32">
     <!-- vy_c -->
     <defs>
      <path d="M 2.984375 54.6875 
L 12.5 54.6875 
L 29.59375 8.796875 
L 46.6875 54.6875 
L 56.203125 54.6875 
L 35.6875 0 
L 23.484375 0 
z
" id="DejaVuSans-76"/>
      <path d="M 32.171875 -5.078125 
Q 28.375 -14.84375 24.75 -17.8125 
Q 21.140625 -20.796875 15.09375 -20.796875 
L 7.90625 -20.796875 
L 7.90625 -13.28125 
L 13.1875 -13.28125 
Q 16.890625 -13.28125 18.9375 -11.515625 
Q 21 -9.765625 23.484375 -3.21875 
L 25.09375 0.875 
L 2.984375 54.6875 
L 12.5 54.6875 
L 29.59375 11.921875 
L 46.6875 54.6875 
L 56.203125 54.6875 
z
" id="DejaVuSans-79"/>
     </defs>
     <g transform="translate(1264.664062 293.078438)scale(0.1 -0.1)">
      <use xlink:href="#DejaVuSans-76"/>
      <use x="59.179688" xlink:href="#DejaVuSans-79"/>
      <use x="118.359375" xlink:href="#DejaVuSans-5f"/>
      <use x="168.359375" xlink:href="#DejaVuSans-63"/>
     </g>
    </g>
   </g>
  </g>
  <g id="axes_4">
   <g id="patch_20">
    <path d="M 180 450.72 
L 1296 450.72 
L 1296 371.52 
L 180 371.52 
z
" style="fill:#ffffff;"/>
   </g>
   <g id="matplotlib.axis_7">
    <g id="xtick_19">
     <g id="line2d_64">
      <path clip-path="url(#pf9562ee4e5)" d="M 230.727273 450.72 
L 230.727273 371.52 
" style="fill:none;stroke:#b0b0b0;stroke-linecap:square;stroke-width:0.8;"/>
     </g>
     <g id="line2d_65">
      <g>
       <use style="stroke:#000000;stroke-width:0.8;" x="230.727273" xlink:href="#ma7f42e4ad2" y="450.72"/>
      </g>
     </g>
     <g id="text_33">
      <!-- 0.0 -->
      <g transform="translate(222.77571 465.318438)scale(0.1 -0.1)">
       <use xlink:href="#DejaVuSans-30"/>
       <use x="63.623047" xlink:href="#DejaVuSans-2e"/>
       <use x="95.410156" xlink:href="#DejaVuSans-30"/>
      </g>
     </g>
    </g>
    <g id="xtick_20">
     <g id="line2d_66">
      <path clip-path="url(#pf9562ee4e5)" d="M 433.636364 450.72 
L 433.636364 371.52 
" style="fill:none;stroke:#b0b0b0;stroke-linecap:square;stroke-width:0.8;"/>
     </g>
     <g id="line2d_67">
      <g>
       <use style="stroke:#000000;stroke-width:0.8;" x="433.636364" xlink:href="#ma7f42e4ad2" y="450.72"/>
      </g>
     </g>
     <g id="text_34">
      <!-- 0.2 -->
      <g transform="translate(425.684801 465.318438)scale(0.1 -0.1)">
       <use xlink:href="#DejaVuSans-30"/>
       <use x="63.623047" xlink:href="#DejaVuSans-2e"/>
       <use x="95.410156" xlink:href="#DejaVuSans-32"/>
      </g>
     </g>
    </g>
    <g id="xtick_21">
     <g id="line2d_68">
      <path clip-path="url(#pf9562ee4e5)" d="M 636.545455 450.72 
L 636.545455 371.52 
" style="fill:none;stroke:#b0b0b0;stroke-linecap:square;stroke-width:0.8;"/>
     </g>
     <g id="line2d_69">
      <g>
       <use style="stroke:#000000;stroke-width:0.8;" x="636.545455" xlink:href="#ma7f42e4ad2" y="450.72"/>
      </g>
     </g>
     <g id="text_35">
      <!-- 0.4 -->
      <g transform="translate(628.593892 465.318438)scale(0.1 -0.1)">
       <use xlink:href="#DejaVuSans-30"/>
       <use x="63.623047" xlink:href="#DejaVuSans-2e"/>
       <use x="95.410156" xlink:href="#DejaVuSans-34"/>
      </g>
     </g>
    </g>
    <g id="xtick_22">
     <g id="line2d_70">
      <path clip-path="url(#pf9562ee4e5)" d="M 839.454545 450.72 
L 839.454545 371.52 
" style="fill:none;stroke:#b0b0b0;stroke-linecap:square;stroke-width:0.8;"/>
     </g>
     <g id="line2d_71">
      <g>
       <use style="stroke:#000000;stroke-width:0.8;" x="839.454545" xlink:href="#ma7f42e4ad2" y="450.72"/>
      </g>
     </g>
     <g id="text_36">
      <!-- 0.6 -->
      <g transform="translate(831.502983 465.318438)scale(0.1 -0.1)">
       <use xlink:href="#DejaVuSans-30"/>
       <use x="63.623047" xlink:href="#DejaVuSans-2e"/>
       <use x="95.410156" xlink:href="#DejaVuSans-36"/>
      </g>
     </g>
    </g>
    <g id="xtick_23">
     <g id="line2d_72">
      <path clip-path="url(#pf9562ee4e5)" d="M 1042.363636 450.72 
L 1042.363636 371.52 
" style="fill:none;stroke:#b0b0b0;stroke-linecap:square;stroke-width:0.8;"/>
     </g>
     <g id="line2d_73">
      <g>
       <use style="stroke:#000000;stroke-width:0.8;" x="1042.363636" xlink:href="#ma7f42e4ad2" y="450.72"/>
      </g>
     </g>
     <g id="text_37">
      <!-- 0.8 -->
      <g transform="translate(1034.412074 465.318438)scale(0.1 -0.1)">
       <use xlink:href="#DejaVuSans-30"/>
       <use x="63.623047" xlink:href="#DejaVuSans-2e"/>
       <use x="95.410156" xlink:href="#DejaVuSans-38"/>
      </g>
     </g>
    </g>
    <g id="xtick_24">
     <g id="line2d_74">
      <path clip-path="url(#pf9562ee4e5)" d="M 1245.272727 450.72 
L 1245.272727 371.52 
" style="fill:none;stroke:#b0b0b0;stroke-linecap:square;stroke-width:0.8;"/>
     </g>
     <g id="line2d_75">
      <g>
       <use style="stroke:#000000;stroke-width:0.8;" x="1245.272727" xlink:href="#ma7f42e4ad2" y="450.72"/>
      </g>
     </g>
     <g id="text_38">
      <!-- 1.0 -->
      <g transform="translate(1237.321165 465.318438)scale(0.1 -0.1)">
       <use xlink:href="#DejaVuSans-31"/>
       <use x="63.623047" xlink:href="#DejaVuSans-2e"/>
       <use x="95.410156" xlink:href="#DejaVuSans-30"/>
      </g>
     </g>
    </g>
   </g>
   <g id="matplotlib.axis_8">
    <g id="ytick_10">
     <g id="line2d_76">
      <path clip-path="url(#pf9562ee4e5)" d="M 180 435.298761 
L 1296 435.298761 
" style="fill:none;stroke:#b0b0b0;stroke-linecap:square;stroke-width:0.8;"/>
     </g>
     <g id="line2d_77">
      <g>
       <use style="stroke:#000000;stroke-width:0.8;" x="180" xlink:href="#m4b35b2081a" y="435.298761"/>
      </g>
     </g>
     <g id="text_39">
      <!-- −0.00005 -->
      <defs>
       <path d="M 10.796875 72.90625 
L 49.515625 72.90625 
L 49.515625 64.59375 
L 19.828125 64.59375 
L 19.828125 46.734375 
Q 21.96875 47.46875 24.109375 47.828125 
Q 26.265625 48.1875 28.421875 48.1875 
Q 40.625 48.1875 47.75 41.5 
Q 54.890625 34.8125 54.890625 23.390625 
Q 54.890625 11.625 47.5625 5.09375 
Q 40.234375 -1.421875 26.90625 -1.421875 
Q 22.3125 -1.421875 17.546875 -0.640625 
Q 12.796875 0.140625 7.71875 1.703125 
L 7.71875 11.625 
Q 12.109375 9.234375 16.796875 8.0625 
Q 21.484375 6.890625 26.703125 6.890625 
Q 35.15625 6.890625 40.078125 11.328125 
Q 45.015625 15.765625 45.015625 23.390625 
Q 45.015625 31 40.078125 35.4375 
Q 35.15625 39.890625 26.703125 39.890625 
Q 22.75 39.890625 18.8125 39.015625 
Q 14.890625 38.140625 10.796875 36.28125 
z
" id="DejaVuSans-35"/>
      </defs>
      <g transform="translate(123.267188 439.097979)scale(0.1 -0.1)">
       <use xlink:href="#DejaVuSans-2212"/>
       <use x="83.789062" xlink:href="#DejaVuSans-30"/>
       <use x="147.412109" xlink:href="#DejaVuSans-2e"/>
       <use x="179.199219" xlink:href="#DejaVuSans-30"/>
       <use x="242.822266" xlink:href="#DejaVuSans-30"/>
       <use x="306.445312" xlink:href="#DejaVuSans-30"/>
       <use x="370.068359" xlink:href="#DejaVuSans-30"/>
       <use x="433.691406" xlink:href="#DejaVuSans-35"/>
      </g>
     </g>
    </g>
    <g id="ytick_11">
     <g id="line2d_78">
      <path clip-path="url(#pf9562ee4e5)" d="M 180 411.12 
L 1296 411.12 
" style="fill:none;stroke:#b0b0b0;stroke-linecap:square;stroke-width:0.8;"/>
     </g>
     <g id="line2d_79">
      <g>
       <use style="stroke:#000000;stroke-width:0.8;" x="180" xlink:href="#m4b35b2081a" y="411.12"/>
      </g>
     </g>
     <g id="text_40">
      <!-- 0.00000 -->
      <g transform="translate(131.646875 414.919219)scale(0.1 -0.1)">
       <use xlink:href="#DejaVuSans-30"/>
       <use x="63.623047" xlink:href="#DejaVuSans-2e"/>
       <use x="95.410156" xlink:href="#DejaVuSans-30"/>
       <use x="159.033203" xlink:href="#DejaVuSans-30"/>
       <use x="222.65625" xlink:href="#DejaVuSans-30"/>
       <use x="286.279297" xlink:href="#DejaVuSans-30"/>
       <use x="349.902344" xlink:href="#DejaVuSans-30"/>
      </g>
     </g>
    </g>
    <g id="ytick_12">
     <g id="line2d_80">
      <path clip-path="url(#pf9562ee4e5)" d="M 180 386.941239 
L 1296 386.941239 
" style="fill:none;stroke:#b0b0b0;stroke-linecap:square;stroke-width:0.8;"/>
     </g>
     <g id="line2d_81">
      <g>
       <use style="stroke:#000000;stroke-width:0.8;" x="180" xlink:href="#m4b35b2081a" y="386.941239"/>
      </g>
     </g>
     <g id="text_41">
      <!-- 0.00005 -->
      <g transform="translate(131.646875 390.740458)scale(0.1 -0.1)">
       <use xlink:href="#DejaVuSans-30"/>
       <use x="63.623047" xlink:href="#DejaVuSans-2e"/>
       <use x="95.410156" xlink:href="#DejaVuSans-30"/>
       <use x="159.033203" xlink:href="#DejaVuSans-30"/>
       <use x="222.65625" xlink:href="#DejaVuSans-30"/>
       <use x="286.279297" xlink:href="#DejaVuSans-30"/>
       <use x="349.902344" xlink:href="#DejaVuSans-35"/>
      </g>
     </g>
    </g>
   </g>
   <g id="line2d_82">
    <path clip-path="url(#pf9562ee4e5)" d="M 230.727273 411.12002 
L 477.40107 411.221135 
L 513.208556 411.432184 
L 537.080214 411.780349 
L 552.994652 412.205818 
L 564.930481 412.693706 
L 576.86631 413.395235 
L 584.823529 414.023621 
L 592.780749 414.818086 
L 600.737968 415.817753 
L 608.695187 417.067888 
L 616.652406 418.618778 
L 624.609626 420.522819 
L 632.566845 422.82873 
L 640.524064 425.571508 
L 648.481283 428.756545 
L 656.438503 432.336654 
L 676.331551 441.870446 
L 680.31016 443.540017 
L 684.28877 444.982734 
L 688.26738 446.117911 
L 692.245989 446.859546 
L 696.224599 447.12 
L 700.203209 446.814862 
L 704.181818 445.86886 
L 708.160428 444.222479 
L 712.139037 441.838784 
L 716.117647 438.709718 
L 720.096257 434.861061 
L 724.074866 430.35523 
L 728.053476 425.291207 
L 732.032086 419.801207 
L 747.946524 396.948793 
L 751.925134 391.88477 
L 755.903743 387.378939 
L 759.882353 383.530282 
L 763.860963 380.401216 
L 767.839572 378.017521 
L 771.818182 376.37114 
L 775.796791 375.425138 
L 779.775401 375.12 
L 783.754011 375.380454 
L 787.73262 376.122089 
L 791.71123 377.257267 
L 795.68984 378.699984 
L 799.668449 380.369555 
L 807.625668 384.107136 
L 819.561497 389.903346 
L 827.518717 393.483454 
L 835.475936 396.668492 
L 843.433155 399.41127 
L 851.390374 401.717181 
L 859.347594 403.621222 
L 867.304813 405.172112 
L 875.262032 406.422247 
L 883.219251 407.421914 
L 891.176471 408.216379 
L 903.112299 409.107189 
L 915.048128 409.729085 
L 930.962567 410.272985 
L 950.855615 410.665803 
L 978.705882 410.930771 
L 1022.470588 411.07234 
L 1133.871658 411.118579 
L 1245.272727 411.119976 
L 1245.272727 411.119976 
" style="fill:none;stroke:#1f77b4;stroke-linecap:square;stroke-width:1.5;"/>
   </g>
   <g id="patch_21">
    <path d="M 180 450.72 
L 180 371.52 
" style="fill:none;stroke:#000000;stroke-linecap:square;stroke-linejoin:miter;stroke-width:0.8;"/>
   </g>
   <g id="patch_22">
    <path d="M 1296 450.72 
L 1296 371.52 
" style="fill:none;stroke:#000000;stroke-linecap:square;stroke-linejoin:miter;stroke-width:0.8;"/>
   </g>
   <g id="patch_23">
    <path d="M 180 450.72 
L 1296 450.72 
" style="fill:none;stroke:#000000;stroke-linecap:square;stroke-linejoin:miter;stroke-width:0.8;"/>
   </g>
   <g id="patch_24">
    <path d="M 180 371.52 
L 1296 371.52 
" style="fill:none;stroke:#000000;stroke-linecap:square;stroke-linejoin:miter;stroke-width:0.8;"/>
   </g>
   <g id="legend_4">
    <g id="patch_25">
     <path d="M 1233.825 394.47625 
L 1289 394.47625 
Q 1291 394.47625 1291 392.47625 
L 1291 378.52 
Q 1291 376.52 1289 376.52 
L 1233.825 376.52 
Q 1231.825 376.52 1231.825 378.52 
L 1231.825 392.47625 
Q 1231.825 394.47625 1233.825 394.47625 
z
" style="fill:#ffffff;opacity:0.8;stroke:#cccccc;stroke-linejoin:miter;"/>
    </g>
    <g id="line2d_83">
     <path d="M 1235.825 384.618437 
L 1255.825 384.618437 
" style="fill:none;stroke:#1f77b4;stroke-linecap:square;stroke-width:1.5;"/>
    </g>
    <g id="line2d_84"/>
    <g id="text_42">
     <!-- vy_n -->
     <g transform="translate(1263.825 388.118437)scale(0.1 -0.1)">
      <use xlink:href="#DejaVuSans-76"/>
      <use x="59.179688" xlink:href="#DejaVuSans-79"/>
      <use x="118.359375" xlink:href="#DejaVuSans-5f"/>
      <use x="168.359375" xlink:href="#DejaVuSans-6e"/>
     </g>
    </g>
   </g>
  </g>
  <g id="axes_5">
   <g id="patch_26">
    <path d="M 180 545.76 
L 1296 545.76 
L 1296 466.56 
L 180 466.56 
z
" style="fill:#ffffff;"/>
   </g>
   <g id="matplotlib.axis_9">
    <g id="xtick_25">
     <g id="line2d_85">
      <path clip-path="url(#p2ff9b66a07)" d="M 230.727273 545.76 
L 230.727273 466.56 
" style="fill:none;stroke:#b0b0b0;stroke-linecap:square;stroke-width:0.8;"/>
     </g>
     <g id="line2d_86">
      <g>
       <use style="stroke:#000000;stroke-width:0.8;" x="230.727273" xlink:href="#ma7f42e4ad2" y="545.76"/>
      </g>
     </g>
     <g id="text_43">
      <!-- 0.0 -->
      <g transform="translate(222.77571 560.358438)scale(0.1 -0.1)">
       <use xlink:href="#DejaVuSans-30"/>
       <use x="63.623047" xlink:href="#DejaVuSans-2e"/>
       <use x="95.410156" xlink:href="#DejaVuSans-30"/>
      </g>
     </g>
    </g>
    <g id="xtick_26">
     <g id="line2d_87">
      <path clip-path="url(#p2ff9b66a07)" d="M 433.636364 545.76 
L 433.636364 466.56 
" style="fill:none;stroke:#b0b0b0;stroke-linecap:square;stroke-width:0.8;"/>
     </g>
     <g id="line2d_88">
      <g>
       <use style="stroke:#000000;stroke-width:0.8;" x="433.636364" xlink:href="#ma7f42e4ad2" y="545.76"/>
      </g>
     </g>
     <g id="text_44">
      <!-- 0.2 -->
      <g transform="translate(425.684801 560.358438)scale(0.1 -0.1)">
       <use xlink:href="#DejaVuSans-30"/>
       <use x="63.623047" xlink:href="#DejaVuSans-2e"/>
       <use x="95.410156" xlink:href="#DejaVuSans-32"/>
      </g>
     </g>
    </g>
    <g id="xtick_27">
     <g id="line2d_89">
      <path clip-path="url(#p2ff9b66a07)" d="M 636.545455 545.76 
L 636.545455 466.56 
" style="fill:none;stroke:#b0b0b0;stroke-linecap:square;stroke-width:0.8;"/>
     </g>
     <g id="line2d_90">
      <g>
       <use style="stroke:#000000;stroke-width:0.8;" x="636.545455" xlink:href="#ma7f42e4ad2" y="545.76"/>
      </g>
     </g>
     <g id="text_45">
      <!-- 0.4 -->
      <g transform="translate(628.593892 560.358438)scale(0.1 -0.1)">
       <use xlink:href="#DejaVuSans-30"/>
       <use x="63.623047" xlink:href="#DejaVuSans-2e"/>
       <use x="95.410156" xlink:href="#DejaVuSans-34"/>
      </g>
     </g>
    </g>
    <g id="xtick_28">
     <g id="line2d_91">
      <path clip-path="url(#p2ff9b66a07)" d="M 839.454545 545.76 
L 839.454545 466.56 
" style="fill:none;stroke:#b0b0b0;stroke-linecap:square;stroke-width:0.8;"/>
     </g>
     <g id="line2d_92">
      <g>
       <use style="stroke:#000000;stroke-width:0.8;" x="839.454545" xlink:href="#ma7f42e4ad2" y="545.76"/>
      </g>
     </g>
     <g id="text_46">
      <!-- 0.6 -->
      <g transform="translate(831.502983 560.358438)scale(0.1 -0.1)">
       <use xlink:href="#DejaVuSans-30"/>
       <use x="63.623047" xlink:href="#DejaVuSans-2e"/>
       <use x="95.410156" xlink:href="#DejaVuSans-36"/>
      </g>
     </g>
    </g>
    <g id="xtick_29">
     <g id="line2d_93">
      <path clip-path="url(#p2ff9b66a07)" d="M 1042.363636 545.76 
L 1042.363636 466.56 
" style="fill:none;stroke:#b0b0b0;stroke-linecap:square;stroke-width:0.8;"/>
     </g>
     <g id="line2d_94">
      <g>
       <use style="stroke:#000000;stroke-width:0.8;" x="1042.363636" xlink:href="#ma7f42e4ad2" y="545.76"/>
      </g>
     </g>
     <g id="text_47">
      <!-- 0.8 -->
      <g transform="translate(1034.412074 560.358438)scale(0.1 -0.1)">
       <use xlink:href="#DejaVuSans-30"/>
       <use x="63.623047" xlink:href="#DejaVuSans-2e"/>
       <use x="95.410156" xlink:href="#DejaVuSans-38"/>
      </g>
     </g>
    </g>
    <g id="xtick_30">
     <g id="line2d_95">
      <path clip-path="url(#p2ff9b66a07)" d="M 1245.272727 545.76 
L 1245.272727 466.56 
" style="fill:none;stroke:#b0b0b0;stroke-linecap:square;stroke-width:0.8;"/>
     </g>
     <g id="line2d_96">
      <g>
       <use style="stroke:#000000;stroke-width:0.8;" x="1245.272727" xlink:href="#ma7f42e4ad2" y="545.76"/>
      </g>
     </g>
     <g id="text_48">
      <!-- 1.0 -->
      <g transform="translate(1237.321165 560.358438)scale(0.1 -0.1)">
       <use xlink:href="#DejaVuSans-31"/>
       <use x="63.623047" xlink:href="#DejaVuSans-2e"/>
       <use x="95.410156" xlink:href="#DejaVuSans-30"/>
      </g>
     </g>
    </g>
   </g>
   <g id="matplotlib.axis_10">
    <g id="ytick_13">
     <g id="line2d_97">
      <path clip-path="url(#p2ff9b66a07)" d="M 180 529.314449 
L 1296 529.314449 
" style="fill:none;stroke:#b0b0b0;stroke-linecap:square;stroke-width:0.8;"/>
     </g>
     <g id="line2d_98">
      <g>
       <use style="stroke:#000000;stroke-width:0.8;" x="180" xlink:href="#m4b35b2081a" y="529.314449"/>
      </g>
     </g>
     <g id="text_49">
      <!-- 0 -->
      <g transform="translate(166.6375 533.113667)scale(0.1 -0.1)">
       <use xlink:href="#DejaVuSans-30"/>
      </g>
     </g>
    </g>
    <g id="ytick_14">
     <g id="line2d_99">
      <path clip-path="url(#p2ff9b66a07)" d="M 180 491.861255 
L 1296 491.861255 
" style="fill:none;stroke:#b0b0b0;stroke-linecap:square;stroke-width:0.8;"/>
     </g>
     <g id="line2d_100">
      <g>
       <use style="stroke:#000000;stroke-width:0.8;" x="180" xlink:href="#m4b35b2081a" y="491.861255"/>
      </g>
     </g>
     <g id="text_50">
      <!-- 2 -->
      <g transform="translate(166.6375 495.660474)scale(0.1 -0.1)">
       <use xlink:href="#DejaVuSans-32"/>
      </g>
     </g>
    </g>
   </g>
   <g id="line2d_101">
    <path clip-path="url(#p2ff9b66a07)" d="M 230.727273 529.314661 
L 489.336898 529.416352 
L 525.144385 529.628114 
L 549.016043 529.974795 
L 564.930481 530.393898 
L 576.86631 530.868224 
L 588.802139 531.538282 
L 600.737968 532.470641 
L 608.695187 533.274149 
L 616.652406 534.246431 
L 624.609626 535.399185 
L 632.566845 536.726837 
L 656.438503 541.072601 
L 660.417112 541.618087 
L 664.395722 542.002212 
L 668.374332 542.16 
L 672.352941 542.014169 
L 676.331551 541.475366 
L 680.31016 540.443715 
L 684.28877 538.812245 
L 688.26738 536.4729 
L 692.245989 533.325775 
L 696.224599 529.292114 
L 700.203209 524.331173 
L 704.181818 518.460263 
L 708.160428 511.776004 
L 712.139037 504.473197 
L 720.096257 489.334053 
L 724.074866 482.399855 
L 728.053476 476.58052 
L 732.032086 472.371333 
L 736.010695 470.16 
L 739.989305 470.16 
L 743.967914 472.371333 
L 747.946524 476.58052 
L 751.925134 482.399855 
L 755.903743 489.334053 
L 767.839572 511.776004 
L 771.818182 518.460263 
L 775.796791 524.331173 
L 779.775401 529.292114 
L 783.754011 533.325775 
L 787.73262 536.4729 
L 791.71123 538.812245 
L 795.68984 540.443715 
L 799.668449 541.475366 
L 803.647059 542.014169 
L 807.625668 542.16 
L 811.604278 542.002212 
L 815.582888 541.618087 
L 823.540107 540.419032 
L 851.390374 535.399185 
L 859.347594 534.246431 
L 867.304813 533.274149 
L 875.262032 532.470641 
L 887.197861 531.538282 
L 899.13369 530.868224 
L 915.048128 530.269594 
L 930.962567 529.898023 
L 954.834225 529.591369 
L 990.641711 529.40436 
L 1062.256684 529.32386 
L 1245.272727 529.314673 
L 1245.272727 529.314673 
" style="fill:none;stroke:#1f77b4;stroke-linecap:square;stroke-width:1.5;"/>
   </g>
   <g id="patch_27">
    <path d="M 180 545.76 
L 180 466.56 
" style="fill:none;stroke:#000000;stroke-linecap:square;stroke-linejoin:miter;stroke-width:0.8;"/>
   </g>
   <g id="patch_28">
    <path d="M 1296 545.76 
L 1296 466.56 
" style="fill:none;stroke:#000000;stroke-linecap:square;stroke-linejoin:miter;stroke-width:0.8;"/>
   </g>
   <g id="patch_29">
    <path d="M 180 545.76 
L 1296 545.76 
" style="fill:none;stroke:#000000;stroke-linecap:square;stroke-linejoin:miter;stroke-width:0.8;"/>
   </g>
   <g id="patch_30">
    <path d="M 180 466.56 
L 1296 466.56 
" style="fill:none;stroke:#000000;stroke-linecap:square;stroke-linejoin:miter;stroke-width:0.8;"/>
   </g>
   <g id="legend_5">
    <g id="patch_31">
     <path d="M 1220.339062 489.51625 
L 1289 489.51625 
Q 1291 489.51625 1291 487.51625 
L 1291 473.56 
Q 1291 471.56 1289 471.56 
L 1220.339062 471.56 
Q 1218.339062 471.56 1218.339062 473.56 
L 1218.339062 487.51625 
Q 1218.339062 489.51625 1220.339062 489.51625 
z
" style="fill:#ffffff;opacity:0.8;stroke:#cccccc;stroke-linejoin:miter;"/>
    </g>
    <g id="line2d_102">
     <path d="M 1222.339062 479.658437 
L 1242.339062 479.658437 
" style="fill:none;stroke:#1f77b4;stroke-linecap:square;stroke-width:1.5;"/>
    </g>
    <g id="line2d_103"/>
    <g id="text_51">
     <!-- temp_c -->
     <defs>
      <path d="M 18.3125 70.21875 
L 18.3125 54.6875 
L 36.8125 54.6875 
L 36.8125 47.703125 
L 18.3125 47.703125 
L 18.3125 18.015625 
Q 18.3125 11.328125 20.140625 9.421875 
Q 21.96875 7.515625 27.59375 7.515625 
L 36.8125 7.515625 
L 36.8125 0 
L 27.59375 0 
Q 17.1875 0 13.234375 3.875 
Q 9.28125 7.765625 9.28125 18.015625 
L 9.28125 47.703125 
L 2.6875 47.703125 
L 2.6875 54.6875 
L 9.28125 54.6875 
L 9.28125 70.21875 
z
" id="DejaVuSans-74"/>
      <path d="M 52 44.1875 
Q 55.375 50.25 60.0625 53.125 
Q 64.75 56 71.09375 56 
Q 79.640625 56 84.28125 50.015625 
Q 88.921875 44.046875 88.921875 33.015625 
L 88.921875 0 
L 79.890625 0 
L 79.890625 32.71875 
Q 79.890625 40.578125 77.09375 44.375 
Q 74.3125 48.1875 68.609375 48.1875 
Q 61.625 48.1875 57.5625 43.546875 
Q 53.515625 38.921875 53.515625 30.90625 
L 53.515625 0 
L 44.484375 0 
L 44.484375 32.71875 
Q 44.484375 40.625 41.703125 44.40625 
Q 38.921875 48.1875 33.109375 48.1875 
Q 26.21875 48.1875 22.15625 43.53125 
Q 18.109375 38.875 18.109375 30.90625 
L 18.109375 0 
L 9.078125 0 
L 9.078125 54.6875 
L 18.109375 54.6875 
L 18.109375 46.1875 
Q 21.1875 51.21875 25.484375 53.609375 
Q 29.78125 56 35.6875 56 
Q 41.65625 56 45.828125 52.96875 
Q 50 49.953125 52 44.1875 
" id="DejaVuSans-6d"/>
      <path d="M 18.109375 8.203125 
L 18.109375 -20.796875 
L 9.078125 -20.796875 
L 9.078125 54.6875 
L 18.109375 54.6875 
L 18.109375 46.390625 
Q 20.953125 51.265625 25.265625 53.625 
Q 29.59375 56 35.59375 56 
Q 45.5625 56 51.78125 48.09375 
Q 58.015625 40.1875 58.015625 27.296875 
Q 58.015625 14.40625 51.78125 6.484375 
Q 45.5625 -1.421875 35.59375 -1.421875 
Q 29.59375 -1.421875 25.265625 0.953125 
Q 20.953125 3.328125 18.109375 8.203125 
M 48.6875 27.296875 
Q 48.6875 37.203125 44.609375 42.84375 
Q 40.53125 48.484375 33.40625 48.484375 
Q 26.265625 48.484375 22.1875 42.84375 
Q 18.109375 37.203125 18.109375 27.296875 
Q 18.109375 17.390625 22.1875 11.75 
Q 26.265625 6.109375 33.40625 6.109375 
Q 40.53125 6.109375 44.609375 11.75 
Q 48.6875 17.390625 48.6875 27.296875 
" id="DejaVuSans-70"/>
     </defs>
     <g transform="translate(1250.339062 483.158437)scale(0.1 -0.1)">
      <use xlink:href="#DejaVuSans-74"/>
      <use x="39.208984" xlink:href="#DejaVuSans-65"/>
      <use x="100.732422" xlink:href="#DejaVuSans-6d"/>
      <use x="198.144531" xlink:href="#DejaVuSans-70"/>
      <use x="261.621094" xlink:href="#DejaVuSans-5f"/>
      <use x="311.621094" xlink:href="#DejaVuSans-63"/>
     </g>
    </g>
   </g>
  </g>
  <g id="axes_6">
   <g id="patch_32">
    <path d="M 180 640.8 
L 1296 640.8 
L 1296 561.6 
L 180 561.6 
z
" style="fill:#ffffff;"/>
   </g>
   <g id="matplotlib.axis_11">
    <g id="xtick_31">
     <g id="line2d_104">
      <path clip-path="url(#p16ea16a08f)" d="M 230.727273 640.8 
L 230.727273 561.6 
" style="fill:none;stroke:#b0b0b0;stroke-linecap:square;stroke-width:0.8;"/>
     </g>
     <g id="line2d_105">
      <g>
       <use style="stroke:#000000;stroke-width:0.8;" x="230.727273" xlink:href="#ma7f42e4ad2" y="640.8"/>
      </g>
     </g>
     <g id="text_52">
      <!-- 0.0 -->
      <g transform="translate(222.77571 655.398438)scale(0.1 -0.1)">
       <use xlink:href="#DejaVuSans-30"/>
       <use x="63.623047" xlink:href="#DejaVuSans-2e"/>
       <use x="95.410156" xlink:href="#DejaVuSans-30"/>
      </g>
     </g>
    </g>
    <g id="xtick_32">
     <g id="line2d_106">
      <path clip-path="url(#p16ea16a08f)" d="M 433.636364 640.8 
L 433.636364 561.6 
" style="fill:none;stroke:#b0b0b0;stroke-linecap:square;stroke-width:0.8;"/>
     </g>
     <g id="line2d_107">
      <g>
       <use style="stroke:#000000;stroke-width:0.8;" x="433.636364" xlink:href="#ma7f42e4ad2" y="640.8"/>
      </g>
     </g>
     <g id="text_53">
      <!-- 0.2 -->
      <g transform="translate(425.684801 655.398438)scale(0.1 -0.1)">
       <use xlink:href="#DejaVuSans-30"/>
       <use x="63.623047" xlink:href="#DejaVuSans-2e"/>
       <use x="95.410156" xlink:href="#DejaVuSans-32"/>
      </g>
     </g>
    </g>
    <g id="xtick_33">
     <g id="line2d_108">
      <path clip-path="url(#p16ea16a08f)" d="M 636.545455 640.8 
L 636.545455 561.6 
" style="fill:none;stroke:#b0b0b0;stroke-linecap:square;stroke-width:0.8;"/>
     </g>
     <g id="line2d_109">
      <g>
       <use style="stroke:#000000;stroke-width:0.8;" x="636.545455" xlink:href="#ma7f42e4ad2" y="640.8"/>
      </g>
     </g>
     <g id="text_54">
      <!-- 0.4 -->
      <g transform="translate(628.593892 655.398438)scale(0.1 -0.1)">
       <use xlink:href="#DejaVuSans-30"/>
       <use x="63.623047" xlink:href="#DejaVuSans-2e"/>
       <use x="95.410156" xlink:href="#DejaVuSans-34"/>
      </g>
     </g>
    </g>
    <g id="xtick_34">
     <g id="line2d_110">
      <path clip-path="url(#p16ea16a08f)" d="M 839.454545 640.8 
L 839.454545 561.6 
" style="fill:none;stroke:#b0b0b0;stroke-linecap:square;stroke-width:0.8;"/>
     </g>
     <g id="line2d_111">
      <g>
       <use style="stroke:#000000;stroke-width:0.8;" x="839.454545" xlink:href="#ma7f42e4ad2" y="640.8"/>
      </g>
     </g>
     <g id="text_55">
      <!-- 0.6 -->
      <g transform="translate(831.502983 655.398438)scale(0.1 -0.1)">
       <use xlink:href="#DejaVuSans-30"/>
       <use x="63.623047" xlink:href="#DejaVuSans-2e"/>
       <use x="95.410156" xlink:href="#DejaVuSans-36"/>
      </g>
     </g>
    </g>
    <g id="xtick_35">
     <g id="line2d_112">
      <path clip-path="url(#p16ea16a08f)" d="M 1042.363636 640.8 
L 1042.363636 561.6 
" style="fill:none;stroke:#b0b0b0;stroke-linecap:square;stroke-width:0.8;"/>
     </g>
     <g id="line2d_113">
      <g>
       <use style="stroke:#000000;stroke-width:0.8;" x="1042.363636" xlink:href="#ma7f42e4ad2" y="640.8"/>
      </g>
     </g>
     <g id="text_56">
      <!-- 0.8 -->
      <g transform="translate(1034.412074 655.398438)scale(0.1 -0.1)">
       <use xlink:href="#DejaVuSans-30"/>
       <use x="63.623047" xlink:href="#DejaVuSans-2e"/>
       <use x="95.410156" xlink:href="#DejaVuSans-38"/>
      </g>
     </g>
    </g>
    <g id="xtick_36">
     <g id="line2d_114">
      <path clip-path="url(#p16ea16a08f)" d="M 1245.272727 640.8 
L 1245.272727 561.6 
" style="fill:none;stroke:#b0b0b0;stroke-linecap:square;stroke-width:0.8;"/>
     </g>
     <g id="line2d_115">
      <g>
       <use style="stroke:#000000;stroke-width:0.8;" x="1245.272727" xlink:href="#ma7f42e4ad2" y="640.8"/>
      </g>
     </g>
     <g id="text_57">
      <!-- 1.0 -->
      <g transform="translate(1237.321165 655.398438)scale(0.1 -0.1)">
       <use xlink:href="#DejaVuSans-31"/>
       <use x="63.623047" xlink:href="#DejaVuSans-2e"/>
       <use x="95.410156" xlink:href="#DejaVuSans-30"/>
      </g>
     </g>
    </g>
   </g>
   <g id="matplotlib.axis_12">
    <g id="ytick_15">
     <g id="line2d_116">
      <path clip-path="url(#p16ea16a08f)" d="M 180 614.5446 
L 1296 614.5446 
" style="fill:none;stroke:#b0b0b0;stroke-linecap:square;stroke-width:0.8;"/>
     </g>
     <g id="line2d_117">
      <g>
       <use style="stroke:#000000;stroke-width:0.8;" x="180" xlink:href="#m4b35b2081a" y="614.5446"/>
      </g>
     </g>
     <g id="text_58">
      <!-- −0.001 -->
      <g transform="translate(135.992188 618.343819)scale(0.1 -0.1)">
       <use xlink:href="#DejaVuSans-2212"/>
       <use x="83.789062" xlink:href="#DejaVuSans-30"/>
       <use x="147.412109" xlink:href="#DejaVuSans-2e"/>
       <use x="179.199219" xlink:href="#DejaVuSans-30"/>
       <use x="242.822266" xlink:href="#DejaVuSans-30"/>
       <use x="306.445312" xlink:href="#DejaVuSans-31"/>
      </g>
     </g>
    </g>
    <g id="ytick_16">
     <g id="line2d_118">
      <path clip-path="url(#p16ea16a08f)" d="M 180 583.258017 
L 1296 583.258017 
" style="fill:none;stroke:#b0b0b0;stroke-linecap:square;stroke-width:0.8;"/>
     </g>
     <g id="line2d_119">
      <g>
       <use style="stroke:#000000;stroke-width:0.8;" x="180" xlink:href="#m4b35b2081a" y="583.258017"/>
      </g>
     </g>
     <g id="text_59">
      <!-- 0.000 -->
      <g transform="translate(144.371875 587.057235)scale(0.1 -0.1)">
       <use xlink:href="#DejaVuSans-30"/>
       <use x="63.623047" xlink:href="#DejaVuSans-2e"/>
       <use x="95.410156" xlink:href="#DejaVuSans-30"/>
       <use x="159.033203" xlink:href="#DejaVuSans-30"/>
       <use x="222.65625" xlink:href="#DejaVuSans-30"/>
      </g>
     </g>
    </g>
   </g>
   <g id="line2d_120">
    <path clip-path="url(#p16ea16a08f)" d="M 230.727273 583.257661 
L 469.44385 583.167042 
L 509.229947 582.940269 
L 533.101604 582.587827 
L 549.016043 582.159924 
L 560.951872 581.67308 
L 572.887701 580.980363 
L 584.823529 580.005756 
L 592.780749 579.154508 
L 600.737968 578.108129 
L 608.695187 576.839684 
L 616.652406 575.330776 
L 624.609626 573.582011 
L 636.545455 570.602721 
L 648.481283 567.578051 
L 652.459893 566.701467 
L 656.438503 565.969709 
L 660.417112 565.445089 
L 664.395722 565.2 
L 668.374332 565.315969 
L 672.352941 565.881559 
L 676.331551 566.988786 
L 680.31016 568.72782 
L 684.28877 571.179803 
L 688.26738 574.40785 
L 692.245989 578.44661 
L 696.224599 583.291127 
L 700.203209 588.886201 
L 704.181818 595.117837 
L 708.160428 601.808646 
L 716.117647 615.555721 
L 720.096257 621.987987 
L 724.074866 627.671478 
L 728.053476 632.277178 
L 732.032086 635.52247 
L 736.010695 637.2 
L 739.989305 637.2 
L 743.967914 635.52247 
L 747.946524 632.277178 
L 751.925134 627.671478 
L 755.903743 621.987987 
L 759.882353 615.555721 
L 771.818182 595.117837 
L 775.796791 588.886201 
L 779.775401 583.291127 
L 783.754011 578.44661 
L 787.73262 574.40785 
L 791.71123 571.179803 
L 795.68984 568.72782 
L 799.668449 566.988786 
L 803.647059 565.881559 
L 807.625668 565.315969 
L 811.604278 565.2 
L 815.582888 565.445089 
L 819.561497 565.969709 
L 823.540107 566.701467 
L 831.497326 568.547315 
L 851.390374 573.582011 
L 859.347594 575.330776 
L 867.304813 576.839684 
L 875.262032 578.108129 
L 883.219251 579.154508 
L 891.176471 580.005756 
L 903.112299 580.980363 
L 915.048128 581.67308 
L 926.983957 582.159924 
L 942.898396 582.587827 
L 962.791444 582.898069 
L 994.620321 583.125557 
L 1050.320856 583.235109 
L 1245.272727 583.257641 
L 1245.272727 583.257641 
" style="fill:none;stroke:#1f77b4;stroke-linecap:square;stroke-width:1.5;"/>
   </g>
   <g id="patch_33">
    <path d="M 180 640.8 
L 180 561.6 
" style="fill:none;stroke:#000000;stroke-linecap:square;stroke-linejoin:miter;stroke-width:0.8;"/>
   </g>
   <g id="patch_34">
    <path d="M 1296 640.8 
L 1296 561.6 
" style="fill:none;stroke:#000000;stroke-linecap:square;stroke-linejoin:miter;stroke-width:0.8;"/>
   </g>
   <g id="patch_35">
    <path d="M 180 640.8 
L 1296 640.8 
" style="fill:none;stroke:#000000;stroke-linecap:square;stroke-linejoin:miter;stroke-width:0.8;"/>
   </g>
   <g id="patch_36">
    <path d="M 180 561.6 
L 1296 561.6 
" style="fill:none;stroke:#000000;stroke-linecap:square;stroke-linejoin:miter;stroke-width:0.8;"/>
   </g>
   <g id="legend_6">
    <g id="patch_37">
     <path d="M 187 635.8 
L 256.5 635.8 
Q 258.5 635.8 258.5 633.8 
L 258.5 619.84375 
Q 258.5 617.84375 256.5 617.84375 
L 187 617.84375 
Q 185 617.84375 185 619.84375 
L 185 633.8 
Q 185 635.8 187 635.8 
z
" style="fill:#ffffff;opacity:0.8;stroke:#cccccc;stroke-linejoin:miter;"/>
    </g>
    <g id="line2d_121">
     <path d="M 189 625.942188 
L 209 625.942188 
" style="fill:none;stroke:#1f77b4;stroke-linecap:square;stroke-width:1.5;"/>
    </g>
    <g id="line2d_122"/>
    <g id="text_60">
     <!-- temp_n -->
     <g transform="translate(217 629.442188)scale(0.1 -0.1)">
      <use xlink:href="#DejaVuSans-74"/>
      <use x="39.208984" xlink:href="#DejaVuSans-65"/>
      <use x="100.732422" xlink:href="#DejaVuSans-6d"/>
      <use x="198.144531" xlink:href="#DejaVuSans-70"/>
      <use x="261.621094" xlink:href="#DejaVuSans-5f"/>
      <use x="311.621094" xlink:href="#DejaVuSans-6e"/>
     </g>
    </g>
   </g>
  </g>
  <g id="text_61">
   <!-- time 7.910000 -->
   <defs>
    <path d="M 9.421875 54.6875 
L 18.40625 54.6875 
L 18.40625 0 
L 9.421875 0 
z
M 9.421875 75.984375 
L 18.40625 75.984375 
L 18.40625 64.59375 
L 9.421875 64.59375 
z
" id="DejaVuSans-69"/>
    <path id="DejaVuSans-20"/>
    <path d="M 8.203125 72.90625 
L 55.078125 72.90625 
L 55.078125 68.703125 
L 28.609375 0 
L 18.3125 0 
L 43.21875 64.59375 
L 8.203125 64.59375 
z
" id="DejaVuSans-37"/>
    <path d="M 10.984375 1.515625 
L 10.984375 10.5 
Q 14.703125 8.734375 18.5 7.8125 
Q 22.3125 6.890625 25.984375 6.890625 
Q 35.75 6.890625 40.890625 13.453125 
Q 46.046875 20.015625 46.78125 33.40625 
Q 43.953125 29.203125 39.59375 26.953125 
Q 35.25 24.703125 29.984375 24.703125 
Q 19.046875 24.703125 12.671875 31.3125 
Q 6.296875 37.9375 6.296875 49.421875 
Q 6.296875 60.640625 12.9375 67.421875 
Q 19.578125 74.21875 30.609375 74.21875 
Q 43.265625 74.21875 49.921875 64.515625 
Q 56.59375 54.828125 56.59375 36.375 
Q 56.59375 19.140625 48.40625 8.859375 
Q 40.234375 -1.421875 26.421875 -1.421875 
Q 22.703125 -1.421875 18.890625 -0.6875 
Q 15.09375 0.046875 10.984375 1.515625 
M 30.609375 32.421875 
Q 37.25 32.421875 41.125 36.953125 
Q 45.015625 41.5 45.015625 49.421875 
Q 45.015625 57.28125 41.125 61.84375 
Q 37.25 66.40625 30.609375 66.40625 
Q 23.96875 66.40625 20.09375 61.84375 
Q 16.21875 57.28125 16.21875 49.421875 
Q 16.21875 41.5 20.09375 36.953125 
Q 23.96875 32.421875 30.609375 32.421875 
" id="DejaVuSans-39"/>
   </defs>
   <g transform="translate(675.908437 23.518125)scale(0.12 -0.12)">
    <use xlink:href="#DejaVuSans-74"/>
    <use x="39.208984" xlink:href="#DejaVuSans-69"/>
    <use x="66.992188" xlink:href="#DejaVuSans-6d"/>
    <use x="164.404297" xlink:href="#DejaVuSans-65"/>
    <use x="225.927734" xlink:href="#DejaVuSans-20"/>
    <use x="257.714844" xlink:href="#DejaVuSans-37"/>
    <use x="321.337891" xlink:href="#DejaVuSans-2e"/>
    <use x="353.125" xlink:href="#DejaVuSans-39"/>
    <use x="416.748047" xlink:href="#DejaVuSans-31"/>
    <use x="480.371094" xlink:href="#DejaVuSans-30"/>
    <use x="543.994141" xlink:href="#DejaVuSans-30"/>
    <use x="607.617188" xlink:href="#DejaVuSans-30"/>
    <use x="671.240234" xlink:href="#DejaVuSans-30"/>
   </g>
  </g>
 </g>
 <defs>
  <clipPath id="pd914f1ce9a">
   <rect height="79.2" width="1116" x="180" y="86.4"/>
  </clipPath>
  <clipPath id="p5f6efbec61">
   <rect height="79.2" width="1116" x="180" y="181.44"/>
  </clipPath>
  <clipPath id="p98fb16c32c">
   <rect height="79.2" width="1116" x="180" y="276.48"/>
  </clipPath>
  <clipPath id="pf9562ee4e5">
   <rect height="79.2" width="1116" x="180" y="371.52"/>
  </clipPath>
  <clipPath id="p2ff9b66a07">
   <rect height="79.2" width="1116" x="180" y="466.56"/>
  </clipPath>
  <clipPath id="p16ea16a08f">
   <rect height="79.2" width="1116" x="180" y="561.6"/>
  </clipPath>
 </defs>
</svg>
