<?xml version="1.0" encoding="utf-8" standalone="no"?>
<!DOCTYPE svg PUBLIC "-//W3C//DTD SVG 1.1//EN"
  "http://www.w3.org/Graphics/SVG/1.1/DTD/svg11.dtd">
<!-- Created with matplotlib (http://matplotlib.org/) -->
<svg height="720pt" version="1.1" viewBox="0 0 1440 720" width="1440pt" xmlns="http://www.w3.org/2000/svg" xmlns:xlink="http://www.w3.org/1999/xlink">
 <defs>
  <style type="text/css">
*{stroke-linecap:butt;stroke-linejoin:round;}
  </style>
 </defs>
 <g id="figure_1">
  <g id="patch_1">
   <path d="M 0 720 
L 1440 720 
L 1440 0 
L 0 0 
z
" style="fill:#ffffff;"/>
  </g>
  <g id="axes_1">
   <g id="patch_2">
    <path d="M 180 165.6 
L 1296 165.6 
L 1296 86.4 
L 180 86.4 
z
" style="fill:#ffffff;"/>
   </g>
   <g id="matplotlib.axis_1">
    <g id="xtick_1">
     <g id="line2d_1">
      <path clip-path="url(#p0a0011e9d7)" d="M 230.727273 165.6 
L 230.727273 86.4 
" style="fill:none;stroke:#b0b0b0;stroke-linecap:square;stroke-width:0.8;"/>
     </g>
     <g id="line2d_2">
      <defs>
       <path d="M 0 0 
L 0 3.5 
" id="me05dfdcfaf" style="stroke:#000000;stroke-width:0.8;"/>
      </defs>
      <g>
       <use style="stroke:#000000;stroke-width:0.8;" x="230.727273" xlink:href="#me05dfdcfaf" y="165.6"/>
      </g>
     </g>
     <g id="text_1">
      <!-- 0.0 -->
      <defs>
       <path d="M 31.78125 66.40625 
Q 24.171875 66.40625 20.328125 58.90625 
Q 16.5 51.421875 16.5 36.375 
Q 16.5 21.390625 20.328125 13.890625 
Q 24.171875 6.390625 31.78125 6.390625 
Q 39.453125 6.390625 43.28125 13.890625 
Q 47.125 21.390625 47.125 36.375 
Q 47.125 51.421875 43.28125 58.90625 
Q 39.453125 66.40625 31.78125 66.40625 
M 31.78125 74.21875 
Q 44.046875 74.21875 50.515625 64.515625 
Q 56.984375 54.828125 56.984375 36.375 
Q 56.984375 17.96875 50.515625 8.265625 
Q 44.046875 -1.421875 31.78125 -1.421875 
Q 19.53125 -1.421875 13.0625 8.265625 
Q 6.59375 17.96875 6.59375 36.375 
Q 6.59375 54.828125 13.0625 64.515625 
Q 19.53125 74.21875 31.78125 74.21875 
" id="DejaVuSans-30"/>
       <path d="M 10.6875 12.40625 
L 21 12.40625 
L 21 0 
L 10.6875 0 
z
" id="DejaVuSans-2e"/>
      </defs>
      <g transform="translate(222.77571 180.198438)scale(0.1 -0.1)">
       <use xlink:href="#DejaVuSans-30"/>
       <use x="63.623047" xlink:href="#DejaVuSans-2e"/>
       <use x="95.410156" xlink:href="#DejaVuSans-30"/>
      </g>
     </g>
    </g>
    <g id="xtick_2">
     <g id="line2d_3">
      <path clip-path="url(#p0a0011e9d7)" d="M 433.636364 165.6 
L 433.636364 86.4 
" style="fill:none;stroke:#b0b0b0;stroke-linecap:square;stroke-width:0.8;"/>
     </g>
     <g id="line2d_4">
      <g>
       <use style="stroke:#000000;stroke-width:0.8;" x="433.636364" xlink:href="#me05dfdcfaf" y="165.6"/>
      </g>
     </g>
     <g id="text_2">
      <!-- 0.2 -->
      <defs>
       <path d="M 19.1875 8.296875 
L 53.609375 8.296875 
L 53.609375 0 
L 7.328125 0 
L 7.328125 8.296875 
Q 12.9375 14.109375 22.625 23.890625 
Q 32.328125 33.6875 34.8125 36.53125 
Q 39.546875 41.84375 41.421875 45.53125 
Q 43.3125 49.21875 43.3125 52.78125 
Q 43.3125 58.59375 39.234375 62.25 
Q 35.15625 65.921875 28.609375 65.921875 
Q 23.96875 65.921875 18.8125 64.3125 
Q 13.671875 62.703125 7.8125 59.421875 
L 7.8125 69.390625 
Q 13.765625 71.78125 18.9375 73 
Q 24.125 74.21875 28.421875 74.21875 
Q 39.75 74.21875 46.484375 68.546875 
Q 53.21875 62.890625 53.21875 53.421875 
Q 53.21875 48.921875 51.53125 44.890625 
Q 49.859375 40.875 45.40625 35.40625 
Q 44.1875 33.984375 37.640625 27.21875 
Q 31.109375 20.453125 19.1875 8.296875 
" id="DejaVuSans-32"/>
      </defs>
      <g transform="translate(425.684801 180.198438)scale(0.1 -0.1)">
       <use xlink:href="#DejaVuSans-30"/>
       <use x="63.623047" xlink:href="#DejaVuSans-2e"/>
       <use x="95.410156" xlink:href="#DejaVuSans-32"/>
      </g>
     </g>
    </g>
    <g id="xtick_3">
     <g id="line2d_5">
      <path clip-path="url(#p0a0011e9d7)" d="M 636.545455 165.6 
L 636.545455 86.4 
" style="fill:none;stroke:#b0b0b0;stroke-linecap:square;stroke-width:0.8;"/>
     </g>
     <g id="line2d_6">
      <g>
       <use style="stroke:#000000;stroke-width:0.8;" x="636.545455" xlink:href="#me05dfdcfaf" y="165.6"/>
      </g>
     </g>
     <g id="text_3">
      <!-- 0.4 -->
      <defs>
       <path d="M 37.796875 64.3125 
L 12.890625 25.390625 
L 37.796875 25.390625 
z
M 35.203125 72.90625 
L 47.609375 72.90625 
L 47.609375 25.390625 
L 58.015625 25.390625 
L 58.015625 17.1875 
L 47.609375 17.1875 
L 47.609375 0 
L 37.796875 0 
L 37.796875 17.1875 
L 4.890625 17.1875 
L 4.890625 26.703125 
z
" id="DejaVuSans-34"/>
      </defs>
      <g transform="translate(628.593892 180.198438)scale(0.1 -0.1)">
       <use xlink:href="#DejaVuSans-30"/>
       <use x="63.623047" xlink:href="#DejaVuSans-2e"/>
       <use x="95.410156" xlink:href="#DejaVuSans-34"/>
      </g>
     </g>
    </g>
    <g id="xtick_4">
     <g id="line2d_7">
      <path clip-path="url(#p0a0011e9d7)" d="M 839.454545 165.6 
L 839.454545 86.4 
" style="fill:none;stroke:#b0b0b0;stroke-linecap:square;stroke-width:0.8;"/>
     </g>
     <g id="line2d_8">
      <g>
       <use style="stroke:#000000;stroke-width:0.8;" x="839.454545" xlink:href="#me05dfdcfaf" y="165.6"/>
      </g>
     </g>
     <g id="text_4">
      <!-- 0.6 -->
      <defs>
       <path d="M 33.015625 40.375 
Q 26.375 40.375 22.484375 35.828125 
Q 18.609375 31.296875 18.609375 23.390625 
Q 18.609375 15.53125 22.484375 10.953125 
Q 26.375 6.390625 33.015625 6.390625 
Q 39.65625 6.390625 43.53125 10.953125 
Q 47.40625 15.53125 47.40625 23.390625 
Q 47.40625 31.296875 43.53125 35.828125 
Q 39.65625 40.375 33.015625 40.375 
M 52.59375 71.296875 
L 52.59375 62.3125 
Q 48.875 64.0625 45.09375 64.984375 
Q 41.3125 65.921875 37.59375 65.921875 
Q 27.828125 65.921875 22.671875 59.328125 
Q 17.53125 52.734375 16.796875 39.40625 
Q 19.671875 43.65625 24.015625 45.921875 
Q 28.375 48.1875 33.59375 48.1875 
Q 44.578125 48.1875 50.953125 41.515625 
Q 57.328125 34.859375 57.328125 23.390625 
Q 57.328125 12.15625 50.6875 5.359375 
Q 44.046875 -1.421875 33.015625 -1.421875 
Q 20.359375 -1.421875 13.671875 8.265625 
Q 6.984375 17.96875 6.984375 36.375 
Q 6.984375 53.65625 15.1875 63.9375 
Q 23.390625 74.21875 37.203125 74.21875 
Q 40.921875 74.21875 44.703125 73.484375 
Q 48.484375 72.75 52.59375 71.296875 
" id="DejaVuSans-36"/>
      </defs>
      <g transform="translate(831.502983 180.198438)scale(0.1 -0.1)">
       <use xlink:href="#DejaVuSans-30"/>
       <use x="63.623047" xlink:href="#DejaVuSans-2e"/>
       <use x="95.410156" xlink:href="#DejaVuSans-36"/>
      </g>
     </g>
    </g>
    <g id="xtick_5">
     <g id="line2d_9">
      <path clip-path="url(#p0a0011e9d7)" d="M 1042.363636 165.6 
L 1042.363636 86.4 
" style="fill:none;stroke:#b0b0b0;stroke-linecap:square;stroke-width:0.8;"/>
     </g>
     <g id="line2d_10">
      <g>
       <use style="stroke:#000000;stroke-width:0.8;" x="1042.363636" xlink:href="#me05dfdcfaf" y="165.6"/>
      </g>
     </g>
     <g id="text_5">
      <!-- 0.8 -->
      <defs>
       <path d="M 31.78125 34.625 
Q 24.75 34.625 20.71875 30.859375 
Q 16.703125 27.09375 16.703125 20.515625 
Q 16.703125 13.921875 20.71875 10.15625 
Q 24.75 6.390625 31.78125 6.390625 
Q 38.8125 6.390625 42.859375 10.171875 
Q 46.921875 13.96875 46.921875 20.515625 
Q 46.921875 27.09375 42.890625 30.859375 
Q 38.875 34.625 31.78125 34.625 
M 21.921875 38.8125 
Q 15.578125 40.375 12.03125 44.71875 
Q 8.5 49.078125 8.5 55.328125 
Q 8.5 64.0625 14.71875 69.140625 
Q 20.953125 74.21875 31.78125 74.21875 
Q 42.671875 74.21875 48.875 69.140625 
Q 55.078125 64.0625 55.078125 55.328125 
Q 55.078125 49.078125 51.53125 44.71875 
Q 48 40.375 41.703125 38.8125 
Q 48.828125 37.15625 52.796875 32.3125 
Q 56.78125 27.484375 56.78125 20.515625 
Q 56.78125 9.90625 50.3125 4.234375 
Q 43.84375 -1.421875 31.78125 -1.421875 
Q 19.734375 -1.421875 13.25 4.234375 
Q 6.78125 9.90625 6.78125 20.515625 
Q 6.78125 27.484375 10.78125 32.3125 
Q 14.796875 37.15625 21.921875 38.8125 
M 18.3125 54.390625 
Q 18.3125 48.734375 21.84375 45.5625 
Q 25.390625 42.390625 31.78125 42.390625 
Q 38.140625 42.390625 41.71875 45.5625 
Q 45.3125 48.734375 45.3125 54.390625 
Q 45.3125 60.0625 41.71875 63.234375 
Q 38.140625 66.40625 31.78125 66.40625 
Q 25.390625 66.40625 21.84375 63.234375 
Q 18.3125 60.0625 18.3125 54.390625 
" id="DejaVuSans-38"/>
      </defs>
      <g transform="translate(1034.412074 180.198438)scale(0.1 -0.1)">
       <use xlink:href="#DejaVuSans-30"/>
       <use x="63.623047" xlink:href="#DejaVuSans-2e"/>
       <use x="95.410156" xlink:href="#DejaVuSans-38"/>
      </g>
     </g>
    </g>
    <g id="xtick_6">
     <g id="line2d_11">
      <path clip-path="url(#p0a0011e9d7)" d="M 1245.272727 165.6 
L 1245.272727 86.4 
" style="fill:none;stroke:#b0b0b0;stroke-linecap:square;stroke-width:0.8;"/>
     </g>
     <g id="line2d_12">
      <g>
       <use style="stroke:#000000;stroke-width:0.8;" x="1245.272727" xlink:href="#me05dfdcfaf" y="165.6"/>
      </g>
     </g>
     <g id="text_6">
      <!-- 1.0 -->
      <defs>
       <path d="M 12.40625 8.296875 
L 28.515625 8.296875 
L 28.515625 63.921875 
L 10.984375 60.40625 
L 10.984375 69.390625 
L 28.421875 72.90625 
L 38.28125 72.90625 
L 38.28125 8.296875 
L 54.390625 8.296875 
L 54.390625 0 
L 12.40625 0 
z
" id="DejaVuSans-31"/>
      </defs>
      <g transform="translate(1237.321165 180.198438)scale(0.1 -0.1)">
       <use xlink:href="#DejaVuSans-31"/>
       <use x="63.623047" xlink:href="#DejaVuSans-2e"/>
       <use x="95.410156" xlink:href="#DejaVuSans-30"/>
      </g>
     </g>
    </g>
   </g>
   <g id="matplotlib.axis_2">
    <g id="ytick_1">
     <g id="line2d_13">
      <path clip-path="url(#p0a0011e9d7)" d="M 180 151.968788 
L 1296 151.968788 
" style="fill:none;stroke:#b0b0b0;stroke-linecap:square;stroke-width:0.8;"/>
     </g>
     <g id="line2d_14">
      <defs>
       <path d="M 0 0 
L -3.5 0 
" id="m6a091c0fe1" style="stroke:#000000;stroke-width:0.8;"/>
      </defs>
      <g>
       <use style="stroke:#000000;stroke-width:0.8;" x="180" xlink:href="#m6a091c0fe1" y="151.968788"/>
      </g>
     </g>
     <g id="text_7">
      <!-- −4 -->
      <defs>
       <path d="M 10.59375 35.5 
L 73.1875 35.5 
L 73.1875 27.203125 
L 10.59375 27.203125 
z
" id="DejaVuSans-2212"/>
      </defs>
      <g transform="translate(158.257812 155.768007)scale(0.1 -0.1)">
       <use xlink:href="#DejaVuSans-2212"/>
       <use x="83.789062" xlink:href="#DejaVuSans-34"/>
      </g>
     </g>
    </g>
    <g id="ytick_2">
     <g id="line2d_15">
      <path clip-path="url(#p0a0011e9d7)" d="M 180 119.194896 
L 1296 119.194896 
" style="fill:none;stroke:#b0b0b0;stroke-linecap:square;stroke-width:0.8;"/>
     </g>
     <g id="line2d_16">
      <g>
       <use style="stroke:#000000;stroke-width:0.8;" x="180" xlink:href="#m6a091c0fe1" y="119.194896"/>
      </g>
     </g>
     <g id="text_8">
      <!-- −2 -->
      <g transform="translate(158.257812 122.994114)scale(0.1 -0.1)">
       <use xlink:href="#DejaVuSans-2212"/>
       <use x="83.789062" xlink:href="#DejaVuSans-32"/>
      </g>
     </g>
    </g>
    <g id="ytick_3">
     <g id="line2d_17">
      <path clip-path="url(#p0a0011e9d7)" d="M 180 86.421003 
L 1296 86.421003 
" style="fill:none;stroke:#b0b0b0;stroke-linecap:square;stroke-width:0.8;"/>
     </g>
     <g id="line2d_18">
      <g>
       <use style="stroke:#000000;stroke-width:0.8;" x="180" xlink:href="#m6a091c0fe1" y="86.421003"/>
      </g>
     </g>
     <g id="text_9">
      <!-- 0 -->
      <g transform="translate(166.6375 90.220222)scale(0.1 -0.1)">
       <use xlink:href="#DejaVuSans-30"/>
      </g>
     </g>
    </g>
    <g id="text_10">
     <!-- 1e−12 -->
     <defs>
      <path d="M 56.203125 29.59375 
L 56.203125 25.203125 
L 14.890625 25.203125 
Q 15.484375 15.921875 20.484375 11.0625 
Q 25.484375 6.203125 34.421875 6.203125 
Q 39.59375 6.203125 44.453125 7.46875 
Q 49.3125 8.734375 54.109375 11.28125 
L 54.109375 2.78125 
Q 49.265625 0.734375 44.1875 -0.34375 
Q 39.109375 -1.421875 33.890625 -1.421875 
Q 20.796875 -1.421875 13.15625 6.1875 
Q 5.515625 13.8125 5.515625 26.8125 
Q 5.515625 40.234375 12.765625 48.109375 
Q 20.015625 56 32.328125 56 
Q 43.359375 56 49.78125 48.890625 
Q 56.203125 41.796875 56.203125 29.59375 
M 47.21875 32.234375 
Q 47.125 39.59375 43.09375 43.984375 
Q 39.0625 48.390625 32.421875 48.390625 
Q 24.90625 48.390625 20.390625 44.140625 
Q 15.875 39.890625 15.1875 32.171875 
z
" id="DejaVuSans-65"/>
     </defs>
     <g transform="translate(180 83.4)scale(0.1 -0.1)">
      <use xlink:href="#DejaVuSans-31"/>
      <use x="63.623047" xlink:href="#DejaVuSans-65"/>
      <use x="125.146484" xlink:href="#DejaVuSans-2212"/>
      <use x="208.935547" xlink:href="#DejaVuSans-31"/>
      <use x="272.558594" xlink:href="#DejaVuSans-32"/>
     </g>
    </g>
   </g>
   <g id="line2d_19">
    <path clip-path="url(#p0a0011e9d7)" d="M 230.727273 90 
L 485.358289 90.09892 
L 521.165775 90.305673 
L 545.037433 90.647519 
L 560.951872 91.066587 
L 572.887701 91.54895 
L 584.823529 92.246019 
L 592.780749 92.87399 
L 600.737968 93.67293 
L 608.695187 94.686452 
L 616.652406 95.967439 
L 624.609626 97.578814 
L 632.566845 99.593531 
L 636.545455 100.777366 
L 640.524064 102.093101 
L 644.502674 103.551624 
L 648.481283 105.163676 
L 652.459893 106.939508 
L 656.438503 108.888434 
L 660.417112 111.018295 
L 664.395722 113.334809 
L 668.374332 115.840809 
L 672.352941 118.53539 
L 676.331551 121.412971 
L 680.31016 124.462321 
L 688.26738 130.997441 
L 708.160428 148.11536 
L 712.139037 151.226268 
L 716.117647 154.071496 
L 720.096257 156.578631 
L 724.074866 158.67943 
L 728.053476 160.313509 
L 732.032086 161.431881 
L 736.010695 162 
L 739.989305 162 
L 743.967914 161.431881 
L 747.946524 160.313509 
L 751.925134 158.67943 
L 755.903743 156.578631 
L 759.882353 154.071496 
L 763.860963 151.226268 
L 767.839572 148.11536 
L 775.796791 141.386233 
L 787.73262 130.997441 
L 795.68984 124.462321 
L 799.668449 121.412971 
L 803.647059 118.53539 
L 807.625668 115.840809 
L 811.604278 113.334809 
L 815.582888 111.018295 
L 819.561497 108.888434 
L 823.540107 106.939508 
L 827.518717 105.163676 
L 831.497326 103.551624 
L 835.475936 102.093101 
L 839.454545 100.777366 
L 843.433155 99.593531 
L 851.390374 97.578814 
L 859.347594 95.967439 
L 867.304813 94.686452 
L 875.262032 93.67293 
L 883.219251 92.87399 
L 895.15508 91.984776 
L 907.090909 91.367999 
L 923.005348 90.831197 
L 942.898396 90.444992 
L 970.748663 90.185178 
L 1014.513369 90.046589 
L 1125.914439 90.001356 
L 1245.272727 90 
L 1245.272727 90 
" style="fill:none;stroke:#1f77b4;stroke-linecap:square;stroke-width:1.5;"/>
   </g>
   <g id="patch_3">
    <path d="M 180 165.6 
L 180 86.4 
" style="fill:none;stroke:#000000;stroke-linecap:square;stroke-linejoin:miter;stroke-width:0.8;"/>
   </g>
   <g id="patch_4">
    <path d="M 1296 165.6 
L 1296 86.4 
" style="fill:none;stroke:#000000;stroke-linecap:square;stroke-linejoin:miter;stroke-width:0.8;"/>
   </g>
   <g id="patch_5">
    <path d="M 180 165.6 
L 1296 165.6 
" style="fill:none;stroke:#000000;stroke-linecap:square;stroke-linejoin:miter;stroke-width:0.8;"/>
   </g>
   <g id="patch_6">
    <path d="M 180 86.4 
L 1296 86.4 
" style="fill:none;stroke:#000000;stroke-linecap:square;stroke-linejoin:miter;stroke-width:0.8;"/>
   </g>
   <g id="legend_1">
    <g id="patch_7">
     <path d="M 1229.935937 109.35625 
L 1289 109.35625 
Q 1291 109.35625 1291 107.35625 
L 1291 93.4 
Q 1291 91.4 1289 91.4 
L 1229.935937 91.4 
Q 1227.935937 91.4 1227.935937 93.4 
L 1227.935937 107.35625 
Q 1227.935937 109.35625 1229.935937 109.35625 
z
" style="fill:#ffffff;opacity:0.8;stroke:#cccccc;stroke-linejoin:miter;"/>
    </g>
    <g id="line2d_20">
     <path d="M 1231.935937 99.498437 
L 1251.935937 99.498437 
" style="fill:none;stroke:#1f77b4;stroke-linecap:square;stroke-width:1.5;"/>
    </g>
    <g id="line2d_21"/>
    <g id="text_11">
     <!-- rho_c -->
     <defs>
      <path d="M 41.109375 46.296875 
Q 39.59375 47.171875 37.8125 47.578125 
Q 36.03125 48 33.890625 48 
Q 26.265625 48 22.1875 43.046875 
Q 18.109375 38.09375 18.109375 28.8125 
L 18.109375 0 
L 9.078125 0 
L 9.078125 54.6875 
L 18.109375 54.6875 
L 18.109375 46.1875 
Q 20.953125 51.171875 25.484375 53.578125 
Q 30.03125 56 36.53125 56 
Q 37.453125 56 38.578125 55.875 
Q 39.703125 55.765625 41.0625 55.515625 
z
" id="DejaVuSans-72"/>
      <path d="M 54.890625 33.015625 
L 54.890625 0 
L 45.90625 0 
L 45.90625 32.71875 
Q 45.90625 40.484375 42.875 44.328125 
Q 39.84375 48.1875 33.796875 48.1875 
Q 26.515625 48.1875 22.3125 43.546875 
Q 18.109375 38.921875 18.109375 30.90625 
L 18.109375 0 
L 9.078125 0 
L 9.078125 75.984375 
L 18.109375 75.984375 
L 18.109375 46.1875 
Q 21.34375 51.125 25.703125 53.5625 
Q 30.078125 56 35.796875 56 
Q 45.21875 56 50.046875 50.171875 
Q 54.890625 44.34375 54.890625 33.015625 
" id="DejaVuSans-68"/>
      <path d="M 30.609375 48.390625 
Q 23.390625 48.390625 19.1875 42.75 
Q 14.984375 37.109375 14.984375 27.296875 
Q 14.984375 17.484375 19.15625 11.84375 
Q 23.34375 6.203125 30.609375 6.203125 
Q 37.796875 6.203125 41.984375 11.859375 
Q 46.1875 17.53125 46.1875 27.296875 
Q 46.1875 37.015625 41.984375 42.703125 
Q 37.796875 48.390625 30.609375 48.390625 
M 30.609375 56 
Q 42.328125 56 49.015625 48.375 
Q 55.71875 40.765625 55.71875 27.296875 
Q 55.71875 13.875 49.015625 6.21875 
Q 42.328125 -1.421875 30.609375 -1.421875 
Q 18.84375 -1.421875 12.171875 6.21875 
Q 5.515625 13.875 5.515625 27.296875 
Q 5.515625 40.765625 12.171875 48.375 
Q 18.84375 56 30.609375 56 
" id="DejaVuSans-6f"/>
      <path d="M 50.984375 -16.609375 
L 50.984375 -23.578125 
L -0.984375 -23.578125 
L -0.984375 -16.609375 
z
" id="DejaVuSans-5f"/>
      <path d="M 48.78125 52.59375 
L 48.78125 44.1875 
Q 44.96875 46.296875 41.140625 47.34375 
Q 37.3125 48.390625 33.40625 48.390625 
Q 24.65625 48.390625 19.8125 42.84375 
Q 14.984375 37.3125 14.984375 27.296875 
Q 14.984375 17.28125 19.8125 11.734375 
Q 24.65625 6.203125 33.40625 6.203125 
Q 37.3125 6.203125 41.140625 7.25 
Q 44.96875 8.296875 48.78125 10.40625 
L 48.78125 2.09375 
Q 45.015625 0.34375 40.984375 -0.53125 
Q 36.96875 -1.421875 32.421875 -1.421875 
Q 20.0625 -1.421875 12.78125 6.34375 
Q 5.515625 14.109375 5.515625 27.296875 
Q 5.515625 40.671875 12.859375 48.328125 
Q 20.21875 56 33.015625 56 
Q 37.15625 56 41.109375 55.140625 
Q 45.0625 54.296875 48.78125 52.59375 
" id="DejaVuSans-63"/>
     </defs>
     <g transform="translate(1259.935937 102.998437)scale(0.1 -0.1)">
      <use xlink:href="#DejaVuSans-72"/>
      <use x="41.097656" xlink:href="#DejaVuSans-68"/>
      <use x="104.476562" xlink:href="#DejaVuSans-6f"/>
      <use x="165.658203" xlink:href="#DejaVuSans-5f"/>
      <use x="215.658203" xlink:href="#DejaVuSans-63"/>
     </g>
    </g>
   </g>
  </g>
  <g id="axes_2">
   <g id="patch_8">
    <path d="M 180 260.64 
L 1296 260.64 
L 1296 181.44 
L 180 181.44 
z
" style="fill:#ffffff;"/>
   </g>
   <g id="matplotlib.axis_3">
    <g id="xtick_7">
     <g id="line2d_22">
      <path clip-path="url(#p814643b8a0)" d="M 230.727273 260.64 
L 230.727273 181.44 
" style="fill:none;stroke:#b0b0b0;stroke-linecap:square;stroke-width:0.8;"/>
     </g>
     <g id="line2d_23">
      <g>
       <use style="stroke:#000000;stroke-width:0.8;" x="230.727273" xlink:href="#me05dfdcfaf" y="260.64"/>
      </g>
     </g>
     <g id="text_12">
      <!-- 0.0 -->
      <g transform="translate(222.77571 275.238437)scale(0.1 -0.1)">
       <use xlink:href="#DejaVuSans-30"/>
       <use x="63.623047" xlink:href="#DejaVuSans-2e"/>
       <use x="95.410156" xlink:href="#DejaVuSans-30"/>
      </g>
     </g>
    </g>
    <g id="xtick_8">
     <g id="line2d_24">
      <path clip-path="url(#p814643b8a0)" d="M 433.636364 260.64 
L 433.636364 181.44 
" style="fill:none;stroke:#b0b0b0;stroke-linecap:square;stroke-width:0.8;"/>
     </g>
     <g id="line2d_25">
      <g>
       <use style="stroke:#000000;stroke-width:0.8;" x="433.636364" xlink:href="#me05dfdcfaf" y="260.64"/>
      </g>
     </g>
     <g id="text_13">
      <!-- 0.2 -->
      <g transform="translate(425.684801 275.238437)scale(0.1 -0.1)">
       <use xlink:href="#DejaVuSans-30"/>
       <use x="63.623047" xlink:href="#DejaVuSans-2e"/>
       <use x="95.410156" xlink:href="#DejaVuSans-32"/>
      </g>
     </g>
    </g>
    <g id="xtick_9">
     <g id="line2d_26">
      <path clip-path="url(#p814643b8a0)" d="M 636.545455 260.64 
L 636.545455 181.44 
" style="fill:none;stroke:#b0b0b0;stroke-linecap:square;stroke-width:0.8;"/>
     </g>
     <g id="line2d_27">
      <g>
       <use style="stroke:#000000;stroke-width:0.8;" x="636.545455" xlink:href="#me05dfdcfaf" y="260.64"/>
      </g>
     </g>
     <g id="text_14">
      <!-- 0.4 -->
      <g transform="translate(628.593892 275.238437)scale(0.1 -0.1)">
       <use xlink:href="#DejaVuSans-30"/>
       <use x="63.623047" xlink:href="#DejaVuSans-2e"/>
       <use x="95.410156" xlink:href="#DejaVuSans-34"/>
      </g>
     </g>
    </g>
    <g id="xtick_10">
     <g id="line2d_28">
      <path clip-path="url(#p814643b8a0)" d="M 839.454545 260.64 
L 839.454545 181.44 
" style="fill:none;stroke:#b0b0b0;stroke-linecap:square;stroke-width:0.8;"/>
     </g>
     <g id="line2d_29">
      <g>
       <use style="stroke:#000000;stroke-width:0.8;" x="839.454545" xlink:href="#me05dfdcfaf" y="260.64"/>
      </g>
     </g>
     <g id="text_15">
      <!-- 0.6 -->
      <g transform="translate(831.502983 275.238437)scale(0.1 -0.1)">
       <use xlink:href="#DejaVuSans-30"/>
       <use x="63.623047" xlink:href="#DejaVuSans-2e"/>
       <use x="95.410156" xlink:href="#DejaVuSans-36"/>
      </g>
     </g>
    </g>
    <g id="xtick_11">
     <g id="line2d_30">
      <path clip-path="url(#p814643b8a0)" d="M 1042.363636 260.64 
L 1042.363636 181.44 
" style="fill:none;stroke:#b0b0b0;stroke-linecap:square;stroke-width:0.8;"/>
     </g>
     <g id="line2d_31">
      <g>
       <use style="stroke:#000000;stroke-width:0.8;" x="1042.363636" xlink:href="#me05dfdcfaf" y="260.64"/>
      </g>
     </g>
     <g id="text_16">
      <!-- 0.8 -->
      <g transform="translate(1034.412074 275.238437)scale(0.1 -0.1)">
       <use xlink:href="#DejaVuSans-30"/>
       <use x="63.623047" xlink:href="#DejaVuSans-2e"/>
       <use x="95.410156" xlink:href="#DejaVuSans-38"/>
      </g>
     </g>
    </g>
    <g id="xtick_12">
     <g id="line2d_32">
      <path clip-path="url(#p814643b8a0)" d="M 1245.272727 260.64 
L 1245.272727 181.44 
" style="fill:none;stroke:#b0b0b0;stroke-linecap:square;stroke-width:0.8;"/>
     </g>
     <g id="line2d_33">
      <g>
       <use style="stroke:#000000;stroke-width:0.8;" x="1245.272727" xlink:href="#me05dfdcfaf" y="260.64"/>
      </g>
     </g>
     <g id="text_17">
      <!-- 1.0 -->
      <g transform="translate(1237.321165 275.238437)scale(0.1 -0.1)">
       <use xlink:href="#DejaVuSans-31"/>
       <use x="63.623047" xlink:href="#DejaVuSans-2e"/>
       <use x="95.410156" xlink:href="#DejaVuSans-30"/>
      </g>
     </g>
    </g>
   </g>
   <g id="matplotlib.axis_4">
    <g id="ytick_4">
     <g id="line2d_34">
      <path clip-path="url(#p814643b8a0)" d="M 180 260.618997 
L 1296 260.618997 
" style="fill:none;stroke:#b0b0b0;stroke-linecap:square;stroke-width:0.8;"/>
     </g>
     <g id="line2d_35">
      <g>
       <use style="stroke:#000000;stroke-width:0.8;" x="180" xlink:href="#m6a091c0fe1" y="260.618997"/>
      </g>
     </g>
     <g id="text_18">
      <!-- 0 -->
      <g transform="translate(166.6375 264.418216)scale(0.1 -0.1)">
       <use xlink:href="#DejaVuSans-30"/>
      </g>
     </g>
    </g>
    <g id="ytick_5">
     <g id="line2d_36">
      <path clip-path="url(#p814643b8a0)" d="M 180 227.845104 
L 1296 227.845104 
" style="fill:none;stroke:#b0b0b0;stroke-linecap:square;stroke-width:0.8;"/>
     </g>
     <g id="line2d_37">
      <g>
       <use style="stroke:#000000;stroke-width:0.8;" x="180" xlink:href="#m6a091c0fe1" y="227.845104"/>
      </g>
     </g>
     <g id="text_19">
      <!-- 2 -->
      <g transform="translate(166.6375 231.644323)scale(0.1 -0.1)">
       <use xlink:href="#DejaVuSans-32"/>
      </g>
     </g>
    </g>
    <g id="ytick_6">
     <g id="line2d_38">
      <path clip-path="url(#p814643b8a0)" d="M 180 195.071212 
L 1296 195.071212 
" style="fill:none;stroke:#b0b0b0;stroke-linecap:square;stroke-width:0.8;"/>
     </g>
     <g id="line2d_39">
      <g>
       <use style="stroke:#000000;stroke-width:0.8;" x="180" xlink:href="#m6a091c0fe1" y="195.071212"/>
      </g>
     </g>
     <g id="text_20">
      <!-- 4 -->
      <g transform="translate(166.6375 198.87043)scale(0.1 -0.1)">
       <use xlink:href="#DejaVuSans-34"/>
      </g>
     </g>
    </g>
    <g id="text_21">
     <!-- 1e−12 -->
     <g transform="translate(180 178.44)scale(0.1 -0.1)">
      <use xlink:href="#DejaVuSans-31"/>
      <use x="63.623047" xlink:href="#DejaVuSans-65"/>
      <use x="125.146484" xlink:href="#DejaVuSans-2212"/>
      <use x="208.935547" xlink:href="#DejaVuSans-31"/>
      <use x="272.558594" xlink:href="#DejaVuSans-32"/>
     </g>
    </g>
   </g>
   <g id="line2d_40">
    <path clip-path="url(#p814643b8a0)" d="M 230.727273 257.04 
L 485.358289 256.94108 
L 521.165775 256.734327 
L 545.037433 256.392481 
L 560.951872 255.973413 
L 572.887701 255.49105 
L 584.823529 254.793981 
L 592.780749 254.16601 
L 600.737968 253.36707 
L 608.695187 252.353548 
L 616.652406 251.072561 
L 624.609626 249.461186 
L 632.566845 247.446469 
L 636.545455 246.262634 
L 640.524064 244.946899 
L 644.502674 243.488376 
L 648.481283 241.876324 
L 652.459893 240.100492 
L 656.438503 238.151566 
L 660.417112 236.021705 
L 664.395722 233.705191 
L 668.374332 231.199191 
L 672.352941 228.50461 
L 676.331551 225.627029 
L 680.31016 222.577679 
L 688.26738 216.042559 
L 708.160428 198.92464 
L 712.139037 195.813732 
L 716.117647 192.968504 
L 720.096257 190.461369 
L 724.074866 188.36057 
L 728.053476 186.726491 
L 732.032086 185.608119 
L 736.010695 185.04 
L 739.989305 185.04 
L 743.967914 185.608119 
L 747.946524 186.726491 
L 751.925134 188.36057 
L 755.903743 190.461369 
L 759.882353 192.968504 
L 763.860963 195.813732 
L 767.839572 198.92464 
L 775.796791 205.653767 
L 787.73262 216.042559 
L 795.68984 222.577679 
L 799.668449 225.627029 
L 803.647059 228.50461 
L 807.625668 231.199191 
L 811.604278 233.705191 
L 815.582888 236.021705 
L 819.561497 238.151566 
L 823.540107 240.100492 
L 827.518717 241.876324 
L 831.497326 243.488376 
L 835.475936 244.946899 
L 839.454545 246.262634 
L 843.433155 247.446469 
L 851.390374 249.461186 
L 859.347594 251.072561 
L 867.304813 252.353548 
L 875.262032 253.36707 
L 883.219251 254.16601 
L 895.15508 255.055224 
L 907.090909 255.672001 
L 923.005348 256.208803 
L 942.898396 256.595008 
L 970.748663 256.854822 
L 1014.513369 256.993411 
L 1125.914439 257.038644 
L 1245.272727 257.04 
L 1245.272727 257.04 
" style="fill:none;stroke:#1f77b4;stroke-linecap:square;stroke-width:1.5;"/>
   </g>
   <g id="patch_9">
    <path d="M 180 260.64 
L 180 181.44 
" style="fill:none;stroke:#000000;stroke-linecap:square;stroke-linejoin:miter;stroke-width:0.8;"/>
   </g>
   <g id="patch_10">
    <path d="M 1296 260.64 
L 1296 181.44 
" style="fill:none;stroke:#000000;stroke-linecap:square;stroke-linejoin:miter;stroke-width:0.8;"/>
   </g>
   <g id="patch_11">
    <path d="M 180 260.64 
L 1296 260.64 
" style="fill:none;stroke:#000000;stroke-linecap:square;stroke-linejoin:miter;stroke-width:0.8;"/>
   </g>
   <g id="patch_12">
    <path d="M 180 181.44 
L 1296 181.44 
" style="fill:none;stroke:#000000;stroke-linecap:square;stroke-linejoin:miter;stroke-width:0.8;"/>
   </g>
   <g id="legend_2">
    <g id="patch_13">
     <path d="M 1229.096875 204.39625 
L 1289 204.39625 
Q 1291 204.39625 1291 202.39625 
L 1291 188.44 
Q 1291 186.44 1289 186.44 
L 1229.096875 186.44 
Q 1227.096875 186.44 1227.096875 188.44 
L 1227.096875 202.39625 
Q 1227.096875 204.39625 1229.096875 204.39625 
z
" style="fill:#ffffff;opacity:0.8;stroke:#cccccc;stroke-linejoin:miter;"/>
    </g>
    <g id="line2d_41">
     <path d="M 1231.096875 194.538437 
L 1251.096875 194.538437 
" style="fill:none;stroke:#1f77b4;stroke-linecap:square;stroke-width:1.5;"/>
    </g>
    <g id="line2d_42"/>
    <g id="text_22">
     <!-- rho_n -->
     <defs>
      <path d="M 54.890625 33.015625 
L 54.890625 0 
L 45.90625 0 
L 45.90625 32.71875 
Q 45.90625 40.484375 42.875 44.328125 
Q 39.84375 48.1875 33.796875 48.1875 
Q 26.515625 48.1875 22.3125 43.546875 
Q 18.109375 38.921875 18.109375 30.90625 
L 18.109375 0 
L 9.078125 0 
L 9.078125 54.6875 
L 18.109375 54.6875 
L 18.109375 46.1875 
Q 21.34375 51.125 25.703125 53.5625 
Q 30.078125 56 35.796875 56 
Q 45.21875 56 50.046875 50.171875 
Q 54.890625 44.34375 54.890625 33.015625 
" id="DejaVuSans-6e"/>
     </defs>
     <g transform="translate(1259.096875 198.038437)scale(0.1 -0.1)">
      <use xlink:href="#DejaVuSans-72"/>
      <use x="41.097656" xlink:href="#DejaVuSans-68"/>
      <use x="104.476562" xlink:href="#DejaVuSans-6f"/>
      <use x="165.658203" xlink:href="#DejaVuSans-5f"/>
      <use x="215.658203" xlink:href="#DejaVuSans-6e"/>
     </g>
    </g>
   </g>
  </g>
  <g id="axes_3">
   <g id="patch_14">
    <path d="M 180 355.68 
L 1296 355.68 
L 1296 276.48 
L 180 276.48 
z
" style="fill:#ffffff;"/>
   </g>
   <g id="matplotlib.axis_5">
    <g id="xtick_13">
     <g id="line2d_43">
      <path clip-path="url(#p754a0b79e0)" d="M 230.727273 355.68 
L 230.727273 276.48 
" style="fill:none;stroke:#b0b0b0;stroke-linecap:square;stroke-width:0.8;"/>
     </g>
     <g id="line2d_44">
      <g>
       <use style="stroke:#000000;stroke-width:0.8;" x="230.727273" xlink:href="#me05dfdcfaf" y="355.68"/>
      </g>
     </g>
     <g id="text_23">
      <!-- 0.0 -->
      <g transform="translate(222.77571 370.278437)scale(0.1 -0.1)">
       <use xlink:href="#DejaVuSans-30"/>
       <use x="63.623047" xlink:href="#DejaVuSans-2e"/>
       <use x="95.410156" xlink:href="#DejaVuSans-30"/>
      </g>
     </g>
    </g>
    <g id="xtick_14">
     <g id="line2d_45">
      <path clip-path="url(#p754a0b79e0)" d="M 433.636364 355.68 
L 433.636364 276.48 
" style="fill:none;stroke:#b0b0b0;stroke-linecap:square;stroke-width:0.8;"/>
     </g>
     <g id="line2d_46">
      <g>
       <use style="stroke:#000000;stroke-width:0.8;" x="433.636364" xlink:href="#me05dfdcfaf" y="355.68"/>
      </g>
     </g>
     <g id="text_24">
      <!-- 0.2 -->
      <g transform="translate(425.684801 370.278437)scale(0.1 -0.1)">
       <use xlink:href="#DejaVuSans-30"/>
       <use x="63.623047" xlink:href="#DejaVuSans-2e"/>
       <use x="95.410156" xlink:href="#DejaVuSans-32"/>
      </g>
     </g>
    </g>
    <g id="xtick_15">
     <g id="line2d_47">
      <path clip-path="url(#p754a0b79e0)" d="M 636.545455 355.68 
L 636.545455 276.48 
" style="fill:none;stroke:#b0b0b0;stroke-linecap:square;stroke-width:0.8;"/>
     </g>
     <g id="line2d_48">
      <g>
       <use style="stroke:#000000;stroke-width:0.8;" x="636.545455" xlink:href="#me05dfdcfaf" y="355.68"/>
      </g>
     </g>
     <g id="text_25">
      <!-- 0.4 -->
      <g transform="translate(628.593892 370.278437)scale(0.1 -0.1)">
       <use xlink:href="#DejaVuSans-30"/>
       <use x="63.623047" xlink:href="#DejaVuSans-2e"/>
       <use x="95.410156" xlink:href="#DejaVuSans-34"/>
      </g>
     </g>
    </g>
    <g id="xtick_16">
     <g id="line2d_49">
      <path clip-path="url(#p754a0b79e0)" d="M 839.454545 355.68 
L 839.454545 276.48 
" style="fill:none;stroke:#b0b0b0;stroke-linecap:square;stroke-width:0.8;"/>
     </g>
     <g id="line2d_50">
      <g>
       <use style="stroke:#000000;stroke-width:0.8;" x="839.454545" xlink:href="#me05dfdcfaf" y="355.68"/>
      </g>
     </g>
     <g id="text_26">
      <!-- 0.6 -->
      <g transform="translate(831.502983 370.278437)scale(0.1 -0.1)">
       <use xlink:href="#DejaVuSans-30"/>
       <use x="63.623047" xlink:href="#DejaVuSans-2e"/>
       <use x="95.410156" xlink:href="#DejaVuSans-36"/>
      </g>
     </g>
    </g>
    <g id="xtick_17">
     <g id="line2d_51">
      <path clip-path="url(#p754a0b79e0)" d="M 1042.363636 355.68 
L 1042.363636 276.48 
" style="fill:none;stroke:#b0b0b0;stroke-linecap:square;stroke-width:0.8;"/>
     </g>
     <g id="line2d_52">
      <g>
       <use style="stroke:#000000;stroke-width:0.8;" x="1042.363636" xlink:href="#me05dfdcfaf" y="355.68"/>
      </g>
     </g>
     <g id="text_27">
      <!-- 0.8 -->
      <g transform="translate(1034.412074 370.278437)scale(0.1 -0.1)">
       <use xlink:href="#DejaVuSans-30"/>
       <use x="63.623047" xlink:href="#DejaVuSans-2e"/>
       <use x="95.410156" xlink:href="#DejaVuSans-38"/>
      </g>
     </g>
    </g>
    <g id="xtick_18">
     <g id="line2d_53">
      <path clip-path="url(#p754a0b79e0)" d="M 1245.272727 355.68 
L 1245.272727 276.48 
" style="fill:none;stroke:#b0b0b0;stroke-linecap:square;stroke-width:0.8;"/>
     </g>
     <g id="line2d_54">
      <g>
       <use style="stroke:#000000;stroke-width:0.8;" x="1245.272727" xlink:href="#me05dfdcfaf" y="355.68"/>
      </g>
     </g>
     <g id="text_28">
      <!-- 1.0 -->
      <g transform="translate(1237.321165 370.278437)scale(0.1 -0.1)">
       <use xlink:href="#DejaVuSans-31"/>
       <use x="63.623047" xlink:href="#DejaVuSans-2e"/>
       <use x="95.410156" xlink:href="#DejaVuSans-30"/>
      </g>
     </g>
    </g>
   </g>
   <g id="matplotlib.axis_6">
    <g id="ytick_7">
     <g id="line2d_55">
      <path clip-path="url(#p754a0b79e0)" d="M 180 349.374241 
L 1296 349.374241 
" style="fill:none;stroke:#b0b0b0;stroke-linecap:square;stroke-width:0.8;"/>
     </g>
     <g id="line2d_56">
      <g>
       <use style="stroke:#000000;stroke-width:0.8;" x="180" xlink:href="#m6a091c0fe1" y="349.374241"/>
      </g>
     </g>
     <g id="text_29">
      <!-- −0.1 -->
      <g transform="translate(148.717187 353.173459)scale(0.1 -0.1)">
       <use xlink:href="#DejaVuSans-2212"/>
       <use x="83.789062" xlink:href="#DejaVuSans-30"/>
       <use x="147.412109" xlink:href="#DejaVuSans-2e"/>
       <use x="179.199219" xlink:href="#DejaVuSans-31"/>
      </g>
     </g>
    </g>
    <g id="ytick_8">
     <g id="line2d_57">
      <path clip-path="url(#p754a0b79e0)" d="M 180 316.08 
L 1296 316.08 
" style="fill:none;stroke:#b0b0b0;stroke-linecap:square;stroke-width:0.8;"/>
     </g>
     <g id="line2d_58">
      <g>
       <use style="stroke:#000000;stroke-width:0.8;" x="180" xlink:href="#m6a091c0fe1" y="316.08"/>
      </g>
     </g>
     <g id="text_30">
      <!-- 0.0 -->
      <g transform="translate(157.096875 319.879219)scale(0.1 -0.1)">
       <use xlink:href="#DejaVuSans-30"/>
       <use x="63.623047" xlink:href="#DejaVuSans-2e"/>
       <use x="95.410156" xlink:href="#DejaVuSans-30"/>
      </g>
     </g>
    </g>
    <g id="ytick_9">
     <g id="line2d_59">
      <path clip-path="url(#p754a0b79e0)" d="M 180 282.785759 
L 1296 282.785759 
" style="fill:none;stroke:#b0b0b0;stroke-linecap:square;stroke-width:0.8;"/>
     </g>
     <g id="line2d_60">
      <g>
       <use style="stroke:#000000;stroke-width:0.8;" x="180" xlink:href="#m6a091c0fe1" y="282.785759"/>
      </g>
     </g>
     <g id="text_31">
      <!-- 0.1 -->
      <g transform="translate(157.096875 286.584978)scale(0.1 -0.1)">
       <use xlink:href="#DejaVuSans-30"/>
       <use x="63.623047" xlink:href="#DejaVuSans-2e"/>
       <use x="95.410156" xlink:href="#DejaVuSans-31"/>
      </g>
     </g>
    </g>
   </g>
   <g id="line2d_61">
    <path clip-path="url(#p754a0b79e0)" d="M 230.727273 316.079987 
L 493.315508 315.967797 
L 529.122995 315.733562 
L 552.994652 315.346889 
L 568.909091 314.873925 
L 580.84492 314.330995 
L 592.780749 313.54926 
L 600.737968 312.847995 
L 608.695187 311.960039 
L 616.652406 310.840688 
L 624.609626 309.437891 
L 632.566845 307.693473 
L 640.524064 305.546643 
L 644.502674 304.304331 
L 648.481283 302.941458 
L 652.459893 301.454054 
L 656.438503 299.840693 
L 664.395722 296.249586 
L 672.352941 292.253521 
L 684.28877 286.036483 
L 688.26738 284.133754 
L 692.245989 282.461684 
L 696.224599 281.136794 
L 700.203209 280.293608 
L 704.181818 280.08 
L 708.160428 280.648428 
L 712.139037 282.142267 
L 716.117647 284.67722 
L 720.096257 288.319126 
L 724.074866 293.061431 
L 728.053476 298.807403 
L 732.032086 305.363176 
L 743.967914 326.796824 
L 747.946524 333.352597 
L 751.925134 339.098569 
L 755.903743 343.840874 
L 759.882353 347.48278 
L 763.860963 350.017733 
L 767.839572 351.511572 
L 771.818182 352.08 
L 775.796791 351.866392 
L 779.775401 351.023206 
L 783.754011 349.698316 
L 787.73262 348.026246 
L 791.71123 346.123517 
L 811.604278 335.910414 
L 819.561497 332.319307 
L 823.540107 330.705946 
L 827.518717 329.218542 
L 831.497326 327.855669 
L 839.454545 325.485907 
L 847.411765 323.547814 
L 855.368984 321.98176 
L 863.326203 320.727625 
L 871.283422 319.730029 
L 879.240642 318.940538 
L 891.176471 318.058799 
L 903.112299 317.445417 
L 919.026738 316.910428 
L 938.919786 316.524893 
L 966.770053 316.265238 
L 1010.534759 316.126639 
L 1121.935829 316.08139 
L 1245.272727 316.080015 
L 1245.272727 316.080015 
" style="fill:none;stroke:#1f77b4;stroke-linecap:square;stroke-width:1.5;"/>
   </g>
   <g id="patch_15">
    <path d="M 180 355.68 
L 180 276.48 
" style="fill:none;stroke:#000000;stroke-linecap:square;stroke-linejoin:miter;stroke-width:0.8;"/>
   </g>
   <g id="patch_16">
    <path d="M 1296 355.68 
L 1296 276.48 
" style="fill:none;stroke:#000000;stroke-linecap:square;stroke-linejoin:miter;stroke-width:0.8;"/>
   </g>
   <g id="patch_17">
    <path d="M 180 355.68 
L 1296 355.68 
" style="fill:none;stroke:#000000;stroke-linecap:square;stroke-linejoin:miter;stroke-width:0.8;"/>
   </g>
   <g id="patch_18">
    <path d="M 180 276.48 
L 1296 276.48 
" style="fill:none;stroke:#000000;stroke-linecap:square;stroke-linejoin:miter;stroke-width:0.8;"/>
   </g>
   <g id="legend_3">
    <g id="patch_19">
     <path d="M 1234.664062 299.43625 
L 1289 299.43625 
Q 1291 299.43625 1291 297.43625 
L 1291 283.48 
Q 1291 281.48 1289 281.48 
L 1234.664062 281.48 
Q 1232.664062 281.48 1232.664062 283.48 
L 1232.664062 297.43625 
Q 1232.664062 299.43625 1234.664062 299.43625 
z
" style="fill:#ffffff;opacity:0.8;stroke:#cccccc;stroke-linejoin:miter;"/>
    </g>
    <g id="line2d_62">
     <path d="M 1236.664062 289.578438 
L 1256.664062 289.578438 
" style="fill:none;stroke:#1f77b4;stroke-linecap:square;stroke-width:1.5;"/>
    </g>
    <g id="line2d_63"/>
    <g id="text_32">
     <!-- vy_c -->
     <defs>
      <path d="M 2.984375 54.6875 
L 12.5 54.6875 
L 29.59375 8.796875 
L 46.6875 54.6875 
L 56.203125 54.6875 
L 35.6875 0 
L 23.484375 0 
z
" id="DejaVuSans-76"/>
      <path d="M 32.171875 -5.078125 
Q 28.375 -14.84375 24.75 -17.8125 
Q 21.140625 -20.796875 15.09375 -20.796875 
L 7.90625 -20.796875 
L 7.90625 -13.28125 
L 13.1875 -13.28125 
Q 16.890625 -13.28125 18.9375 -11.515625 
Q 21 -9.765625 23.484375 -3.21875 
L 25.09375 0.875 
L 2.984375 54.6875 
L 12.5 54.6875 
L 29.59375 11.921875 
L 46.6875 54.6875 
L 56.203125 54.6875 
z
" id="DejaVuSans-79"/>
     </defs>
     <g transform="translate(1264.664062 293.078438)scale(0.1 -0.1)">
      <use xlink:href="#DejaVuSans-76"/>
      <use x="59.179688" xlink:href="#DejaVuSans-79"/>
      <use x="118.359375" xlink:href="#DejaVuSans-5f"/>
      <use x="168.359375" xlink:href="#DejaVuSans-63"/>
     </g>
    </g>
   </g>
  </g>
  <g id="axes_4">
   <g id="patch_20">
    <path d="M 180 450.72 
L 1296 450.72 
L 1296 371.52 
L 180 371.52 
z
" style="fill:#ffffff;"/>
   </g>
   <g id="matplotlib.axis_7">
    <g id="xtick_19">
     <g id="line2d_64">
      <path clip-path="url(#p904b9eb8cb)" d="M 230.727273 450.72 
L 230.727273 371.52 
" style="fill:none;stroke:#b0b0b0;stroke-linecap:square;stroke-width:0.8;"/>
     </g>
     <g id="line2d_65">
      <g>
       <use style="stroke:#000000;stroke-width:0.8;" x="230.727273" xlink:href="#me05dfdcfaf" y="450.72"/>
      </g>
     </g>
     <g id="text_33">
      <!-- 0.0 -->
      <g transform="translate(222.77571 465.318438)scale(0.1 -0.1)">
       <use xlink:href="#DejaVuSans-30"/>
       <use x="63.623047" xlink:href="#DejaVuSans-2e"/>
       <use x="95.410156" xlink:href="#DejaVuSans-30"/>
      </g>
     </g>
    </g>
    <g id="xtick_20">
     <g id="line2d_66">
      <path clip-path="url(#p904b9eb8cb)" d="M 433.636364 450.72 
L 433.636364 371.52 
" style="fill:none;stroke:#b0b0b0;stroke-linecap:square;stroke-width:0.8;"/>
     </g>
     <g id="line2d_67">
      <g>
       <use style="stroke:#000000;stroke-width:0.8;" x="433.636364" xlink:href="#me05dfdcfaf" y="450.72"/>
      </g>
     </g>
     <g id="text_34">
      <!-- 0.2 -->
      <g transform="translate(425.684801 465.318438)scale(0.1 -0.1)">
       <use xlink:href="#DejaVuSans-30"/>
       <use x="63.623047" xlink:href="#DejaVuSans-2e"/>
       <use x="95.410156" xlink:href="#DejaVuSans-32"/>
      </g>
     </g>
    </g>
    <g id="xtick_21">
     <g id="line2d_68">
      <path clip-path="url(#p904b9eb8cb)" d="M 636.545455 450.72 
L 636.545455 371.52 
" style="fill:none;stroke:#b0b0b0;stroke-linecap:square;stroke-width:0.8;"/>
     </g>
     <g id="line2d_69">
      <g>
       <use style="stroke:#000000;stroke-width:0.8;" x="636.545455" xlink:href="#me05dfdcfaf" y="450.72"/>
      </g>
     </g>
     <g id="text_35">
      <!-- 0.4 -->
      <g transform="translate(628.593892 465.318438)scale(0.1 -0.1)">
       <use xlink:href="#DejaVuSans-30"/>
       <use x="63.623047" xlink:href="#DejaVuSans-2e"/>
       <use x="95.410156" xlink:href="#DejaVuSans-34"/>
      </g>
     </g>
    </g>
    <g id="xtick_22">
     <g id="line2d_70">
      <path clip-path="url(#p904b9eb8cb)" d="M 839.454545 450.72 
L 839.454545 371.52 
" style="fill:none;stroke:#b0b0b0;stroke-linecap:square;stroke-width:0.8;"/>
     </g>
     <g id="line2d_71">
      <g>
       <use style="stroke:#000000;stroke-width:0.8;" x="839.454545" xlink:href="#me05dfdcfaf" y="450.72"/>
      </g>
     </g>
     <g id="text_36">
      <!-- 0.6 -->
      <g transform="translate(831.502983 465.318438)scale(0.1 -0.1)">
       <use xlink:href="#DejaVuSans-30"/>
       <use x="63.623047" xlink:href="#DejaVuSans-2e"/>
       <use x="95.410156" xlink:href="#DejaVuSans-36"/>
      </g>
     </g>
    </g>
    <g id="xtick_23">
     <g id="line2d_72">
      <path clip-path="url(#p904b9eb8cb)" d="M 1042.363636 450.72 
L 1042.363636 371.52 
" style="fill:none;stroke:#b0b0b0;stroke-linecap:square;stroke-width:0.8;"/>
     </g>
     <g id="line2d_73">
      <g>
       <use style="stroke:#000000;stroke-width:0.8;" x="1042.363636" xlink:href="#me05dfdcfaf" y="450.72"/>
      </g>
     </g>
     <g id="text_37">
      <!-- 0.8 -->
      <g transform="translate(1034.412074 465.318438)scale(0.1 -0.1)">
       <use xlink:href="#DejaVuSans-30"/>
       <use x="63.623047" xlink:href="#DejaVuSans-2e"/>
       <use x="95.410156" xlink:href="#DejaVuSans-38"/>
      </g>
     </g>
    </g>
    <g id="xtick_24">
     <g id="line2d_74">
      <path clip-path="url(#p904b9eb8cb)" d="M 1245.272727 450.72 
L 1245.272727 371.52 
" style="fill:none;stroke:#b0b0b0;stroke-linecap:square;stroke-width:0.8;"/>
     </g>
     <g id="line2d_75">
      <g>
       <use style="stroke:#000000;stroke-width:0.8;" x="1245.272727" xlink:href="#me05dfdcfaf" y="450.72"/>
      </g>
     </g>
     <g id="text_38">
      <!-- 1.0 -->
      <g transform="translate(1237.321165 465.318438)scale(0.1 -0.1)">
       <use xlink:href="#DejaVuSans-31"/>
       <use x="63.623047" xlink:href="#DejaVuSans-2e"/>
       <use x="95.410156" xlink:href="#DejaVuSans-30"/>
      </g>
     </g>
    </g>
   </g>
   <g id="matplotlib.axis_8">
    <g id="ytick_10">
     <g id="line2d_76">
      <path clip-path="url(#p904b9eb8cb)" d="M 180 436.088997 
L 1296 436.088997 
" style="fill:none;stroke:#b0b0b0;stroke-linecap:square;stroke-width:0.8;"/>
     </g>
     <g id="line2d_77">
      <g>
       <use style="stroke:#000000;stroke-width:0.8;" x="180" xlink:href="#m6a091c0fe1" y="436.088997"/>
      </g>
     </g>
     <g id="text_39">
      <!-- −0.00005 -->
      <defs>
       <path d="M 10.796875 72.90625 
L 49.515625 72.90625 
L 49.515625 64.59375 
L 19.828125 64.59375 
L 19.828125 46.734375 
Q 21.96875 47.46875 24.109375 47.828125 
Q 26.265625 48.1875 28.421875 48.1875 
Q 40.625 48.1875 47.75 41.5 
Q 54.890625 34.8125 54.890625 23.390625 
Q 54.890625 11.625 47.5625 5.09375 
Q 40.234375 -1.421875 26.90625 -1.421875 
Q 22.3125 -1.421875 17.546875 -0.640625 
Q 12.796875 0.140625 7.71875 1.703125 
L 7.71875 11.625 
Q 12.109375 9.234375 16.796875 8.0625 
Q 21.484375 6.890625 26.703125 6.890625 
Q 35.15625 6.890625 40.078125 11.328125 
Q 45.015625 15.765625 45.015625 23.390625 
Q 45.015625 31 40.078125 35.4375 
Q 35.15625 39.890625 26.703125 39.890625 
Q 22.75 39.890625 18.8125 39.015625 
Q 14.890625 38.140625 10.796875 36.28125 
z
" id="DejaVuSans-35"/>
      </defs>
      <g transform="translate(123.267188 439.888216)scale(0.1 -0.1)">
       <use xlink:href="#DejaVuSans-2212"/>
       <use x="83.789062" xlink:href="#DejaVuSans-30"/>
       <use x="147.412109" xlink:href="#DejaVuSans-2e"/>
       <use x="179.199219" xlink:href="#DejaVuSans-30"/>
       <use x="242.822266" xlink:href="#DejaVuSans-30"/>
       <use x="306.445312" xlink:href="#DejaVuSans-30"/>
       <use x="370.068359" xlink:href="#DejaVuSans-30"/>
       <use x="433.691406" xlink:href="#DejaVuSans-35"/>
      </g>
     </g>
    </g>
    <g id="ytick_11">
     <g id="line2d_78">
      <path clip-path="url(#p904b9eb8cb)" d="M 180 411.12 
L 1296 411.12 
" style="fill:none;stroke:#b0b0b0;stroke-linecap:square;stroke-width:0.8;"/>
     </g>
     <g id="line2d_79">
      <g>
       <use style="stroke:#000000;stroke-width:0.8;" x="180" xlink:href="#m6a091c0fe1" y="411.12"/>
      </g>
     </g>
     <g id="text_40">
      <!-- 0.00000 -->
      <g transform="translate(131.646875 414.919219)scale(0.1 -0.1)">
       <use xlink:href="#DejaVuSans-30"/>
       <use x="63.623047" xlink:href="#DejaVuSans-2e"/>
       <use x="95.410156" xlink:href="#DejaVuSans-30"/>
       <use x="159.033203" xlink:href="#DejaVuSans-30"/>
       <use x="222.65625" xlink:href="#DejaVuSans-30"/>
       <use x="286.279297" xlink:href="#DejaVuSans-30"/>
       <use x="349.902344" xlink:href="#DejaVuSans-30"/>
      </g>
     </g>
    </g>
    <g id="ytick_12">
     <g id="line2d_80">
      <path clip-path="url(#p904b9eb8cb)" d="M 180 386.151003 
L 1296 386.151003 
" style="fill:none;stroke:#b0b0b0;stroke-linecap:square;stroke-width:0.8;"/>
     </g>
     <g id="line2d_81">
      <g>
       <use style="stroke:#000000;stroke-width:0.8;" x="180" xlink:href="#m6a091c0fe1" y="386.151003"/>
      </g>
     </g>
     <g id="text_41">
      <!-- 0.00005 -->
      <g transform="translate(131.646875 389.950221)scale(0.1 -0.1)">
       <use xlink:href="#DejaVuSans-30"/>
       <use x="63.623047" xlink:href="#DejaVuSans-2e"/>
       <use x="95.410156" xlink:href="#DejaVuSans-30"/>
       <use x="159.033203" xlink:href="#DejaVuSans-30"/>
       <use x="222.65625" xlink:href="#DejaVuSans-30"/>
       <use x="286.279297" xlink:href="#DejaVuSans-30"/>
       <use x="349.902344" xlink:href="#DejaVuSans-35"/>
      </g>
     </g>
    </g>
   </g>
   <g id="line2d_82">
    <path clip-path="url(#p904b9eb8cb)" d="M 230.727273 411.12002 
L 477.40107 411.219644 
L 513.208556 411.427589 
L 537.080214 411.770666 
L 552.994652 412.19 
L 564.930481 412.670977 
L 576.86631 413.362799 
L 584.823529 413.982711 
L 592.780749 414.766761 
L 600.737968 415.753775 
L 608.695187 416.988791 
L 616.652406 418.522044 
L 624.609626 420.406211 
L 632.566845 422.690851 
L 640.524064 425.412586 
L 648.481283 428.57948 
L 656.438503 432.148216 
L 668.374332 437.951011 
L 676.331551 441.716095 
L 680.31016 443.407557 
L 684.28877 444.877506 
L 688.26738 446.044666 
L 692.245989 446.821927 
L 696.224599 447.12 
L 700.203209 446.852312 
L 704.181818 445.941026 
L 708.160428 444.323878 
L 712.139037 441.961275 
L 716.117647 438.842935 
L 720.096257 434.993201 
L 724.074866 430.474119 
L 728.053476 425.385548 
L 732.032086 419.861821 
L 747.946524 396.854453 
L 751.925134 391.76588 
L 755.903743 387.2468 
L 759.882353 383.397065 
L 763.860963 380.278725 
L 767.839572 377.916122 
L 771.818182 376.298974 
L 775.796791 375.387688 
L 779.775401 375.12 
L 783.754011 375.418073 
L 787.73262 376.195334 
L 791.71123 377.362493 
L 795.68984 378.832443 
L 799.668449 380.523904 
L 807.625668 384.288987 
L 819.561497 390.091785 
L 827.518717 393.660521 
L 835.475936 396.827413 
L 843.433155 399.549149 
L 851.390374 401.833788 
L 859.347594 403.717955 
L 867.304813 405.251209 
L 875.262032 406.486224 
L 883.219251 407.47324 
L 891.176471 408.257289 
L 903.112299 409.136024 
L 915.048128 409.749239 
L 930.962567 410.28537 
L 950.855615 410.672481 
L 978.705882 410.93356 
L 1022.470588 411.073043 
L 1133.871658 411.118601 
L 1245.272727 411.119977 
L 1245.272727 411.119977 
" style="fill:none;stroke:#1f77b4;stroke-linecap:square;stroke-width:1.5;"/>
   </g>
   <g id="patch_21">
    <path d="M 180 450.72 
L 180 371.52 
" style="fill:none;stroke:#000000;stroke-linecap:square;stroke-linejoin:miter;stroke-width:0.8;"/>
   </g>
   <g id="patch_22">
    <path d="M 1296 450.72 
L 1296 371.52 
" style="fill:none;stroke:#000000;stroke-linecap:square;stroke-linejoin:miter;stroke-width:0.8;"/>
   </g>
   <g id="patch_23">
    <path d="M 180 450.72 
L 1296 450.72 
" style="fill:none;stroke:#000000;stroke-linecap:square;stroke-linejoin:miter;stroke-width:0.8;"/>
   </g>
   <g id="patch_24">
    <path d="M 180 371.52 
L 1296 371.52 
" style="fill:none;stroke:#000000;stroke-linecap:square;stroke-linejoin:miter;stroke-width:0.8;"/>
   </g>
   <g id="legend_4">
    <g id="patch_25">
     <path d="M 1233.825 394.47625 
L 1289 394.47625 
Q 1291 394.47625 1291 392.47625 
L 1291 378.52 
Q 1291 376.52 1289 376.52 
L 1233.825 376.52 
Q 1231.825 376.52 1231.825 378.52 
L 1231.825 392.47625 
Q 1231.825 394.47625 1233.825 394.47625 
z
" style="fill:#ffffff;opacity:0.8;stroke:#cccccc;stroke-linejoin:miter;"/>
    </g>
    <g id="line2d_83">
     <path d="M 1235.825 384.618437 
L 1255.825 384.618437 
" style="fill:none;stroke:#1f77b4;stroke-linecap:square;stroke-width:1.5;"/>
    </g>
    <g id="line2d_84"/>
    <g id="text_42">
     <!-- vy_n -->
     <g transform="translate(1263.825 388.118437)scale(0.1 -0.1)">
      <use xlink:href="#DejaVuSans-76"/>
      <use x="59.179688" xlink:href="#DejaVuSans-79"/>
      <use x="118.359375" xlink:href="#DejaVuSans-5f"/>
      <use x="168.359375" xlink:href="#DejaVuSans-6e"/>
     </g>
    </g>
   </g>
  </g>
  <g id="axes_5">
   <g id="patch_26">
    <path d="M 180 545.76 
L 1296 545.76 
L 1296 466.56 
L 180 466.56 
z
" style="fill:#ffffff;"/>
   </g>
   <g id="matplotlib.axis_9">
    <g id="xtick_25">
     <g id="line2d_85">
      <path clip-path="url(#p93c956b243)" d="M 230.727273 545.76 
L 230.727273 466.56 
" style="fill:none;stroke:#b0b0b0;stroke-linecap:square;stroke-width:0.8;"/>
     </g>
     <g id="line2d_86">
      <g>
       <use style="stroke:#000000;stroke-width:0.8;" x="230.727273" xlink:href="#me05dfdcfaf" y="545.76"/>
      </g>
     </g>
     <g id="text_43">
      <!-- 0.0 -->
      <g transform="translate(222.77571 560.358438)scale(0.1 -0.1)">
       <use xlink:href="#DejaVuSans-30"/>
       <use x="63.623047" xlink:href="#DejaVuSans-2e"/>
       <use x="95.410156" xlink:href="#DejaVuSans-30"/>
      </g>
     </g>
    </g>
    <g id="xtick_26">
     <g id="line2d_87">
      <path clip-path="url(#p93c956b243)" d="M 433.636364 545.76 
L 433.636364 466.56 
" style="fill:none;stroke:#b0b0b0;stroke-linecap:square;stroke-width:0.8;"/>
     </g>
     <g id="line2d_88">
      <g>
       <use style="stroke:#000000;stroke-width:0.8;" x="433.636364" xlink:href="#me05dfdcfaf" y="545.76"/>
      </g>
     </g>
     <g id="text_44">
      <!-- 0.2 -->
      <g transform="translate(425.684801 560.358438)scale(0.1 -0.1)">
       <use xlink:href="#DejaVuSans-30"/>
       <use x="63.623047" xlink:href="#DejaVuSans-2e"/>
       <use x="95.410156" xlink:href="#DejaVuSans-32"/>
      </g>
     </g>
    </g>
    <g id="xtick_27">
     <g id="line2d_89">
      <path clip-path="url(#p93c956b243)" d="M 636.545455 545.76 
L 636.545455 466.56 
" style="fill:none;stroke:#b0b0b0;stroke-linecap:square;stroke-width:0.8;"/>
     </g>
     <g id="line2d_90">
      <g>
       <use style="stroke:#000000;stroke-width:0.8;" x="636.545455" xlink:href="#me05dfdcfaf" y="545.76"/>
      </g>
     </g>
     <g id="text_45">
      <!-- 0.4 -->
      <g transform="translate(628.593892 560.358438)scale(0.1 -0.1)">
       <use xlink:href="#DejaVuSans-30"/>
       <use x="63.623047" xlink:href="#DejaVuSans-2e"/>
       <use x="95.410156" xlink:href="#DejaVuSans-34"/>
      </g>
     </g>
    </g>
    <g id="xtick_28">
     <g id="line2d_91">
      <path clip-path="url(#p93c956b243)" d="M 839.454545 545.76 
L 839.454545 466.56 
" style="fill:none;stroke:#b0b0b0;stroke-linecap:square;stroke-width:0.8;"/>
     </g>
     <g id="line2d_92">
      <g>
       <use style="stroke:#000000;stroke-width:0.8;" x="839.454545" xlink:href="#me05dfdcfaf" y="545.76"/>
      </g>
     </g>
     <g id="text_46">
      <!-- 0.6 -->
      <g transform="translate(831.502983 560.358438)scale(0.1 -0.1)">
       <use xlink:href="#DejaVuSans-30"/>
       <use x="63.623047" xlink:href="#DejaVuSans-2e"/>
       <use x="95.410156" xlink:href="#DejaVuSans-36"/>
      </g>
     </g>
    </g>
    <g id="xtick_29">
     <g id="line2d_93">
      <path clip-path="url(#p93c956b243)" d="M 1042.363636 545.76 
L 1042.363636 466.56 
" style="fill:none;stroke:#b0b0b0;stroke-linecap:square;stroke-width:0.8;"/>
     </g>
     <g id="line2d_94">
      <g>
       <use style="stroke:#000000;stroke-width:0.8;" x="1042.363636" xlink:href="#me05dfdcfaf" y="545.76"/>
      </g>
     </g>
     <g id="text_47">
      <!-- 0.8 -->
      <g transform="translate(1034.412074 560.358438)scale(0.1 -0.1)">
       <use xlink:href="#DejaVuSans-30"/>
       <use x="63.623047" xlink:href="#DejaVuSans-2e"/>
       <use x="95.410156" xlink:href="#DejaVuSans-38"/>
      </g>
     </g>
    </g>
    <g id="xtick_30">
     <g id="line2d_95">
      <path clip-path="url(#p93c956b243)" d="M 1245.272727 545.76 
L 1245.272727 466.56 
" style="fill:none;stroke:#b0b0b0;stroke-linecap:square;stroke-width:0.8;"/>
     </g>
     <g id="line2d_96">
      <g>
       <use style="stroke:#000000;stroke-width:0.8;" x="1245.272727" xlink:href="#me05dfdcfaf" y="545.76"/>
      </g>
     </g>
     <g id="text_48">
      <!-- 1.0 -->
      <g transform="translate(1237.321165 560.358438)scale(0.1 -0.1)">
       <use xlink:href="#DejaVuSans-31"/>
       <use x="63.623047" xlink:href="#DejaVuSans-2e"/>
       <use x="95.410156" xlink:href="#DejaVuSans-30"/>
      </g>
     </g>
    </g>
   </g>
   <g id="matplotlib.axis_10">
    <g id="ytick_13">
     <g id="line2d_97">
      <path clip-path="url(#p93c956b243)" d="M 180 527.792825 
L 1296 527.792825 
" style="fill:none;stroke:#b0b0b0;stroke-linecap:square;stroke-width:0.8;"/>
     </g>
     <g id="line2d_98">
      <g>
       <use style="stroke:#000000;stroke-width:0.8;" x="180" xlink:href="#m6a091c0fe1" y="527.792825"/>
      </g>
     </g>
     <g id="text_49">
      <!-- 0.000000 -->
      <g transform="translate(125.284375 531.592043)scale(0.1 -0.1)">
       <use xlink:href="#DejaVuSans-30"/>
       <use x="63.623047" xlink:href="#DejaVuSans-2e"/>
       <use x="95.410156" xlink:href="#DejaVuSans-30"/>
       <use x="159.033203" xlink:href="#DejaVuSans-30"/>
       <use x="222.65625" xlink:href="#DejaVuSans-30"/>
       <use x="286.279297" xlink:href="#DejaVuSans-30"/>
       <use x="349.902344" xlink:href="#DejaVuSans-30"/>
       <use x="413.525391" xlink:href="#DejaVuSans-30"/>
      </g>
     </g>
    </g>
    <g id="ytick_14">
     <g id="line2d_99">
      <path clip-path="url(#p93c956b243)" d="M 180 489.242232 
L 1296 489.242232 
" style="fill:none;stroke:#b0b0b0;stroke-linecap:square;stroke-width:0.8;"/>
     </g>
     <g id="line2d_100">
      <g>
       <use style="stroke:#000000;stroke-width:0.8;" x="180" xlink:href="#m6a091c0fe1" y="489.242232"/>
      </g>
     </g>
     <g id="text_50">
      <!-- 0.000002 -->
      <g transform="translate(125.284375 493.041451)scale(0.1 -0.1)">
       <use xlink:href="#DejaVuSans-30"/>
       <use x="63.623047" xlink:href="#DejaVuSans-2e"/>
       <use x="95.410156" xlink:href="#DejaVuSans-30"/>
       <use x="159.033203" xlink:href="#DejaVuSans-30"/>
       <use x="222.65625" xlink:href="#DejaVuSans-30"/>
       <use x="286.279297" xlink:href="#DejaVuSans-30"/>
       <use x="349.902344" xlink:href="#DejaVuSans-30"/>
       <use x="413.525391" xlink:href="#DejaVuSans-32"/>
      </g>
     </g>
    </g>
   </g>
   <g id="line2d_101">
    <path clip-path="url(#p93c956b243)" d="M 230.727273 527.658889 
L 489.336898 527.757518 
L 525.144385 527.962523 
L 549.016043 528.298798 
L 564.930481 528.706985 
L 576.86631 529.17162 
L 588.802139 529.831935 
L 600.737968 530.758261 
L 608.695187 531.56345 
L 616.652406 532.547102 
L 624.609626 533.729378 
L 632.566845 535.118166 
L 640.524064 536.696077 
L 660.417112 540.840353 
L 664.395722 541.48233 
L 668.374332 541.947246 
L 672.352941 542.16 
L 676.331551 542.030868 
L 680.31016 541.455052 
L 684.28877 540.314079 
L 688.26738 538.481201 
L 692.245989 535.828303 
L 696.224599 532.239437 
L 700.203209 527.628456 
L 704.181818 521.964086 
L 708.160428 515.298427 
L 712.139037 507.79599 
L 720.096257 491.63205 
L 724.074866 483.986701 
L 728.053476 477.463954 
L 732.032086 472.687938 
L 736.010695 470.16 
L 739.989305 470.16 
L 743.967914 472.687938 
L 747.946524 477.463989 
L 751.925134 483.986736 
L 755.903743 491.63212 
L 763.860963 507.79592 
L 767.839572 515.298357 
L 771.818182 521.964086 
L 775.796791 527.628491 
L 779.775401 532.239402 
L 783.754011 535.828373 
L 787.73262 538.481236 
L 791.71123 540.314079 
L 795.68984 541.455017 
L 799.668449 542.030868 
L 803.647059 542.15993 
L 807.625668 541.947176 
L 811.604278 541.482295 
L 815.582888 540.840388 
L 823.540107 539.255746 
L 839.454545 535.886084 
L 847.411765 534.398247 
L 855.368984 533.1124 
L 863.326203 532.031487 
L 871.283422 531.139941 
L 879.240642 530.415149 
L 891.176471 529.585978 
L 903.112299 528.998136 
L 919.026738 528.478208 
L 938.919786 528.099929 
L 966.770053 527.843138 
L 1010.534759 527.705311 
L 1121.935829 527.660117 
L 1245.272727 527.658925 
L 1245.272727 527.658925 
" style="fill:none;stroke:#1f77b4;stroke-linecap:square;stroke-width:1.5;"/>
   </g>
   <g id="patch_27">
    <path d="M 180 545.76 
L 180 466.56 
" style="fill:none;stroke:#000000;stroke-linecap:square;stroke-linejoin:miter;stroke-width:0.8;"/>
   </g>
   <g id="patch_28">
    <path d="M 1296 545.76 
L 1296 466.56 
" style="fill:none;stroke:#000000;stroke-linecap:square;stroke-linejoin:miter;stroke-width:0.8;"/>
   </g>
   <g id="patch_29">
    <path d="M 180 545.76 
L 1296 545.76 
" style="fill:none;stroke:#000000;stroke-linecap:square;stroke-linejoin:miter;stroke-width:0.8;"/>
   </g>
   <g id="patch_30">
    <path d="M 180 466.56 
L 1296 466.56 
" style="fill:none;stroke:#000000;stroke-linecap:square;stroke-linejoin:miter;stroke-width:0.8;"/>
   </g>
   <g id="legend_5">
    <g id="patch_31">
     <path d="M 1220.339062 489.51625 
L 1289 489.51625 
Q 1291 489.51625 1291 487.51625 
L 1291 473.56 
Q 1291 471.56 1289 471.56 
L 1220.339062 471.56 
Q 1218.339062 471.56 1218.339062 473.56 
L 1218.339062 487.51625 
Q 1218.339062 489.51625 1220.339062 489.51625 
z
" style="fill:#ffffff;opacity:0.8;stroke:#cccccc;stroke-linejoin:miter;"/>
    </g>
    <g id="line2d_102">
     <path d="M 1222.339062 479.658437 
L 1242.339062 479.658437 
" style="fill:none;stroke:#1f77b4;stroke-linecap:square;stroke-width:1.5;"/>
    </g>
    <g id="line2d_103"/>
    <g id="text_51">
     <!-- temp_c -->
     <defs>
      <path d="M 18.3125 70.21875 
L 18.3125 54.6875 
L 36.8125 54.6875 
L 36.8125 47.703125 
L 18.3125 47.703125 
L 18.3125 18.015625 
Q 18.3125 11.328125 20.140625 9.421875 
Q 21.96875 7.515625 27.59375 7.515625 
L 36.8125 7.515625 
L 36.8125 0 
L 27.59375 0 
Q 17.1875 0 13.234375 3.875 
Q 9.28125 7.765625 9.28125 18.015625 
L 9.28125 47.703125 
L 2.6875 47.703125 
L 2.6875 54.6875 
L 9.28125 54.6875 
L 9.28125 70.21875 
z
" id="DejaVuSans-74"/>
      <path d="M 52 44.1875 
Q 55.375 50.25 60.0625 53.125 
Q 64.75 56 71.09375 56 
Q 79.640625 56 84.28125 50.015625 
Q 88.921875 44.046875 88.921875 33.015625 
L 88.921875 0 
L 79.890625 0 
L 79.890625 32.71875 
Q 79.890625 40.578125 77.09375 44.375 
Q 74.3125 48.1875 68.609375 48.1875 
Q 61.625 48.1875 57.5625 43.546875 
Q 53.515625 38.921875 53.515625 30.90625 
L 53.515625 0 
L 44.484375 0 
L 44.484375 32.71875 
Q 44.484375 40.625 41.703125 44.40625 
Q 38.921875 48.1875 33.109375 48.1875 
Q 26.21875 48.1875 22.15625 43.53125 
Q 18.109375 38.875 18.109375 30.90625 
L 18.109375 0 
L 9.078125 0 
L 9.078125 54.6875 
L 18.109375 54.6875 
L 18.109375 46.1875 
Q 21.1875 51.21875 25.484375 53.609375 
Q 29.78125 56 35.6875 56 
Q 41.65625 56 45.828125 52.96875 
Q 50 49.953125 52 44.1875 
" id="DejaVuSans-6d"/>
      <path d="M 18.109375 8.203125 
L 18.109375 -20.796875 
L 9.078125 -20.796875 
L 9.078125 54.6875 
L 18.109375 54.6875 
L 18.109375 46.390625 
Q 20.953125 51.265625 25.265625 53.625 
Q 29.59375 56 35.59375 56 
Q 45.5625 56 51.78125 48.09375 
Q 58.015625 40.1875 58.015625 27.296875 
Q 58.015625 14.40625 51.78125 6.484375 
Q 45.5625 -1.421875 35.59375 -1.421875 
Q 29.59375 -1.421875 25.265625 0.953125 
Q 20.953125 3.328125 18.109375 8.203125 
M 48.6875 27.296875 
Q 48.6875 37.203125 44.609375 42.84375 
Q 40.53125 48.484375 33.40625 48.484375 
Q 26.265625 48.484375 22.1875 42.84375 
Q 18.109375 37.203125 18.109375 27.296875 
Q 18.109375 17.390625 22.1875 11.75 
Q 26.265625 6.109375 33.40625 6.109375 
Q 40.53125 6.109375 44.609375 11.75 
Q 48.6875 17.390625 48.6875 27.296875 
" id="DejaVuSans-70"/>
     </defs>
     <g transform="translate(1250.339062 483.158437)scale(0.1 -0.1)">
      <use xlink:href="#DejaVuSans-74"/>
      <use x="39.208984" xlink:href="#DejaVuSans-65"/>
      <use x="100.732422" xlink:href="#DejaVuSans-6d"/>
      <use x="198.144531" xlink:href="#DejaVuSans-70"/>
      <use x="261.621094" xlink:href="#DejaVuSans-5f"/>
      <use x="311.621094" xlink:href="#DejaVuSans-63"/>
     </g>
    </g>
   </g>
  </g>
  <g id="axes_6">
   <g id="patch_32">
    <path d="M 180 640.8 
L 1296 640.8 
L 1296 561.6 
L 180 561.6 
z
" style="fill:#ffffff;"/>
   </g>
   <g id="matplotlib.axis_11">
    <g id="xtick_31">
     <g id="line2d_104">
      <path clip-path="url(#p7ea6e6450a)" d="M 230.727273 640.8 
L 230.727273 561.6 
" style="fill:none;stroke:#b0b0b0;stroke-linecap:square;stroke-width:0.8;"/>
     </g>
     <g id="line2d_105">
      <g>
       <use style="stroke:#000000;stroke-width:0.8;" x="230.727273" xlink:href="#me05dfdcfaf" y="640.8"/>
      </g>
     </g>
     <g id="text_52">
      <!-- 0.0 -->
      <g transform="translate(222.77571 655.398438)scale(0.1 -0.1)">
       <use xlink:href="#DejaVuSans-30"/>
       <use x="63.623047" xlink:href="#DejaVuSans-2e"/>
       <use x="95.410156" xlink:href="#DejaVuSans-30"/>
      </g>
     </g>
    </g>
    <g id="xtick_32">
     <g id="line2d_106">
      <path clip-path="url(#p7ea6e6450a)" d="M 433.636364 640.8 
L 433.636364 561.6 
" style="fill:none;stroke:#b0b0b0;stroke-linecap:square;stroke-width:0.8;"/>
     </g>
     <g id="line2d_107">
      <g>
       <use style="stroke:#000000;stroke-width:0.8;" x="433.636364" xlink:href="#me05dfdcfaf" y="640.8"/>
      </g>
     </g>
     <g id="text_53">
      <!-- 0.2 -->
      <g transform="translate(425.684801 655.398438)scale(0.1 -0.1)">
       <use xlink:href="#DejaVuSans-30"/>
       <use x="63.623047" xlink:href="#DejaVuSans-2e"/>
       <use x="95.410156" xlink:href="#DejaVuSans-32"/>
      </g>
     </g>
    </g>
    <g id="xtick_33">
     <g id="line2d_108">
      <path clip-path="url(#p7ea6e6450a)" d="M 636.545455 640.8 
L 636.545455 561.6 
" style="fill:none;stroke:#b0b0b0;stroke-linecap:square;stroke-width:0.8;"/>
     </g>
     <g id="line2d_109">
      <g>
       <use style="stroke:#000000;stroke-width:0.8;" x="636.545455" xlink:href="#me05dfdcfaf" y="640.8"/>
      </g>
     </g>
     <g id="text_54">
      <!-- 0.4 -->
      <g transform="translate(628.593892 655.398438)scale(0.1 -0.1)">
       <use xlink:href="#DejaVuSans-30"/>
       <use x="63.623047" xlink:href="#DejaVuSans-2e"/>
       <use x="95.410156" xlink:href="#DejaVuSans-34"/>
      </g>
     </g>
    </g>
    <g id="xtick_34">
     <g id="line2d_110">
      <path clip-path="url(#p7ea6e6450a)" d="M 839.454545 640.8 
L 839.454545 561.6 
" style="fill:none;stroke:#b0b0b0;stroke-linecap:square;stroke-width:0.8;"/>
     </g>
     <g id="line2d_111">
      <g>
       <use style="stroke:#000000;stroke-width:0.8;" x="839.454545" xlink:href="#me05dfdcfaf" y="640.8"/>
      </g>
     </g>
     <g id="text_55">
      <!-- 0.6 -->
      <g transform="translate(831.502983 655.398438)scale(0.1 -0.1)">
       <use xlink:href="#DejaVuSans-30"/>
       <use x="63.623047" xlink:href="#DejaVuSans-2e"/>
       <use x="95.410156" xlink:href="#DejaVuSans-36"/>
      </g>
     </g>
    </g>
    <g id="xtick_35">
     <g id="line2d_112">
      <path clip-path="url(#p7ea6e6450a)" d="M 1042.363636 640.8 
L 1042.363636 561.6 
" style="fill:none;stroke:#b0b0b0;stroke-linecap:square;stroke-width:0.8;"/>
     </g>
     <g id="line2d_113">
      <g>
       <use style="stroke:#000000;stroke-width:0.8;" x="1042.363636" xlink:href="#me05dfdcfaf" y="640.8"/>
      </g>
     </g>
     <g id="text_56">
      <!-- 0.8 -->
      <g transform="translate(1034.412074 655.398438)scale(0.1 -0.1)">
       <use xlink:href="#DejaVuSans-30"/>
       <use x="63.623047" xlink:href="#DejaVuSans-2e"/>
       <use x="95.410156" xlink:href="#DejaVuSans-38"/>
      </g>
     </g>
    </g>
    <g id="xtick_36">
     <g id="line2d_114">
      <path clip-path="url(#p7ea6e6450a)" d="M 1245.272727 640.8 
L 1245.272727 561.6 
" style="fill:none;stroke:#b0b0b0;stroke-linecap:square;stroke-width:0.8;"/>
     </g>
     <g id="line2d_115">
      <g>
       <use style="stroke:#000000;stroke-width:0.8;" x="1245.272727" xlink:href="#me05dfdcfaf" y="640.8"/>
      </g>
     </g>
     <g id="text_57">
      <!-- 1.0 -->
      <g transform="translate(1237.321165 655.398438)scale(0.1 -0.1)">
       <use xlink:href="#DejaVuSans-31"/>
       <use x="63.623047" xlink:href="#DejaVuSans-2e"/>
       <use x="95.410156" xlink:href="#DejaVuSans-30"/>
      </g>
     </g>
    </g>
   </g>
   <g id="matplotlib.axis_12">
    <g id="ytick_15">
     <g id="line2d_116">
      <path clip-path="url(#p7ea6e6450a)" d="M 180 616.578847 
L 1296 616.578847 
" style="fill:none;stroke:#b0b0b0;stroke-linecap:square;stroke-width:0.8;"/>
     </g>
     <g id="line2d_117">
      <g>
       <use style="stroke:#000000;stroke-width:0.8;" x="180" xlink:href="#m6a091c0fe1" y="616.578847"/>
      </g>
     </g>
     <g id="text_58">
      <!-- −1 -->
      <g transform="translate(158.257812 620.378066)scale(0.1 -0.1)">
       <use xlink:href="#DejaVuSans-2212"/>
       <use x="83.789062" xlink:href="#DejaVuSans-31"/>
      </g>
     </g>
    </g>
    <g id="ytick_16">
     <g id="line2d_118">
      <path clip-path="url(#p7ea6e6450a)" d="M 180 583.062828 
L 1296 583.062828 
" style="fill:none;stroke:#b0b0b0;stroke-linecap:square;stroke-width:0.8;"/>
     </g>
     <g id="line2d_119">
      <g>
       <use style="stroke:#000000;stroke-width:0.8;" x="180" xlink:href="#m6a091c0fe1" y="583.062828"/>
      </g>
     </g>
     <g id="text_59">
      <!-- 0 -->
      <g transform="translate(166.6375 586.862047)scale(0.1 -0.1)">
       <use xlink:href="#DejaVuSans-30"/>
      </g>
     </g>
    </g>
    <g id="text_60">
     <!-- 1e−9 -->
     <defs>
      <path d="M 10.984375 1.515625 
L 10.984375 10.5 
Q 14.703125 8.734375 18.5 7.8125 
Q 22.3125 6.890625 25.984375 6.890625 
Q 35.75 6.890625 40.890625 13.453125 
Q 46.046875 20.015625 46.78125 33.40625 
Q 43.953125 29.203125 39.59375 26.953125 
Q 35.25 24.703125 29.984375 24.703125 
Q 19.046875 24.703125 12.671875 31.3125 
Q 6.296875 37.9375 6.296875 49.421875 
Q 6.296875 60.640625 12.9375 67.421875 
Q 19.578125 74.21875 30.609375 74.21875 
Q 43.265625 74.21875 49.921875 64.515625 
Q 56.59375 54.828125 56.59375 36.375 
Q 56.59375 19.140625 48.40625 8.859375 
Q 40.234375 -1.421875 26.421875 -1.421875 
Q 22.703125 -1.421875 18.890625 -0.6875 
Q 15.09375 0.046875 10.984375 1.515625 
M 30.609375 32.421875 
Q 37.25 32.421875 41.125 36.953125 
Q 45.015625 41.5 45.015625 49.421875 
Q 45.015625 57.28125 41.125 61.84375 
Q 37.25 66.40625 30.609375 66.40625 
Q 23.96875 66.40625 20.09375 61.84375 
Q 16.21875 57.28125 16.21875 49.421875 
Q 16.21875 41.5 20.09375 36.953125 
Q 23.96875 32.421875 30.609375 32.421875 
" id="DejaVuSans-39"/>
     </defs>
     <g transform="translate(180 558.6)scale(0.1 -0.1)">
      <use xlink:href="#DejaVuSans-31"/>
      <use x="63.623047" xlink:href="#DejaVuSans-65"/>
      <use x="125.146484" xlink:href="#DejaVuSans-2212"/>
      <use x="208.935547" xlink:href="#DejaVuSans-39"/>
     </g>
    </g>
   </g>
   <g id="line2d_120">
    <path clip-path="url(#p7ea6e6450a)" d="M 230.727273 583.306689 
L 234.705882 583.245724 
L 238.684492 583.245724 
L 246.641711 583.306689 
L 401.807487 583.245724 
L 405.786096 583.184759 
L 409.764706 583.306689 
L 417.721925 583.184759 
L 425.679144 583.245724 
L 429.657754 583.184759 
L 437.614973 583.306689 
L 445.572193 583.123793 
L 449.550802 583.245724 
L 457.508021 583.184759 
L 473.42246 583.123793 
L 481.379679 583.062828 
L 485.358289 583.062828 
L 489.336898 582.940898 
L 493.315508 582.940898 
L 517.187166 582.148349 
L 525.144385 581.721592 
L 537.080214 580.746147 
L 545.037433 579.953599 
L 564.930481 577.514987 
L 572.887701 576.783404 
L 580.84492 576.356647 
L 588.802139 576.478577 
L 600.737968 577.271126 
L 604.716578 577.271126 
L 608.695187 577.149196 
L 612.673797 576.722439 
L 616.652406 575.746994 
L 620.631016 574.527688 
L 624.609626 573.186452 
L 628.588235 571.66232 
L 632.566845 569.955292 
L 636.545455 568.492125 
L 640.524064 567.211854 
L 644.502674 566.114479 
L 648.481283 565.443861 
L 652.459893 565.2 
L 656.438503 565.260965 
L 660.417112 565.748688 
L 664.395722 566.724132 
L 668.374332 568.309229 
L 672.352941 570.321084 
L 676.331551 572.881626 
L 680.31016 576.173751 
L 684.28877 580.014564 
L 688.26738 584.46503 
L 692.245989 589.708044 
L 700.203209 601.291448 
L 708.160428 613.484505 
L 712.139037 619.093311 
L 716.117647 624.214395 
L 720.096257 628.54293 
L 724.074866 632.078916 
L 728.053476 634.578493 
L 732.032086 636.285521 
L 736.010695 637.139035 
L 739.989305 637.2 
L 743.967914 636.285521 
L 747.946524 634.578493 
L 751.925134 632.078916 
L 755.903743 628.603895 
L 759.882353 624.153429 
L 763.860963 619.154276 
L 767.839572 613.484505 
L 775.796791 601.291448 
L 783.754011 589.708044 
L 787.73262 584.525995 
L 791.71123 580.075529 
L 795.68984 576.173751 
L 799.668449 572.881626 
L 803.647059 570.260119 
L 807.625668 568.309229 
L 811.604278 566.724132 
L 815.582888 565.809653 
L 819.561497 565.321931 
L 823.540107 565.2 
L 827.518717 565.443861 
L 831.497326 566.114479 
L 839.454545 568.492125 
L 843.433155 569.955292 
L 851.390374 573.247417 
L 855.368984 574.466723 
L 859.347594 575.807959 
L 863.326203 576.661473 
L 867.304813 577.149196 
L 871.283422 577.271126 
L 875.262032 577.271126 
L 883.219251 576.722439 
L 887.197861 576.478577 
L 895.15508 576.356647 
L 899.13369 576.539543 
L 911.069519 577.514987 
L 934.941176 580.380356 
L 946.877005 581.416765 
L 950.855615 581.721592 
L 970.748663 582.697036 
L 974.727273 582.697036 
L 986.663102 583.001863 
L 994.620321 583.062828 
L 1006.55615 583.123793 
L 1010.534759 583.245724 
L 1018.491979 583.184759 
L 1022.470588 583.245724 
L 1030.427807 583.184759 
L 1038.385027 583.245724 
L 1062.256684 583.245724 
L 1066.235294 583.367655 
L 1070.213904 583.245724 
L 1094.085561 583.245724 
L 1098.064171 583.367655 
L 1106.02139 583.245724 
L 1110 583.306689 
L 1113.97861 583.245724 
L 1117.957219 583.306689 
L 1121.935829 583.245724 
L 1129.893048 583.306689 
L 1133.871658 583.245724 
L 1141.828877 583.306689 
L 1145.807487 583.245724 
L 1153.764706 583.306689 
L 1245.272727 583.306689 
L 1245.272727 583.306689 
" style="fill:none;stroke:#1f77b4;stroke-linecap:square;stroke-width:1.5;"/>
   </g>
   <g id="patch_33">
    <path d="M 180 640.8 
L 180 561.6 
" style="fill:none;stroke:#000000;stroke-linecap:square;stroke-linejoin:miter;stroke-width:0.8;"/>
   </g>
   <g id="patch_34">
    <path d="M 1296 640.8 
L 1296 561.6 
" style="fill:none;stroke:#000000;stroke-linecap:square;stroke-linejoin:miter;stroke-width:0.8;"/>
   </g>
   <g id="patch_35">
    <path d="M 180 640.8 
L 1296 640.8 
" style="fill:none;stroke:#000000;stroke-linecap:square;stroke-linejoin:miter;stroke-width:0.8;"/>
   </g>
   <g id="patch_36">
    <path d="M 180 561.6 
L 1296 561.6 
" style="fill:none;stroke:#000000;stroke-linecap:square;stroke-linejoin:miter;stroke-width:0.8;"/>
   </g>
   <g id="legend_6">
    <g id="patch_37">
     <path d="M 187 635.8 
L 256.5 635.8 
Q 258.5 635.8 258.5 633.8 
L 258.5 619.84375 
Q 258.5 617.84375 256.5 617.84375 
L 187 617.84375 
Q 185 617.84375 185 619.84375 
L 185 633.8 
Q 185 635.8 187 635.8 
z
" style="fill:#ffffff;opacity:0.8;stroke:#cccccc;stroke-linejoin:miter;"/>
    </g>
    <g id="line2d_121">
     <path d="M 189 625.942188 
L 209 625.942188 
" style="fill:none;stroke:#1f77b4;stroke-linecap:square;stroke-width:1.5;"/>
    </g>
    <g id="line2d_122"/>
    <g id="text_61">
     <!-- temp_n -->
     <g transform="translate(217 629.442188)scale(0.1 -0.1)">
      <use xlink:href="#DejaVuSans-74"/>
      <use x="39.208984" xlink:href="#DejaVuSans-65"/>
      <use x="100.732422" xlink:href="#DejaVuSans-6d"/>
      <use x="198.144531" xlink:href="#DejaVuSans-70"/>
      <use x="261.621094" xlink:href="#DejaVuSans-5f"/>
      <use x="311.621094" xlink:href="#DejaVuSans-6e"/>
     </g>
    </g>
   </g>
  </g>
  <g id="text_62">
   <!-- time 13.900000 -->
   <defs>
    <path d="M 9.421875 54.6875 
L 18.40625 54.6875 
L 18.40625 0 
L 9.421875 0 
z
M 9.421875 75.984375 
L 18.40625 75.984375 
L 18.40625 64.59375 
L 9.421875 64.59375 
z
" id="DejaVuSans-69"/>
    <path id="DejaVuSans-20"/>
    <path d="M 40.578125 39.3125 
Q 47.65625 37.796875 51.625 33 
Q 55.609375 28.21875 55.609375 21.1875 
Q 55.609375 10.40625 48.1875 4.484375 
Q 40.765625 -1.421875 27.09375 -1.421875 
Q 22.515625 -1.421875 17.65625 -0.515625 
Q 12.796875 0.390625 7.625 2.203125 
L 7.625 11.71875 
Q 11.71875 9.328125 16.59375 8.109375 
Q 21.484375 6.890625 26.8125 6.890625 
Q 36.078125 6.890625 40.9375 10.546875 
Q 45.796875 14.203125 45.796875 21.1875 
Q 45.796875 27.640625 41.28125 31.265625 
Q 36.765625 34.90625 28.71875 34.90625 
L 20.21875 34.90625 
L 20.21875 43.015625 
L 29.109375 43.015625 
Q 36.375 43.015625 40.234375 45.921875 
Q 44.09375 48.828125 44.09375 54.296875 
Q 44.09375 59.90625 40.109375 62.90625 
Q 36.140625 65.921875 28.71875 65.921875 
Q 24.65625 65.921875 20.015625 65.03125 
Q 15.375 64.15625 9.8125 62.3125 
L 9.8125 71.09375 
Q 15.4375 72.65625 20.34375 73.4375 
Q 25.25 74.21875 29.59375 74.21875 
Q 40.828125 74.21875 47.359375 69.109375 
Q 53.90625 64.015625 53.90625 55.328125 
Q 53.90625 49.265625 50.4375 45.09375 
Q 46.96875 40.921875 40.578125 39.3125 
" id="DejaVuSans-33"/>
   </defs>
   <g transform="translate(672.090937 23.518125)scale(0.12 -0.12)">
    <use xlink:href="#DejaVuSans-74"/>
    <use x="39.208984" xlink:href="#DejaVuSans-69"/>
    <use x="66.992188" xlink:href="#DejaVuSans-6d"/>
    <use x="164.404297" xlink:href="#DejaVuSans-65"/>
    <use x="225.927734" xlink:href="#DejaVuSans-20"/>
    <use x="257.714844" xlink:href="#DejaVuSans-31"/>
    <use x="321.337891" xlink:href="#DejaVuSans-33"/>
    <use x="384.960938" xlink:href="#DejaVuSans-2e"/>
    <use x="416.748047" xlink:href="#DejaVuSans-39"/>
    <use x="480.371094" xlink:href="#DejaVuSans-30"/>
    <use x="543.994141" xlink:href="#DejaVuSans-30"/>
    <use x="607.617188" xlink:href="#DejaVuSans-30"/>
    <use x="671.240234" xlink:href="#DejaVuSans-30"/>
    <use x="734.863281" xlink:href="#DejaVuSans-30"/>
   </g>
  </g>
 </g>
 <defs>
  <clipPath id="p0a0011e9d7">
   <rect height="79.2" width="1116" x="180" y="86.4"/>
  </clipPath>
  <clipPath id="p814643b8a0">
   <rect height="79.2" width="1116" x="180" y="181.44"/>
  </clipPath>
  <clipPath id="p754a0b79e0">
   <rect height="79.2" width="1116" x="180" y="276.48"/>
  </clipPath>
  <clipPath id="p904b9eb8cb">
   <rect height="79.2" width="1116" x="180" y="371.52"/>
  </clipPath>
  <clipPath id="p93c956b243">
   <rect height="79.2" width="1116" x="180" y="466.56"/>
  </clipPath>
  <clipPath id="p7ea6e6450a">
   <rect height="79.2" width="1116" x="180" y="561.6"/>
  </clipPath>
 </defs>
</svg>
