<?xml version="1.0" encoding="utf-8" standalone="no"?>
<!DOCTYPE svg PUBLIC "-//W3C//DTD SVG 1.1//EN"
  "http://www.w3.org/Graphics/SVG/1.1/DTD/svg11.dtd">
<!-- Created with matplotlib (http://matplotlib.org/) -->
<svg height="720pt" version="1.1" viewBox="0 0 1440 720" width="1440pt" xmlns="http://www.w3.org/2000/svg" xmlns:xlink="http://www.w3.org/1999/xlink">
 <defs>
  <style type="text/css">
*{stroke-linecap:butt;stroke-linejoin:round;}
  </style>
 </defs>
 <g id="figure_1">
  <g id="patch_1">
   <path d="M 0 720 
L 1440 720 
L 1440 0 
L 0 0 
z
" style="fill:#ffffff;"/>
  </g>
  <g id="axes_1">
   <g id="patch_2">
    <path d="M 180 165.6 
L 1296 165.6 
L 1296 86.4 
L 180 86.4 
z
" style="fill:#ffffff;"/>
   </g>
   <g id="matplotlib.axis_1">
    <g id="xtick_1">
     <g id="line2d_1">
      <path clip-path="url(#p3bae8d9c05)" d="M 230.727273 165.6 
L 230.727273 86.4 
" style="fill:none;stroke:#b0b0b0;stroke-linecap:square;stroke-width:0.8;"/>
     </g>
     <g id="line2d_2">
      <defs>
       <path d="M 0 0 
L 0 3.5 
" id="mda04939b84" style="stroke:#000000;stroke-width:0.8;"/>
      </defs>
      <g>
       <use style="stroke:#000000;stroke-width:0.8;" x="230.727273" xlink:href="#mda04939b84" y="165.6"/>
      </g>
     </g>
     <g id="text_1">
      <!-- 0.0 -->
      <defs>
       <path d="M 31.78125 66.40625 
Q 24.171875 66.40625 20.328125 58.90625 
Q 16.5 51.421875 16.5 36.375 
Q 16.5 21.390625 20.328125 13.890625 
Q 24.171875 6.390625 31.78125 6.390625 
Q 39.453125 6.390625 43.28125 13.890625 
Q 47.125 21.390625 47.125 36.375 
Q 47.125 51.421875 43.28125 58.90625 
Q 39.453125 66.40625 31.78125 66.40625 
M 31.78125 74.21875 
Q 44.046875 74.21875 50.515625 64.515625 
Q 56.984375 54.828125 56.984375 36.375 
Q 56.984375 17.96875 50.515625 8.265625 
Q 44.046875 -1.421875 31.78125 -1.421875 
Q 19.53125 -1.421875 13.0625 8.265625 
Q 6.59375 17.96875 6.59375 36.375 
Q 6.59375 54.828125 13.0625 64.515625 
Q 19.53125 74.21875 31.78125 74.21875 
" id="DejaVuSans-30"/>
       <path d="M 10.6875 12.40625 
L 21 12.40625 
L 21 0 
L 10.6875 0 
z
" id="DejaVuSans-2e"/>
      </defs>
      <g transform="translate(222.77571 180.198438)scale(0.1 -0.1)">
       <use xlink:href="#DejaVuSans-30"/>
       <use x="63.623047" xlink:href="#DejaVuSans-2e"/>
       <use x="95.410156" xlink:href="#DejaVuSans-30"/>
      </g>
     </g>
    </g>
    <g id="xtick_2">
     <g id="line2d_3">
      <path clip-path="url(#p3bae8d9c05)" d="M 433.636364 165.6 
L 433.636364 86.4 
" style="fill:none;stroke:#b0b0b0;stroke-linecap:square;stroke-width:0.8;"/>
     </g>
     <g id="line2d_4">
      <g>
       <use style="stroke:#000000;stroke-width:0.8;" x="433.636364" xlink:href="#mda04939b84" y="165.6"/>
      </g>
     </g>
     <g id="text_2">
      <!-- 0.2 -->
      <defs>
       <path d="M 19.1875 8.296875 
L 53.609375 8.296875 
L 53.609375 0 
L 7.328125 0 
L 7.328125 8.296875 
Q 12.9375 14.109375 22.625 23.890625 
Q 32.328125 33.6875 34.8125 36.53125 
Q 39.546875 41.84375 41.421875 45.53125 
Q 43.3125 49.21875 43.3125 52.78125 
Q 43.3125 58.59375 39.234375 62.25 
Q 35.15625 65.921875 28.609375 65.921875 
Q 23.96875 65.921875 18.8125 64.3125 
Q 13.671875 62.703125 7.8125 59.421875 
L 7.8125 69.390625 
Q 13.765625 71.78125 18.9375 73 
Q 24.125 74.21875 28.421875 74.21875 
Q 39.75 74.21875 46.484375 68.546875 
Q 53.21875 62.890625 53.21875 53.421875 
Q 53.21875 48.921875 51.53125 44.890625 
Q 49.859375 40.875 45.40625 35.40625 
Q 44.1875 33.984375 37.640625 27.21875 
Q 31.109375 20.453125 19.1875 8.296875 
" id="DejaVuSans-32"/>
      </defs>
      <g transform="translate(425.684801 180.198438)scale(0.1 -0.1)">
       <use xlink:href="#DejaVuSans-30"/>
       <use x="63.623047" xlink:href="#DejaVuSans-2e"/>
       <use x="95.410156" xlink:href="#DejaVuSans-32"/>
      </g>
     </g>
    </g>
    <g id="xtick_3">
     <g id="line2d_5">
      <path clip-path="url(#p3bae8d9c05)" d="M 636.545455 165.6 
L 636.545455 86.4 
" style="fill:none;stroke:#b0b0b0;stroke-linecap:square;stroke-width:0.8;"/>
     </g>
     <g id="line2d_6">
      <g>
       <use style="stroke:#000000;stroke-width:0.8;" x="636.545455" xlink:href="#mda04939b84" y="165.6"/>
      </g>
     </g>
     <g id="text_3">
      <!-- 0.4 -->
      <defs>
       <path d="M 37.796875 64.3125 
L 12.890625 25.390625 
L 37.796875 25.390625 
z
M 35.203125 72.90625 
L 47.609375 72.90625 
L 47.609375 25.390625 
L 58.015625 25.390625 
L 58.015625 17.1875 
L 47.609375 17.1875 
L 47.609375 0 
L 37.796875 0 
L 37.796875 17.1875 
L 4.890625 17.1875 
L 4.890625 26.703125 
z
" id="DejaVuSans-34"/>
      </defs>
      <g transform="translate(628.593892 180.198438)scale(0.1 -0.1)">
       <use xlink:href="#DejaVuSans-30"/>
       <use x="63.623047" xlink:href="#DejaVuSans-2e"/>
       <use x="95.410156" xlink:href="#DejaVuSans-34"/>
      </g>
     </g>
    </g>
    <g id="xtick_4">
     <g id="line2d_7">
      <path clip-path="url(#p3bae8d9c05)" d="M 839.454545 165.6 
L 839.454545 86.4 
" style="fill:none;stroke:#b0b0b0;stroke-linecap:square;stroke-width:0.8;"/>
     </g>
     <g id="line2d_8">
      <g>
       <use style="stroke:#000000;stroke-width:0.8;" x="839.454545" xlink:href="#mda04939b84" y="165.6"/>
      </g>
     </g>
     <g id="text_4">
      <!-- 0.6 -->
      <defs>
       <path d="M 33.015625 40.375 
Q 26.375 40.375 22.484375 35.828125 
Q 18.609375 31.296875 18.609375 23.390625 
Q 18.609375 15.53125 22.484375 10.953125 
Q 26.375 6.390625 33.015625 6.390625 
Q 39.65625 6.390625 43.53125 10.953125 
Q 47.40625 15.53125 47.40625 23.390625 
Q 47.40625 31.296875 43.53125 35.828125 
Q 39.65625 40.375 33.015625 40.375 
M 52.59375 71.296875 
L 52.59375 62.3125 
Q 48.875 64.0625 45.09375 64.984375 
Q 41.3125 65.921875 37.59375 65.921875 
Q 27.828125 65.921875 22.671875 59.328125 
Q 17.53125 52.734375 16.796875 39.40625 
Q 19.671875 43.65625 24.015625 45.921875 
Q 28.375 48.1875 33.59375 48.1875 
Q 44.578125 48.1875 50.953125 41.515625 
Q 57.328125 34.859375 57.328125 23.390625 
Q 57.328125 12.15625 50.6875 5.359375 
Q 44.046875 -1.421875 33.015625 -1.421875 
Q 20.359375 -1.421875 13.671875 8.265625 
Q 6.984375 17.96875 6.984375 36.375 
Q 6.984375 53.65625 15.1875 63.9375 
Q 23.390625 74.21875 37.203125 74.21875 
Q 40.921875 74.21875 44.703125 73.484375 
Q 48.484375 72.75 52.59375 71.296875 
" id="DejaVuSans-36"/>
      </defs>
      <g transform="translate(831.502983 180.198438)scale(0.1 -0.1)">
       <use xlink:href="#DejaVuSans-30"/>
       <use x="63.623047" xlink:href="#DejaVuSans-2e"/>
       <use x="95.410156" xlink:href="#DejaVuSans-36"/>
      </g>
     </g>
    </g>
    <g id="xtick_5">
     <g id="line2d_9">
      <path clip-path="url(#p3bae8d9c05)" d="M 1042.363636 165.6 
L 1042.363636 86.4 
" style="fill:none;stroke:#b0b0b0;stroke-linecap:square;stroke-width:0.8;"/>
     </g>
     <g id="line2d_10">
      <g>
       <use style="stroke:#000000;stroke-width:0.8;" x="1042.363636" xlink:href="#mda04939b84" y="165.6"/>
      </g>
     </g>
     <g id="text_5">
      <!-- 0.8 -->
      <defs>
       <path d="M 31.78125 34.625 
Q 24.75 34.625 20.71875 30.859375 
Q 16.703125 27.09375 16.703125 20.515625 
Q 16.703125 13.921875 20.71875 10.15625 
Q 24.75 6.390625 31.78125 6.390625 
Q 38.8125 6.390625 42.859375 10.171875 
Q 46.921875 13.96875 46.921875 20.515625 
Q 46.921875 27.09375 42.890625 30.859375 
Q 38.875 34.625 31.78125 34.625 
M 21.921875 38.8125 
Q 15.578125 40.375 12.03125 44.71875 
Q 8.5 49.078125 8.5 55.328125 
Q 8.5 64.0625 14.71875 69.140625 
Q 20.953125 74.21875 31.78125 74.21875 
Q 42.671875 74.21875 48.875 69.140625 
Q 55.078125 64.0625 55.078125 55.328125 
Q 55.078125 49.078125 51.53125 44.71875 
Q 48 40.375 41.703125 38.8125 
Q 48.828125 37.15625 52.796875 32.3125 
Q 56.78125 27.484375 56.78125 20.515625 
Q 56.78125 9.90625 50.3125 4.234375 
Q 43.84375 -1.421875 31.78125 -1.421875 
Q 19.734375 -1.421875 13.25 4.234375 
Q 6.78125 9.90625 6.78125 20.515625 
Q 6.78125 27.484375 10.78125 32.3125 
Q 14.796875 37.15625 21.921875 38.8125 
M 18.3125 54.390625 
Q 18.3125 48.734375 21.84375 45.5625 
Q 25.390625 42.390625 31.78125 42.390625 
Q 38.140625 42.390625 41.71875 45.5625 
Q 45.3125 48.734375 45.3125 54.390625 
Q 45.3125 60.0625 41.71875 63.234375 
Q 38.140625 66.40625 31.78125 66.40625 
Q 25.390625 66.40625 21.84375 63.234375 
Q 18.3125 60.0625 18.3125 54.390625 
" id="DejaVuSans-38"/>
      </defs>
      <g transform="translate(1034.412074 180.198438)scale(0.1 -0.1)">
       <use xlink:href="#DejaVuSans-30"/>
       <use x="63.623047" xlink:href="#DejaVuSans-2e"/>
       <use x="95.410156" xlink:href="#DejaVuSans-38"/>
      </g>
     </g>
    </g>
    <g id="xtick_6">
     <g id="line2d_11">
      <path clip-path="url(#p3bae8d9c05)" d="M 1245.272727 165.6 
L 1245.272727 86.4 
" style="fill:none;stroke:#b0b0b0;stroke-linecap:square;stroke-width:0.8;"/>
     </g>
     <g id="line2d_12">
      <g>
       <use style="stroke:#000000;stroke-width:0.8;" x="1245.272727" xlink:href="#mda04939b84" y="165.6"/>
      </g>
     </g>
     <g id="text_6">
      <!-- 1.0 -->
      <defs>
       <path d="M 12.40625 8.296875 
L 28.515625 8.296875 
L 28.515625 63.921875 
L 10.984375 60.40625 
L 10.984375 69.390625 
L 28.421875 72.90625 
L 38.28125 72.90625 
L 38.28125 8.296875 
L 54.390625 8.296875 
L 54.390625 0 
L 12.40625 0 
z
" id="DejaVuSans-31"/>
      </defs>
      <g transform="translate(1237.321165 180.198438)scale(0.1 -0.1)">
       <use xlink:href="#DejaVuSans-31"/>
       <use x="63.623047" xlink:href="#DejaVuSans-2e"/>
       <use x="95.410156" xlink:href="#DejaVuSans-30"/>
      </g>
     </g>
    </g>
   </g>
   <g id="matplotlib.axis_2">
    <g id="ytick_1">
     <g id="line2d_13">
      <path clip-path="url(#p3bae8d9c05)" d="M 180 151.710454 
L 1296 151.710454 
" style="fill:none;stroke:#b0b0b0;stroke-linecap:square;stroke-width:0.8;"/>
     </g>
     <g id="line2d_14">
      <defs>
       <path d="M 0 0 
L -3.5 0 
" id="mc6f8972b0c" style="stroke:#000000;stroke-width:0.8;"/>
      </defs>
      <g>
       <use style="stroke:#000000;stroke-width:0.8;" x="180" xlink:href="#mc6f8972b0c" y="151.710454"/>
      </g>
     </g>
     <g id="text_7">
      <!-- −4 -->
      <defs>
       <path d="M 10.59375 35.5 
L 73.1875 35.5 
L 73.1875 27.203125 
L 10.59375 27.203125 
z
" id="DejaVuSans-2212"/>
      </defs>
      <g transform="translate(158.257812 155.509672)scale(0.1 -0.1)">
       <use xlink:href="#DejaVuSans-2212"/>
       <use x="83.789062" xlink:href="#DejaVuSans-34"/>
      </g>
     </g>
    </g>
    <g id="ytick_2">
     <g id="line2d_15">
      <path clip-path="url(#p3bae8d9c05)" d="M 180 118.683726 
L 1296 118.683726 
" style="fill:none;stroke:#b0b0b0;stroke-linecap:square;stroke-width:0.8;"/>
     </g>
     <g id="line2d_16">
      <g>
       <use style="stroke:#000000;stroke-width:0.8;" x="180" xlink:href="#mc6f8972b0c" y="118.683726"/>
      </g>
     </g>
     <g id="text_8">
      <!-- −2 -->
      <g transform="translate(158.257812 122.482945)scale(0.1 -0.1)">
       <use xlink:href="#DejaVuSans-2212"/>
       <use x="83.789062" xlink:href="#DejaVuSans-32"/>
      </g>
     </g>
    </g>
    <g id="text_9">
     <!-- 1e−12 -->
     <defs>
      <path d="M 56.203125 29.59375 
L 56.203125 25.203125 
L 14.890625 25.203125 
Q 15.484375 15.921875 20.484375 11.0625 
Q 25.484375 6.203125 34.421875 6.203125 
Q 39.59375 6.203125 44.453125 7.46875 
Q 49.3125 8.734375 54.109375 11.28125 
L 54.109375 2.78125 
Q 49.265625 0.734375 44.1875 -0.34375 
Q 39.109375 -1.421875 33.890625 -1.421875 
Q 20.796875 -1.421875 13.15625 6.1875 
Q 5.515625 13.8125 5.515625 26.8125 
Q 5.515625 40.234375 12.765625 48.109375 
Q 20.015625 56 32.328125 56 
Q 43.359375 56 49.78125 48.890625 
Q 56.203125 41.796875 56.203125 29.59375 
M 47.21875 32.234375 
Q 47.125 39.59375 43.09375 43.984375 
Q 39.0625 48.390625 32.421875 48.390625 
Q 24.90625 48.390625 20.390625 44.140625 
Q 15.875 39.890625 15.1875 32.171875 
z
" id="DejaVuSans-65"/>
     </defs>
     <g transform="translate(180 83.4)scale(0.1 -0.1)">
      <use xlink:href="#DejaVuSans-31"/>
      <use x="63.623047" xlink:href="#DejaVuSans-65"/>
      <use x="125.146484" xlink:href="#DejaVuSans-2212"/>
      <use x="208.935547" xlink:href="#DejaVuSans-31"/>
      <use x="272.558594" xlink:href="#DejaVuSans-32"/>
     </g>
    </g>
   </g>
   <g id="line2d_17">
    <path clip-path="url(#p3bae8d9c05)" d="M 230.727273 90 
L 485.358289 90.098764 
L 521.165775 90.305194 
L 545.037433 90.646509 
L 560.951872 91.064933 
L 572.887701 91.546565 
L 584.823529 92.242595 
L 592.780749 92.869648 
L 600.737968 93.667445 
L 608.695187 94.679558 
L 616.652406 95.958828 
L 624.609626 97.568145 
L 632.566845 99.58045 
L 636.545455 100.762951 
L 640.524064 102.077274 
L 644.502674 103.534321 
L 648.481283 105.144851 
L 652.459893 106.919137 
L 656.438503 108.866526 
L 660.417112 110.994897 
L 664.395722 113.310016 
L 668.374332 115.81477 
L 672.352941 118.508318 
L 676.331551 121.385146 
L 680.31016 124.434093 
L 688.26738 130.969715 
L 708.160428 148.097772 
L 712.139037 151.211893 
L 716.117647 154.060427 
L 720.096257 156.570767 
L 724.074866 158.674462 
L 728.053476 160.310926 
L 732.032086 161.430997 
L 736.010695 162 
L 739.989305 162 
L 743.967914 161.430997 
L 747.946524 160.310926 
L 751.925134 158.674462 
L 755.903743 156.570767 
L 759.882353 154.060427 
L 763.860963 151.211893 
L 767.839572 148.097772 
L 775.796791 141.363138 
L 787.73262 130.969715 
L 795.68984 124.434093 
L 799.668449 121.385146 
L 803.647059 118.508318 
L 807.625668 115.81477 
L 811.604278 113.310016 
L 815.582888 110.994897 
L 819.561497 108.866526 
L 823.540107 106.919137 
L 827.518717 105.144851 
L 831.497326 103.534321 
L 835.475936 102.077274 
L 839.454545 100.762951 
L 843.433155 99.58045 
L 851.390374 97.568145 
L 859.347594 95.958828 
L 867.304813 94.679558 
L 875.262032 93.667445 
L 883.219251 92.869648 
L 895.15508 91.981739 
L 907.090909 91.365887 
L 923.005348 90.829903 
L 942.898396 90.444296 
L 970.748663 90.184887 
L 1014.513369 90.046515 
L 1125.914439 90.001354 
L 1245.272727 90 
L 1245.272727 90 
" style="fill:none;stroke:#1f77b4;stroke-linecap:square;stroke-width:1.5;"/>
   </g>
   <g id="patch_3">
    <path d="M 180 165.6 
L 180 86.4 
" style="fill:none;stroke:#000000;stroke-linecap:square;stroke-linejoin:miter;stroke-width:0.8;"/>
   </g>
   <g id="patch_4">
    <path d="M 1296 165.6 
L 1296 86.4 
" style="fill:none;stroke:#000000;stroke-linecap:square;stroke-linejoin:miter;stroke-width:0.8;"/>
   </g>
   <g id="patch_5">
    <path d="M 180 165.6 
L 1296 165.6 
" style="fill:none;stroke:#000000;stroke-linecap:square;stroke-linejoin:miter;stroke-width:0.8;"/>
   </g>
   <g id="patch_6">
    <path d="M 180 86.4 
L 1296 86.4 
" style="fill:none;stroke:#000000;stroke-linecap:square;stroke-linejoin:miter;stroke-width:0.8;"/>
   </g>
   <g id="legend_1">
    <g id="patch_7">
     <path d="M 1229.935937 109.35625 
L 1289 109.35625 
Q 1291 109.35625 1291 107.35625 
L 1291 93.4 
Q 1291 91.4 1289 91.4 
L 1229.935937 91.4 
Q 1227.935937 91.4 1227.935937 93.4 
L 1227.935937 107.35625 
Q 1227.935937 109.35625 1229.935937 109.35625 
z
" style="fill:#ffffff;opacity:0.8;stroke:#cccccc;stroke-linejoin:miter;"/>
    </g>
    <g id="line2d_18">
     <path d="M 1231.935937 99.498437 
L 1251.935937 99.498437 
" style="fill:none;stroke:#1f77b4;stroke-linecap:square;stroke-width:1.5;"/>
    </g>
    <g id="line2d_19"/>
    <g id="text_10">
     <!-- rho_c -->
     <defs>
      <path d="M 41.109375 46.296875 
Q 39.59375 47.171875 37.8125 47.578125 
Q 36.03125 48 33.890625 48 
Q 26.265625 48 22.1875 43.046875 
Q 18.109375 38.09375 18.109375 28.8125 
L 18.109375 0 
L 9.078125 0 
L 9.078125 54.6875 
L 18.109375 54.6875 
L 18.109375 46.1875 
Q 20.953125 51.171875 25.484375 53.578125 
Q 30.03125 56 36.53125 56 
Q 37.453125 56 38.578125 55.875 
Q 39.703125 55.765625 41.0625 55.515625 
z
" id="DejaVuSans-72"/>
      <path d="M 54.890625 33.015625 
L 54.890625 0 
L 45.90625 0 
L 45.90625 32.71875 
Q 45.90625 40.484375 42.875 44.328125 
Q 39.84375 48.1875 33.796875 48.1875 
Q 26.515625 48.1875 22.3125 43.546875 
Q 18.109375 38.921875 18.109375 30.90625 
L 18.109375 0 
L 9.078125 0 
L 9.078125 75.984375 
L 18.109375 75.984375 
L 18.109375 46.1875 
Q 21.34375 51.125 25.703125 53.5625 
Q 30.078125 56 35.796875 56 
Q 45.21875 56 50.046875 50.171875 
Q 54.890625 44.34375 54.890625 33.015625 
" id="DejaVuSans-68"/>
      <path d="M 30.609375 48.390625 
Q 23.390625 48.390625 19.1875 42.75 
Q 14.984375 37.109375 14.984375 27.296875 
Q 14.984375 17.484375 19.15625 11.84375 
Q 23.34375 6.203125 30.609375 6.203125 
Q 37.796875 6.203125 41.984375 11.859375 
Q 46.1875 17.53125 46.1875 27.296875 
Q 46.1875 37.015625 41.984375 42.703125 
Q 37.796875 48.390625 30.609375 48.390625 
M 30.609375 56 
Q 42.328125 56 49.015625 48.375 
Q 55.71875 40.765625 55.71875 27.296875 
Q 55.71875 13.875 49.015625 6.21875 
Q 42.328125 -1.421875 30.609375 -1.421875 
Q 18.84375 -1.421875 12.171875 6.21875 
Q 5.515625 13.875 5.515625 27.296875 
Q 5.515625 40.765625 12.171875 48.375 
Q 18.84375 56 30.609375 56 
" id="DejaVuSans-6f"/>
      <path d="M 50.984375 -16.609375 
L 50.984375 -23.578125 
L -0.984375 -23.578125 
L -0.984375 -16.609375 
z
" id="DejaVuSans-5f"/>
      <path d="M 48.78125 52.59375 
L 48.78125 44.1875 
Q 44.96875 46.296875 41.140625 47.34375 
Q 37.3125 48.390625 33.40625 48.390625 
Q 24.65625 48.390625 19.8125 42.84375 
Q 14.984375 37.3125 14.984375 27.296875 
Q 14.984375 17.28125 19.8125 11.734375 
Q 24.65625 6.203125 33.40625 6.203125 
Q 37.3125 6.203125 41.140625 7.25 
Q 44.96875 8.296875 48.78125 10.40625 
L 48.78125 2.09375 
Q 45.015625 0.34375 40.984375 -0.53125 
Q 36.96875 -1.421875 32.421875 -1.421875 
Q 20.0625 -1.421875 12.78125 6.34375 
Q 5.515625 14.109375 5.515625 27.296875 
Q 5.515625 40.671875 12.859375 48.328125 
Q 20.21875 56 33.015625 56 
Q 37.15625 56 41.109375 55.140625 
Q 45.0625 54.296875 48.78125 52.59375 
" id="DejaVuSans-63"/>
     </defs>
     <g transform="translate(1259.935937 102.998437)scale(0.1 -0.1)">
      <use xlink:href="#DejaVuSans-72"/>
      <use x="41.097656" xlink:href="#DejaVuSans-68"/>
      <use x="104.476562" xlink:href="#DejaVuSans-6f"/>
      <use x="165.658203" xlink:href="#DejaVuSans-5f"/>
      <use x="215.658203" xlink:href="#DejaVuSans-63"/>
     </g>
    </g>
   </g>
  </g>
  <g id="axes_2">
   <g id="patch_8">
    <path d="M 180 260.64 
L 1296 260.64 
L 1296 181.44 
L 180 181.44 
z
" style="fill:#ffffff;"/>
   </g>
   <g id="matplotlib.axis_3">
    <g id="xtick_7">
     <g id="line2d_20">
      <path clip-path="url(#p943d69f6ff)" d="M 230.727273 260.64 
L 230.727273 181.44 
" style="fill:none;stroke:#b0b0b0;stroke-linecap:square;stroke-width:0.8;"/>
     </g>
     <g id="line2d_21">
      <g>
       <use style="stroke:#000000;stroke-width:0.8;" x="230.727273" xlink:href="#mda04939b84" y="260.64"/>
      </g>
     </g>
     <g id="text_11">
      <!-- 0.0 -->
      <g transform="translate(222.77571 275.238437)scale(0.1 -0.1)">
       <use xlink:href="#DejaVuSans-30"/>
       <use x="63.623047" xlink:href="#DejaVuSans-2e"/>
       <use x="95.410156" xlink:href="#DejaVuSans-30"/>
      </g>
     </g>
    </g>
    <g id="xtick_8">
     <g id="line2d_22">
      <path clip-path="url(#p943d69f6ff)" d="M 433.636364 260.64 
L 433.636364 181.44 
" style="fill:none;stroke:#b0b0b0;stroke-linecap:square;stroke-width:0.8;"/>
     </g>
     <g id="line2d_23">
      <g>
       <use style="stroke:#000000;stroke-width:0.8;" x="433.636364" xlink:href="#mda04939b84" y="260.64"/>
      </g>
     </g>
     <g id="text_12">
      <!-- 0.2 -->
      <g transform="translate(425.684801 275.238437)scale(0.1 -0.1)">
       <use xlink:href="#DejaVuSans-30"/>
       <use x="63.623047" xlink:href="#DejaVuSans-2e"/>
       <use x="95.410156" xlink:href="#DejaVuSans-32"/>
      </g>
     </g>
    </g>
    <g id="xtick_9">
     <g id="line2d_24">
      <path clip-path="url(#p943d69f6ff)" d="M 636.545455 260.64 
L 636.545455 181.44 
" style="fill:none;stroke:#b0b0b0;stroke-linecap:square;stroke-width:0.8;"/>
     </g>
     <g id="line2d_25">
      <g>
       <use style="stroke:#000000;stroke-width:0.8;" x="636.545455" xlink:href="#mda04939b84" y="260.64"/>
      </g>
     </g>
     <g id="text_13">
      <!-- 0.4 -->
      <g transform="translate(628.593892 275.238437)scale(0.1 -0.1)">
       <use xlink:href="#DejaVuSans-30"/>
       <use x="63.623047" xlink:href="#DejaVuSans-2e"/>
       <use x="95.410156" xlink:href="#DejaVuSans-34"/>
      </g>
     </g>
    </g>
    <g id="xtick_10">
     <g id="line2d_26">
      <path clip-path="url(#p943d69f6ff)" d="M 839.454545 260.64 
L 839.454545 181.44 
" style="fill:none;stroke:#b0b0b0;stroke-linecap:square;stroke-width:0.8;"/>
     </g>
     <g id="line2d_27">
      <g>
       <use style="stroke:#000000;stroke-width:0.8;" x="839.454545" xlink:href="#mda04939b84" y="260.64"/>
      </g>
     </g>
     <g id="text_14">
      <!-- 0.6 -->
      <g transform="translate(831.502983 275.238437)scale(0.1 -0.1)">
       <use xlink:href="#DejaVuSans-30"/>
       <use x="63.623047" xlink:href="#DejaVuSans-2e"/>
       <use x="95.410156" xlink:href="#DejaVuSans-36"/>
      </g>
     </g>
    </g>
    <g id="xtick_11">
     <g id="line2d_28">
      <path clip-path="url(#p943d69f6ff)" d="M 1042.363636 260.64 
L 1042.363636 181.44 
" style="fill:none;stroke:#b0b0b0;stroke-linecap:square;stroke-width:0.8;"/>
     </g>
     <g id="line2d_29">
      <g>
       <use style="stroke:#000000;stroke-width:0.8;" x="1042.363636" xlink:href="#mda04939b84" y="260.64"/>
      </g>
     </g>
     <g id="text_15">
      <!-- 0.8 -->
      <g transform="translate(1034.412074 275.238437)scale(0.1 -0.1)">
       <use xlink:href="#DejaVuSans-30"/>
       <use x="63.623047" xlink:href="#DejaVuSans-2e"/>
       <use x="95.410156" xlink:href="#DejaVuSans-38"/>
      </g>
     </g>
    </g>
    <g id="xtick_12">
     <g id="line2d_30">
      <path clip-path="url(#p943d69f6ff)" d="M 1245.272727 260.64 
L 1245.272727 181.44 
" style="fill:none;stroke:#b0b0b0;stroke-linecap:square;stroke-width:0.8;"/>
     </g>
     <g id="line2d_31">
      <g>
       <use style="stroke:#000000;stroke-width:0.8;" x="1245.272727" xlink:href="#mda04939b84" y="260.64"/>
      </g>
     </g>
     <g id="text_16">
      <!-- 1.0 -->
      <g transform="translate(1237.321165 275.238437)scale(0.1 -0.1)">
       <use xlink:href="#DejaVuSans-31"/>
       <use x="63.623047" xlink:href="#DejaVuSans-2e"/>
       <use x="95.410156" xlink:href="#DejaVuSans-30"/>
      </g>
     </g>
    </g>
   </g>
   <g id="matplotlib.axis_4">
    <g id="ytick_3">
     <g id="line2d_32">
      <path clip-path="url(#p943d69f6ff)" d="M 180 228.356274 
L 1296 228.356274 
" style="fill:none;stroke:#b0b0b0;stroke-linecap:square;stroke-width:0.8;"/>
     </g>
     <g id="line2d_33">
      <g>
       <use style="stroke:#000000;stroke-width:0.8;" x="180" xlink:href="#mc6f8972b0c" y="228.356274"/>
      </g>
     </g>
     <g id="text_17">
      <!-- 2 -->
      <g transform="translate(166.6375 232.155493)scale(0.1 -0.1)">
       <use xlink:href="#DejaVuSans-32"/>
      </g>
     </g>
    </g>
    <g id="ytick_4">
     <g id="line2d_34">
      <path clip-path="url(#p943d69f6ff)" d="M 180 195.329546 
L 1296 195.329546 
" style="fill:none;stroke:#b0b0b0;stroke-linecap:square;stroke-width:0.8;"/>
     </g>
     <g id="line2d_35">
      <g>
       <use style="stroke:#000000;stroke-width:0.8;" x="180" xlink:href="#mc6f8972b0c" y="195.329546"/>
      </g>
     </g>
     <g id="text_18">
      <!-- 4 -->
      <g transform="translate(166.6375 199.128765)scale(0.1 -0.1)">
       <use xlink:href="#DejaVuSans-34"/>
      </g>
     </g>
    </g>
    <g id="text_19">
     <!-- 1e−12 -->
     <g transform="translate(180 178.44)scale(0.1 -0.1)">
      <use xlink:href="#DejaVuSans-31"/>
      <use x="63.623047" xlink:href="#DejaVuSans-65"/>
      <use x="125.146484" xlink:href="#DejaVuSans-2212"/>
      <use x="208.935547" xlink:href="#DejaVuSans-31"/>
      <use x="272.558594" xlink:href="#DejaVuSans-32"/>
     </g>
    </g>
   </g>
   <g id="line2d_36">
    <path clip-path="url(#p943d69f6ff)" d="M 230.727273 257.04 
L 485.358289 256.941236 
L 521.165775 256.734806 
L 545.037433 256.393491 
L 560.951872 255.975067 
L 572.887701 255.493435 
L 584.823529 254.797405 
L 592.780749 254.170352 
L 600.737968 253.372555 
L 608.695187 252.360442 
L 616.652406 251.081172 
L 624.609626 249.471855 
L 632.566845 247.45955 
L 636.545455 246.27705 
L 640.524064 244.962726 
L 644.502674 243.505679 
L 648.481283 241.895149 
L 652.459893 240.120863 
L 656.438503 238.173474 
L 660.417112 236.045103 
L 664.395722 233.729984 
L 668.374332 231.22523 
L 672.352941 228.531682 
L 676.331551 225.654854 
L 680.31016 222.605907 
L 688.26738 216.070285 
L 708.160428 198.942228 
L 712.139037 195.828107 
L 716.117647 192.979573 
L 720.096257 190.469233 
L 724.074866 188.365538 
L 728.053476 186.729074 
L 732.032086 185.609003 
L 736.010695 185.04 
L 739.989305 185.04 
L 743.967914 185.609003 
L 747.946524 186.729074 
L 751.925134 188.365538 
L 755.903743 190.469233 
L 759.882353 192.979573 
L 763.860963 195.828107 
L 767.839572 198.942228 
L 775.796791 205.676862 
L 787.73262 216.070285 
L 795.68984 222.605907 
L 799.668449 225.654854 
L 803.647059 228.531682 
L 807.625668 231.22523 
L 811.604278 233.729984 
L 815.582888 236.045103 
L 819.561497 238.173474 
L 823.540107 240.120863 
L 827.518717 241.895149 
L 831.497326 243.505679 
L 835.475936 244.962726 
L 839.454545 246.27705 
L 843.433155 247.45955 
L 851.390374 249.471855 
L 859.347594 251.081172 
L 867.304813 252.360442 
L 875.262032 253.372555 
L 883.219251 254.170352 
L 895.15508 255.058261 
L 907.090909 255.674113 
L 923.005348 256.210097 
L 942.898396 256.595704 
L 970.748663 256.855113 
L 1014.513369 256.993485 
L 1125.914439 257.038646 
L 1245.272727 257.04 
L 1245.272727 257.04 
" style="fill:none;stroke:#1f77b4;stroke-linecap:square;stroke-width:1.5;"/>
   </g>
   <g id="patch_9">
    <path d="M 180 260.64 
L 180 181.44 
" style="fill:none;stroke:#000000;stroke-linecap:square;stroke-linejoin:miter;stroke-width:0.8;"/>
   </g>
   <g id="patch_10">
    <path d="M 1296 260.64 
L 1296 181.44 
" style="fill:none;stroke:#000000;stroke-linecap:square;stroke-linejoin:miter;stroke-width:0.8;"/>
   </g>
   <g id="patch_11">
    <path d="M 180 260.64 
L 1296 260.64 
" style="fill:none;stroke:#000000;stroke-linecap:square;stroke-linejoin:miter;stroke-width:0.8;"/>
   </g>
   <g id="patch_12">
    <path d="M 180 181.44 
L 1296 181.44 
" style="fill:none;stroke:#000000;stroke-linecap:square;stroke-linejoin:miter;stroke-width:0.8;"/>
   </g>
   <g id="legend_2">
    <g id="patch_13">
     <path d="M 1229.096875 204.39625 
L 1289 204.39625 
Q 1291 204.39625 1291 202.39625 
L 1291 188.44 
Q 1291 186.44 1289 186.44 
L 1229.096875 186.44 
Q 1227.096875 186.44 1227.096875 188.44 
L 1227.096875 202.39625 
Q 1227.096875 204.39625 1229.096875 204.39625 
z
" style="fill:#ffffff;opacity:0.8;stroke:#cccccc;stroke-linejoin:miter;"/>
    </g>
    <g id="line2d_37">
     <path d="M 1231.096875 194.538437 
L 1251.096875 194.538437 
" style="fill:none;stroke:#1f77b4;stroke-linecap:square;stroke-width:1.5;"/>
    </g>
    <g id="line2d_38"/>
    <g id="text_20">
     <!-- rho_n -->
     <defs>
      <path d="M 54.890625 33.015625 
L 54.890625 0 
L 45.90625 0 
L 45.90625 32.71875 
Q 45.90625 40.484375 42.875 44.328125 
Q 39.84375 48.1875 33.796875 48.1875 
Q 26.515625 48.1875 22.3125 43.546875 
Q 18.109375 38.921875 18.109375 30.90625 
L 18.109375 0 
L 9.078125 0 
L 9.078125 54.6875 
L 18.109375 54.6875 
L 18.109375 46.1875 
Q 21.34375 51.125 25.703125 53.5625 
Q 30.078125 56 35.796875 56 
Q 45.21875 56 50.046875 50.171875 
Q 54.890625 44.34375 54.890625 33.015625 
" id="DejaVuSans-6e"/>
     </defs>
     <g transform="translate(1259.096875 198.038437)scale(0.1 -0.1)">
      <use xlink:href="#DejaVuSans-72"/>
      <use x="41.097656" xlink:href="#DejaVuSans-68"/>
      <use x="104.476562" xlink:href="#DejaVuSans-6f"/>
      <use x="165.658203" xlink:href="#DejaVuSans-5f"/>
      <use x="215.658203" xlink:href="#DejaVuSans-6e"/>
     </g>
    </g>
   </g>
  </g>
  <g id="axes_3">
   <g id="patch_14">
    <path d="M 180 355.68 
L 1296 355.68 
L 1296 276.48 
L 180 276.48 
z
" style="fill:#ffffff;"/>
   </g>
   <g id="matplotlib.axis_5">
    <g id="xtick_13">
     <g id="line2d_39">
      <path clip-path="url(#pcbf64ae6c5)" d="M 230.727273 355.68 
L 230.727273 276.48 
" style="fill:none;stroke:#b0b0b0;stroke-linecap:square;stroke-width:0.8;"/>
     </g>
     <g id="line2d_40">
      <g>
       <use style="stroke:#000000;stroke-width:0.8;" x="230.727273" xlink:href="#mda04939b84" y="355.68"/>
      </g>
     </g>
     <g id="text_21">
      <!-- 0.0 -->
      <g transform="translate(222.77571 370.278437)scale(0.1 -0.1)">
       <use xlink:href="#DejaVuSans-30"/>
       <use x="63.623047" xlink:href="#DejaVuSans-2e"/>
       <use x="95.410156" xlink:href="#DejaVuSans-30"/>
      </g>
     </g>
    </g>
    <g id="xtick_14">
     <g id="line2d_41">
      <path clip-path="url(#pcbf64ae6c5)" d="M 433.636364 355.68 
L 433.636364 276.48 
" style="fill:none;stroke:#b0b0b0;stroke-linecap:square;stroke-width:0.8;"/>
     </g>
     <g id="line2d_42">
      <g>
       <use style="stroke:#000000;stroke-width:0.8;" x="433.636364" xlink:href="#mda04939b84" y="355.68"/>
      </g>
     </g>
     <g id="text_22">
      <!-- 0.2 -->
      <g transform="translate(425.684801 370.278437)scale(0.1 -0.1)">
       <use xlink:href="#DejaVuSans-30"/>
       <use x="63.623047" xlink:href="#DejaVuSans-2e"/>
       <use x="95.410156" xlink:href="#DejaVuSans-32"/>
      </g>
     </g>
    </g>
    <g id="xtick_15">
     <g id="line2d_43">
      <path clip-path="url(#pcbf64ae6c5)" d="M 636.545455 355.68 
L 636.545455 276.48 
" style="fill:none;stroke:#b0b0b0;stroke-linecap:square;stroke-width:0.8;"/>
     </g>
     <g id="line2d_44">
      <g>
       <use style="stroke:#000000;stroke-width:0.8;" x="636.545455" xlink:href="#mda04939b84" y="355.68"/>
      </g>
     </g>
     <g id="text_23">
      <!-- 0.4 -->
      <g transform="translate(628.593892 370.278437)scale(0.1 -0.1)">
       <use xlink:href="#DejaVuSans-30"/>
       <use x="63.623047" xlink:href="#DejaVuSans-2e"/>
       <use x="95.410156" xlink:href="#DejaVuSans-34"/>
      </g>
     </g>
    </g>
    <g id="xtick_16">
     <g id="line2d_45">
      <path clip-path="url(#pcbf64ae6c5)" d="M 839.454545 355.68 
L 839.454545 276.48 
" style="fill:none;stroke:#b0b0b0;stroke-linecap:square;stroke-width:0.8;"/>
     </g>
     <g id="line2d_46">
      <g>
       <use style="stroke:#000000;stroke-width:0.8;" x="839.454545" xlink:href="#mda04939b84" y="355.68"/>
      </g>
     </g>
     <g id="text_24">
      <!-- 0.6 -->
      <g transform="translate(831.502983 370.278437)scale(0.1 -0.1)">
       <use xlink:href="#DejaVuSans-30"/>
       <use x="63.623047" xlink:href="#DejaVuSans-2e"/>
       <use x="95.410156" xlink:href="#DejaVuSans-36"/>
      </g>
     </g>
    </g>
    <g id="xtick_17">
     <g id="line2d_47">
      <path clip-path="url(#pcbf64ae6c5)" d="M 1042.363636 355.68 
L 1042.363636 276.48 
" style="fill:none;stroke:#b0b0b0;stroke-linecap:square;stroke-width:0.8;"/>
     </g>
     <g id="line2d_48">
      <g>
       <use style="stroke:#000000;stroke-width:0.8;" x="1042.363636" xlink:href="#mda04939b84" y="355.68"/>
      </g>
     </g>
     <g id="text_25">
      <!-- 0.8 -->
      <g transform="translate(1034.412074 370.278437)scale(0.1 -0.1)">
       <use xlink:href="#DejaVuSans-30"/>
       <use x="63.623047" xlink:href="#DejaVuSans-2e"/>
       <use x="95.410156" xlink:href="#DejaVuSans-38"/>
      </g>
     </g>
    </g>
    <g id="xtick_18">
     <g id="line2d_49">
      <path clip-path="url(#pcbf64ae6c5)" d="M 1245.272727 355.68 
L 1245.272727 276.48 
" style="fill:none;stroke:#b0b0b0;stroke-linecap:square;stroke-width:0.8;"/>
     </g>
     <g id="line2d_50">
      <g>
       <use style="stroke:#000000;stroke-width:0.8;" x="1245.272727" xlink:href="#mda04939b84" y="355.68"/>
      </g>
     </g>
     <g id="text_26">
      <!-- 1.0 -->
      <g transform="translate(1237.321165 370.278437)scale(0.1 -0.1)">
       <use xlink:href="#DejaVuSans-31"/>
       <use x="63.623047" xlink:href="#DejaVuSans-2e"/>
       <use x="95.410156" xlink:href="#DejaVuSans-30"/>
      </g>
     </g>
    </g>
   </g>
   <g id="matplotlib.axis_6">
    <g id="ytick_5">
     <g id="line2d_51">
      <path clip-path="url(#pcbf64ae6c5)" d="M 180 349.511728 
L 1296 349.511728 
" style="fill:none;stroke:#b0b0b0;stroke-linecap:square;stroke-width:0.8;"/>
     </g>
     <g id="line2d_52">
      <g>
       <use style="stroke:#000000;stroke-width:0.8;" x="180" xlink:href="#mc6f8972b0c" y="349.511728"/>
      </g>
     </g>
     <g id="text_27">
      <!-- −0.1 -->
      <g transform="translate(148.717187 353.310947)scale(0.1 -0.1)">
       <use xlink:href="#DejaVuSans-2212"/>
       <use x="83.789062" xlink:href="#DejaVuSans-30"/>
       <use x="147.412109" xlink:href="#DejaVuSans-2e"/>
       <use x="179.199219" xlink:href="#DejaVuSans-31"/>
      </g>
     </g>
    </g>
    <g id="ytick_6">
     <g id="line2d_53">
      <path clip-path="url(#pcbf64ae6c5)" d="M 180 316.08 
L 1296 316.08 
" style="fill:none;stroke:#b0b0b0;stroke-linecap:square;stroke-width:0.8;"/>
     </g>
     <g id="line2d_54">
      <g>
       <use style="stroke:#000000;stroke-width:0.8;" x="180" xlink:href="#mc6f8972b0c" y="316.08"/>
      </g>
     </g>
     <g id="text_28">
      <!-- 0.0 -->
      <g transform="translate(157.096875 319.879219)scale(0.1 -0.1)">
       <use xlink:href="#DejaVuSans-30"/>
       <use x="63.623047" xlink:href="#DejaVuSans-2e"/>
       <use x="95.410156" xlink:href="#DejaVuSans-30"/>
      </g>
     </g>
    </g>
    <g id="ytick_7">
     <g id="line2d_55">
      <path clip-path="url(#pcbf64ae6c5)" d="M 180 282.648272 
L 1296 282.648272 
" style="fill:none;stroke:#b0b0b0;stroke-linecap:square;stroke-width:0.8;"/>
     </g>
     <g id="line2d_56">
      <g>
       <use style="stroke:#000000;stroke-width:0.8;" x="180" xlink:href="#mc6f8972b0c" y="282.648272"/>
      </g>
     </g>
     <g id="text_29">
      <!-- 0.1 -->
      <g transform="translate(157.096875 286.44749)scale(0.1 -0.1)">
       <use xlink:href="#DejaVuSans-30"/>
       <use x="63.623047" xlink:href="#DejaVuSans-2e"/>
       <use x="95.410156" xlink:href="#DejaVuSans-31"/>
      </g>
     </g>
    </g>
   </g>
   <g id="line2d_57">
    <path clip-path="url(#pcbf64ae6c5)" d="M 230.727273 316.079987 
L 493.315508 315.967863 
L 529.122995 315.733764 
L 552.994652 315.347311 
L 568.909091 314.87461 
L 580.84492 314.331974 
L 592.780749 313.550643 
L 600.737968 312.849724 
L 608.695187 311.962183 
L 616.652406 310.843319 
L 624.609626 309.441077 
L 632.566845 307.697261 
L 640.524064 305.551044 
L 644.502674 304.309021 
L 648.481283 302.946413 
L 652.459893 301.459234 
L 656.438503 299.846044 
L 664.395722 296.255044 
L 672.352941 292.258661 
L 684.28877 286.040173 
L 688.26738 284.13673 
L 692.245989 282.463879 
L 696.224599 281.138193 
L 700.203209 280.294255 
L 704.181818 280.08 
L 708.160428 280.64794 
L 712.139037 282.141482 
L 716.117647 284.676329 
L 720.096257 288.318291 
L 724.074866 293.060757 
L 728.053476 298.806934 
L 732.032086 305.36291 
L 743.967914 326.79709 
L 747.946524 333.353066 
L 751.925134 339.099243 
L 755.903743 343.841709 
L 759.882353 347.483671 
L 763.860963 350.018518 
L 767.839572 351.51206 
L 771.818182 352.08 
L 775.796791 351.865745 
L 779.775401 351.021807 
L 783.754011 349.696121 
L 787.73262 348.02327 
L 791.71123 346.119827 
L 811.604278 335.904956 
L 819.561497 332.313956 
L 823.540107 330.700766 
L 827.518717 329.213587 
L 831.497326 327.850979 
L 839.454545 325.48181 
L 847.411765 323.544332 
L 855.368984 321.97886 
L 863.326203 320.725246 
L 871.283422 319.728101 
L 879.240642 318.93899 
L 891.176471 318.0577 
L 903.112299 317.444645 
L 919.026738 316.909951 
L 938.919786 316.524635 
L 966.770053 316.265129 
L 1010.534759 316.126612 
L 1121.935829 316.081389 
L 1245.272727 316.080015 
L 1245.272727 316.080015 
" style="fill:none;stroke:#1f77b4;stroke-linecap:square;stroke-width:1.5;"/>
   </g>
   <g id="patch_15">
    <path d="M 180 355.68 
L 180 276.48 
" style="fill:none;stroke:#000000;stroke-linecap:square;stroke-linejoin:miter;stroke-width:0.8;"/>
   </g>
   <g id="patch_16">
    <path d="M 1296 355.68 
L 1296 276.48 
" style="fill:none;stroke:#000000;stroke-linecap:square;stroke-linejoin:miter;stroke-width:0.8;"/>
   </g>
   <g id="patch_17">
    <path d="M 180 355.68 
L 1296 355.68 
" style="fill:none;stroke:#000000;stroke-linecap:square;stroke-linejoin:miter;stroke-width:0.8;"/>
   </g>
   <g id="patch_18">
    <path d="M 180 276.48 
L 1296 276.48 
" style="fill:none;stroke:#000000;stroke-linecap:square;stroke-linejoin:miter;stroke-width:0.8;"/>
   </g>
   <g id="legend_3">
    <g id="patch_19">
     <path d="M 1234.664062 299.43625 
L 1289 299.43625 
Q 1291 299.43625 1291 297.43625 
L 1291 283.48 
Q 1291 281.48 1289 281.48 
L 1234.664062 281.48 
Q 1232.664062 281.48 1232.664062 283.48 
L 1232.664062 297.43625 
Q 1232.664062 299.43625 1234.664062 299.43625 
z
" style="fill:#ffffff;opacity:0.8;stroke:#cccccc;stroke-linejoin:miter;"/>
    </g>
    <g id="line2d_58">
     <path d="M 1236.664062 289.578438 
L 1256.664062 289.578438 
" style="fill:none;stroke:#1f77b4;stroke-linecap:square;stroke-width:1.5;"/>
    </g>
    <g id="line2d_59"/>
    <g id="text_30">
     <!-- vy_c -->
     <defs>
      <path d="M 2.984375 54.6875 
L 12.5 54.6875 
L 29.59375 8.796875 
L 46.6875 54.6875 
L 56.203125 54.6875 
L 35.6875 0 
L 23.484375 0 
z
" id="DejaVuSans-76"/>
      <path d="M 32.171875 -5.078125 
Q 28.375 -14.84375 24.75 -17.8125 
Q 21.140625 -20.796875 15.09375 -20.796875 
L 7.90625 -20.796875 
L 7.90625 -13.28125 
L 13.1875 -13.28125 
Q 16.890625 -13.28125 18.9375 -11.515625 
Q 21 -9.765625 23.484375 -3.21875 
L 25.09375 0.875 
L 2.984375 54.6875 
L 12.5 54.6875 
L 29.59375 11.921875 
L 46.6875 54.6875 
L 56.203125 54.6875 
z
" id="DejaVuSans-79"/>
     </defs>
     <g transform="translate(1264.664062 293.078438)scale(0.1 -0.1)">
      <use xlink:href="#DejaVuSans-76"/>
      <use x="59.179688" xlink:href="#DejaVuSans-79"/>
      <use x="118.359375" xlink:href="#DejaVuSans-5f"/>
      <use x="168.359375" xlink:href="#DejaVuSans-63"/>
     </g>
    </g>
   </g>
  </g>
  <g id="axes_4">
   <g id="patch_20">
    <path d="M 180 450.72 
L 1296 450.72 
L 1296 371.52 
L 180 371.52 
z
" style="fill:#ffffff;"/>
   </g>
   <g id="matplotlib.axis_7">
    <g id="xtick_19">
     <g id="line2d_60">
      <path clip-path="url(#pcb02f4b9d0)" d="M 230.727273 450.72 
L 230.727273 371.52 
" style="fill:none;stroke:#b0b0b0;stroke-linecap:square;stroke-width:0.8;"/>
     </g>
     <g id="line2d_61">
      <g>
       <use style="stroke:#000000;stroke-width:0.8;" x="230.727273" xlink:href="#mda04939b84" y="450.72"/>
      </g>
     </g>
     <g id="text_31">
      <!-- 0.0 -->
      <g transform="translate(222.77571 465.318438)scale(0.1 -0.1)">
       <use xlink:href="#DejaVuSans-30"/>
       <use x="63.623047" xlink:href="#DejaVuSans-2e"/>
       <use x="95.410156" xlink:href="#DejaVuSans-30"/>
      </g>
     </g>
    </g>
    <g id="xtick_20">
     <g id="line2d_62">
      <path clip-path="url(#pcb02f4b9d0)" d="M 433.636364 450.72 
L 433.636364 371.52 
" style="fill:none;stroke:#b0b0b0;stroke-linecap:square;stroke-width:0.8;"/>
     </g>
     <g id="line2d_63">
      <g>
       <use style="stroke:#000000;stroke-width:0.8;" x="433.636364" xlink:href="#mda04939b84" y="450.72"/>
      </g>
     </g>
     <g id="text_32">
      <!-- 0.2 -->
      <g transform="translate(425.684801 465.318438)scale(0.1 -0.1)">
       <use xlink:href="#DejaVuSans-30"/>
       <use x="63.623047" xlink:href="#DejaVuSans-2e"/>
       <use x="95.410156" xlink:href="#DejaVuSans-32"/>
      </g>
     </g>
    </g>
    <g id="xtick_21">
     <g id="line2d_64">
      <path clip-path="url(#pcb02f4b9d0)" d="M 636.545455 450.72 
L 636.545455 371.52 
" style="fill:none;stroke:#b0b0b0;stroke-linecap:square;stroke-width:0.8;"/>
     </g>
     <g id="line2d_65">
      <g>
       <use style="stroke:#000000;stroke-width:0.8;" x="636.545455" xlink:href="#mda04939b84" y="450.72"/>
      </g>
     </g>
     <g id="text_33">
      <!-- 0.4 -->
      <g transform="translate(628.593892 465.318438)scale(0.1 -0.1)">
       <use xlink:href="#DejaVuSans-30"/>
       <use x="63.623047" xlink:href="#DejaVuSans-2e"/>
       <use x="95.410156" xlink:href="#DejaVuSans-34"/>
      </g>
     </g>
    </g>
    <g id="xtick_22">
     <g id="line2d_66">
      <path clip-path="url(#pcb02f4b9d0)" d="M 839.454545 450.72 
L 839.454545 371.52 
" style="fill:none;stroke:#b0b0b0;stroke-linecap:square;stroke-width:0.8;"/>
     </g>
     <g id="line2d_67">
      <g>
       <use style="stroke:#000000;stroke-width:0.8;" x="839.454545" xlink:href="#mda04939b84" y="450.72"/>
      </g>
     </g>
     <g id="text_34">
      <!-- 0.6 -->
      <g transform="translate(831.502983 465.318438)scale(0.1 -0.1)">
       <use xlink:href="#DejaVuSans-30"/>
       <use x="63.623047" xlink:href="#DejaVuSans-2e"/>
       <use x="95.410156" xlink:href="#DejaVuSans-36"/>
      </g>
     </g>
    </g>
    <g id="xtick_23">
     <g id="line2d_68">
      <path clip-path="url(#pcb02f4b9d0)" d="M 1042.363636 450.72 
L 1042.363636 371.52 
" style="fill:none;stroke:#b0b0b0;stroke-linecap:square;stroke-width:0.8;"/>
     </g>
     <g id="line2d_69">
      <g>
       <use style="stroke:#000000;stroke-width:0.8;" x="1042.363636" xlink:href="#mda04939b84" y="450.72"/>
      </g>
     </g>
     <g id="text_35">
      <!-- 0.8 -->
      <g transform="translate(1034.412074 465.318438)scale(0.1 -0.1)">
       <use xlink:href="#DejaVuSans-30"/>
       <use x="63.623047" xlink:href="#DejaVuSans-2e"/>
       <use x="95.410156" xlink:href="#DejaVuSans-38"/>
      </g>
     </g>
    </g>
    <g id="xtick_24">
     <g id="line2d_70">
      <path clip-path="url(#pcb02f4b9d0)" d="M 1245.272727 450.72 
L 1245.272727 371.52 
" style="fill:none;stroke:#b0b0b0;stroke-linecap:square;stroke-width:0.8;"/>
     </g>
     <g id="line2d_71">
      <g>
       <use style="stroke:#000000;stroke-width:0.8;" x="1245.272727" xlink:href="#mda04939b84" y="450.72"/>
      </g>
     </g>
     <g id="text_36">
      <!-- 1.0 -->
      <g transform="translate(1237.321165 465.318438)scale(0.1 -0.1)">
       <use xlink:href="#DejaVuSans-31"/>
       <use x="63.623047" xlink:href="#DejaVuSans-2e"/>
       <use x="95.410156" xlink:href="#DejaVuSans-30"/>
      </g>
     </g>
    </g>
   </g>
   <g id="matplotlib.axis_8">
    <g id="ytick_8">
     <g id="line2d_72">
      <path clip-path="url(#pcb02f4b9d0)" d="M 180 436.268572 
L 1296 436.268572 
" style="fill:none;stroke:#b0b0b0;stroke-linecap:square;stroke-width:0.8;"/>
     </g>
     <g id="line2d_73">
      <g>
       <use style="stroke:#000000;stroke-width:0.8;" x="180" xlink:href="#mc6f8972b0c" y="436.268572"/>
      </g>
     </g>
     <g id="text_37">
      <!-- −0.00005 -->
      <defs>
       <path d="M 10.796875 72.90625 
L 49.515625 72.90625 
L 49.515625 64.59375 
L 19.828125 64.59375 
L 19.828125 46.734375 
Q 21.96875 47.46875 24.109375 47.828125 
Q 26.265625 48.1875 28.421875 48.1875 
Q 40.625 48.1875 47.75 41.5 
Q 54.890625 34.8125 54.890625 23.390625 
Q 54.890625 11.625 47.5625 5.09375 
Q 40.234375 -1.421875 26.90625 -1.421875 
Q 22.3125 -1.421875 17.546875 -0.640625 
Q 12.796875 0.140625 7.71875 1.703125 
L 7.71875 11.625 
Q 12.109375 9.234375 16.796875 8.0625 
Q 21.484375 6.890625 26.703125 6.890625 
Q 35.15625 6.890625 40.078125 11.328125 
Q 45.015625 15.765625 45.015625 23.390625 
Q 45.015625 31 40.078125 35.4375 
Q 35.15625 39.890625 26.703125 39.890625 
Q 22.75 39.890625 18.8125 39.015625 
Q 14.890625 38.140625 10.796875 36.28125 
z
" id="DejaVuSans-35"/>
      </defs>
      <g transform="translate(123.267188 440.06779)scale(0.1 -0.1)">
       <use xlink:href="#DejaVuSans-2212"/>
       <use x="83.789062" xlink:href="#DejaVuSans-30"/>
       <use x="147.412109" xlink:href="#DejaVuSans-2e"/>
       <use x="179.199219" xlink:href="#DejaVuSans-30"/>
       <use x="242.822266" xlink:href="#DejaVuSans-30"/>
       <use x="306.445312" xlink:href="#DejaVuSans-30"/>
       <use x="370.068359" xlink:href="#DejaVuSans-30"/>
       <use x="433.691406" xlink:href="#DejaVuSans-35"/>
      </g>
     </g>
    </g>
    <g id="ytick_9">
     <g id="line2d_74">
      <path clip-path="url(#pcb02f4b9d0)" d="M 180 411.120001 
L 1296 411.120001 
" style="fill:none;stroke:#b0b0b0;stroke-linecap:square;stroke-width:0.8;"/>
     </g>
     <g id="line2d_75">
      <g>
       <use style="stroke:#000000;stroke-width:0.8;" x="180" xlink:href="#mc6f8972b0c" y="411.120001"/>
      </g>
     </g>
     <g id="text_38">
      <!-- 0.00000 -->
      <g transform="translate(131.646875 414.919219)scale(0.1 -0.1)">
       <use xlink:href="#DejaVuSans-30"/>
       <use x="63.623047" xlink:href="#DejaVuSans-2e"/>
       <use x="95.410156" xlink:href="#DejaVuSans-30"/>
       <use x="159.033203" xlink:href="#DejaVuSans-30"/>
       <use x="222.65625" xlink:href="#DejaVuSans-30"/>
       <use x="286.279297" xlink:href="#DejaVuSans-30"/>
       <use x="349.902344" xlink:href="#DejaVuSans-30"/>
      </g>
     </g>
    </g>
    <g id="ytick_10">
     <g id="line2d_76">
      <path clip-path="url(#pcb02f4b9d0)" d="M 180 385.97143 
L 1296 385.97143 
" style="fill:none;stroke:#b0b0b0;stroke-linecap:square;stroke-width:0.8;"/>
     </g>
     <g id="line2d_77">
      <g>
       <use style="stroke:#000000;stroke-width:0.8;" x="180" xlink:href="#mc6f8972b0c" y="385.97143"/>
      </g>
     </g>
     <g id="text_39">
      <!-- 0.00005 -->
      <g transform="translate(131.646875 389.770649)scale(0.1 -0.1)">
       <use xlink:href="#DejaVuSans-30"/>
       <use x="63.623047" xlink:href="#DejaVuSans-2e"/>
       <use x="95.410156" xlink:href="#DejaVuSans-30"/>
       <use x="159.033203" xlink:href="#DejaVuSans-30"/>
       <use x="222.65625" xlink:href="#DejaVuSans-30"/>
       <use x="286.279297" xlink:href="#DejaVuSans-30"/>
       <use x="349.902344" xlink:href="#DejaVuSans-35"/>
      </g>
     </g>
    </g>
   </g>
   <g id="line2d_78">
    <path clip-path="url(#pcb02f4b9d0)" d="M 230.727273 411.120021 
L 481.379679 411.232791 
L 517.187166 411.467955 
L 541.058824 411.855555 
L 556.973262 412.328836 
L 568.909091 412.870989 
L 580.84492 413.649453 
L 588.802139 414.34562 
L 596.759358 415.224247 
L 604.716578 416.327273 
L 612.673797 417.702557 
L 620.631016 419.402077 
L 628.588235 421.477916 
L 636.545455 423.974883 
L 644.502674 426.917931 
L 652.459893 430.293265 
L 660.417112 434.021573 
L 676.331551 441.694129 
L 680.31016 443.388667 
L 684.28877 444.862453 
L 688.26738 446.034162 
L 692.245989 446.816527 
L 696.224599 447.12 
L 700.203209 446.857723 
L 704.181818 445.9515 
L 708.160428 444.338636 
L 712.139037 441.979144 
L 716.117647 438.86243 
L 720.096257 435.012597 
L 724.074866 430.491603 
L 728.053476 425.399441 
L 732.032086 419.870767 
L 747.946524 396.840561 
L 751.925134 391.748399 
L 755.903743 387.227404 
L 759.882353 383.377571 
L 763.860963 380.260858 
L 767.839572 377.901365 
L 771.818182 376.288502 
L 775.796791 375.382279 
L 779.775401 375.12 
L 783.754011 375.423476 
L 787.73262 376.20584 
L 791.71123 377.377547 
L 795.68984 378.851335 
L 799.668449 380.545874 
L 807.625668 384.314756 
L 819.561497 390.118331 
L 827.518717 393.685375 
L 835.475936 396.849677 
L 843.433155 399.568456 
L 851.390374 401.850131 
L 859.347594 403.731538 
L 867.304813 405.262299 
L 875.262032 406.495162 
L 883.219251 407.480346 
L 891.176471 408.262896 
L 903.112299 409.13992 
L 915.048128 409.751928 
L 930.962567 410.286991 
L 950.855615 410.673301 
L 978.705882 410.933825 
L 1022.470588 411.073129 
L 1133.871658 411.118599 
L 1245.272727 411.119979 
L 1245.272727 411.119979 
" style="fill:none;stroke:#1f77b4;stroke-linecap:square;stroke-width:1.5;"/>
   </g>
   <g id="patch_21">
    <path d="M 180 450.72 
L 180 371.52 
" style="fill:none;stroke:#000000;stroke-linecap:square;stroke-linejoin:miter;stroke-width:0.8;"/>
   </g>
   <g id="patch_22">
    <path d="M 1296 450.72 
L 1296 371.52 
" style="fill:none;stroke:#000000;stroke-linecap:square;stroke-linejoin:miter;stroke-width:0.8;"/>
   </g>
   <g id="patch_23">
    <path d="M 180 450.72 
L 1296 450.72 
" style="fill:none;stroke:#000000;stroke-linecap:square;stroke-linejoin:miter;stroke-width:0.8;"/>
   </g>
   <g id="patch_24">
    <path d="M 180 371.52 
L 1296 371.52 
" style="fill:none;stroke:#000000;stroke-linecap:square;stroke-linejoin:miter;stroke-width:0.8;"/>
   </g>
   <g id="legend_4">
    <g id="patch_25">
     <path d="M 1233.825 394.47625 
L 1289 394.47625 
Q 1291 394.47625 1291 392.47625 
L 1291 378.52 
Q 1291 376.52 1289 376.52 
L 1233.825 376.52 
Q 1231.825 376.52 1231.825 378.52 
L 1231.825 392.47625 
Q 1231.825 394.47625 1233.825 394.47625 
z
" style="fill:#ffffff;opacity:0.8;stroke:#cccccc;stroke-linejoin:miter;"/>
    </g>
    <g id="line2d_79">
     <path d="M 1235.825 384.618437 
L 1255.825 384.618437 
" style="fill:none;stroke:#1f77b4;stroke-linecap:square;stroke-width:1.5;"/>
    </g>
    <g id="line2d_80"/>
    <g id="text_40">
     <!-- vy_n -->
     <g transform="translate(1263.825 388.118437)scale(0.1 -0.1)">
      <use xlink:href="#DejaVuSans-76"/>
      <use x="59.179688" xlink:href="#DejaVuSans-79"/>
      <use x="118.359375" xlink:href="#DejaVuSans-5f"/>
      <use x="168.359375" xlink:href="#DejaVuSans-6e"/>
     </g>
    </g>
   </g>
  </g>
  <g id="axes_5">
   <g id="patch_26">
    <path d="M 180 545.76 
L 1296 545.76 
L 1296 466.56 
L 180 466.56 
z
" style="fill:#ffffff;"/>
   </g>
   <g id="matplotlib.axis_9">
    <g id="xtick_25">
     <g id="line2d_81">
      <path clip-path="url(#p43d475a206)" d="M 230.727273 545.76 
L 230.727273 466.56 
" style="fill:none;stroke:#b0b0b0;stroke-linecap:square;stroke-width:0.8;"/>
     </g>
     <g id="line2d_82">
      <g>
       <use style="stroke:#000000;stroke-width:0.8;" x="230.727273" xlink:href="#mda04939b84" y="545.76"/>
      </g>
     </g>
     <g id="text_41">
      <!-- 0.0 -->
      <g transform="translate(222.77571 560.358438)scale(0.1 -0.1)">
       <use xlink:href="#DejaVuSans-30"/>
       <use x="63.623047" xlink:href="#DejaVuSans-2e"/>
       <use x="95.410156" xlink:href="#DejaVuSans-30"/>
      </g>
     </g>
    </g>
    <g id="xtick_26">
     <g id="line2d_83">
      <path clip-path="url(#p43d475a206)" d="M 433.636364 545.76 
L 433.636364 466.56 
" style="fill:none;stroke:#b0b0b0;stroke-linecap:square;stroke-width:0.8;"/>
     </g>
     <g id="line2d_84">
      <g>
       <use style="stroke:#000000;stroke-width:0.8;" x="433.636364" xlink:href="#mda04939b84" y="545.76"/>
      </g>
     </g>
     <g id="text_42">
      <!-- 0.2 -->
      <g transform="translate(425.684801 560.358438)scale(0.1 -0.1)">
       <use xlink:href="#DejaVuSans-30"/>
       <use x="63.623047" xlink:href="#DejaVuSans-2e"/>
       <use x="95.410156" xlink:href="#DejaVuSans-32"/>
      </g>
     </g>
    </g>
    <g id="xtick_27">
     <g id="line2d_85">
      <path clip-path="url(#p43d475a206)" d="M 636.545455 545.76 
L 636.545455 466.56 
" style="fill:none;stroke:#b0b0b0;stroke-linecap:square;stroke-width:0.8;"/>
     </g>
     <g id="line2d_86">
      <g>
       <use style="stroke:#000000;stroke-width:0.8;" x="636.545455" xlink:href="#mda04939b84" y="545.76"/>
      </g>
     </g>
     <g id="text_43">
      <!-- 0.4 -->
      <g transform="translate(628.593892 560.358438)scale(0.1 -0.1)">
       <use xlink:href="#DejaVuSans-30"/>
       <use x="63.623047" xlink:href="#DejaVuSans-2e"/>
       <use x="95.410156" xlink:href="#DejaVuSans-34"/>
      </g>
     </g>
    </g>
    <g id="xtick_28">
     <g id="line2d_87">
      <path clip-path="url(#p43d475a206)" d="M 839.454545 545.76 
L 839.454545 466.56 
" style="fill:none;stroke:#b0b0b0;stroke-linecap:square;stroke-width:0.8;"/>
     </g>
     <g id="line2d_88">
      <g>
       <use style="stroke:#000000;stroke-width:0.8;" x="839.454545" xlink:href="#mda04939b84" y="545.76"/>
      </g>
     </g>
     <g id="text_44">
      <!-- 0.6 -->
      <g transform="translate(831.502983 560.358438)scale(0.1 -0.1)">
       <use xlink:href="#DejaVuSans-30"/>
       <use x="63.623047" xlink:href="#DejaVuSans-2e"/>
       <use x="95.410156" xlink:href="#DejaVuSans-36"/>
      </g>
     </g>
    </g>
    <g id="xtick_29">
     <g id="line2d_89">
      <path clip-path="url(#p43d475a206)" d="M 1042.363636 545.76 
L 1042.363636 466.56 
" style="fill:none;stroke:#b0b0b0;stroke-linecap:square;stroke-width:0.8;"/>
     </g>
     <g id="line2d_90">
      <g>
       <use style="stroke:#000000;stroke-width:0.8;" x="1042.363636" xlink:href="#mda04939b84" y="545.76"/>
      </g>
     </g>
     <g id="text_45">
      <!-- 0.8 -->
      <g transform="translate(1034.412074 560.358438)scale(0.1 -0.1)">
       <use xlink:href="#DejaVuSans-30"/>
       <use x="63.623047" xlink:href="#DejaVuSans-2e"/>
       <use x="95.410156" xlink:href="#DejaVuSans-38"/>
      </g>
     </g>
    </g>
    <g id="xtick_30">
     <g id="line2d_91">
      <path clip-path="url(#p43d475a206)" d="M 1245.272727 545.76 
L 1245.272727 466.56 
" style="fill:none;stroke:#b0b0b0;stroke-linecap:square;stroke-width:0.8;"/>
     </g>
     <g id="line2d_92">
      <g>
       <use style="stroke:#000000;stroke-width:0.8;" x="1245.272727" xlink:href="#mda04939b84" y="545.76"/>
      </g>
     </g>
     <g id="text_46">
      <!-- 1.0 -->
      <g transform="translate(1237.321165 560.358438)scale(0.1 -0.1)">
       <use xlink:href="#DejaVuSans-31"/>
       <use x="63.623047" xlink:href="#DejaVuSans-2e"/>
       <use x="95.410156" xlink:href="#DejaVuSans-30"/>
      </g>
     </g>
    </g>
   </g>
   <g id="matplotlib.axis_10">
    <g id="ytick_11">
     <g id="line2d_93">
      <path clip-path="url(#p43d475a206)" d="M 180 527.782626 
L 1296 527.782626 
" style="fill:none;stroke:#b0b0b0;stroke-linecap:square;stroke-width:0.8;"/>
     </g>
     <g id="line2d_94">
      <g>
       <use style="stroke:#000000;stroke-width:0.8;" x="180" xlink:href="#mc6f8972b0c" y="527.782626"/>
      </g>
     </g>
     <g id="text_47">
      <!-- 0.000000 -->
      <g transform="translate(125.284375 531.581845)scale(0.1 -0.1)">
       <use xlink:href="#DejaVuSans-30"/>
       <use x="63.623047" xlink:href="#DejaVuSans-2e"/>
       <use x="95.410156" xlink:href="#DejaVuSans-30"/>
       <use x="159.033203" xlink:href="#DejaVuSans-30"/>
       <use x="222.65625" xlink:href="#DejaVuSans-30"/>
       <use x="286.279297" xlink:href="#DejaVuSans-30"/>
       <use x="349.902344" xlink:href="#DejaVuSans-30"/>
       <use x="413.525391" xlink:href="#DejaVuSans-30"/>
      </g>
     </g>
    </g>
    <g id="ytick_12">
     <g id="line2d_95">
      <path clip-path="url(#p43d475a206)" d="M 180 489.080469 
L 1296 489.080469 
" style="fill:none;stroke:#b0b0b0;stroke-linecap:square;stroke-width:0.8;"/>
     </g>
     <g id="line2d_96">
      <g>
       <use style="stroke:#000000;stroke-width:0.8;" x="180" xlink:href="#mc6f8972b0c" y="489.080469"/>
      </g>
     </g>
     <g id="text_48">
      <!-- 0.000002 -->
      <g transform="translate(125.284375 492.879688)scale(0.1 -0.1)">
       <use xlink:href="#DejaVuSans-30"/>
       <use x="63.623047" xlink:href="#DejaVuSans-2e"/>
       <use x="95.410156" xlink:href="#DejaVuSans-30"/>
       <use x="159.033203" xlink:href="#DejaVuSans-30"/>
       <use x="222.65625" xlink:href="#DejaVuSans-30"/>
       <use x="286.279297" xlink:href="#DejaVuSans-30"/>
       <use x="349.902344" xlink:href="#DejaVuSans-30"/>
       <use x="413.525391" xlink:href="#DejaVuSans-32"/>
      </g>
     </g>
    </g>
   </g>
   <g id="line2d_97">
    <path clip-path="url(#p43d475a206)" d="M 230.727273 527.649185 
L 489.336898 527.745596 
L 525.144385 527.951478 
L 549.016043 528.289392 
L 564.930481 528.698339 
L 576.86631 529.16283 
L 588.802139 529.822432 
L 600.737968 530.74712 
L 608.695187 531.551321 
L 616.652406 532.534687 
L 624.609626 533.717387 
L 632.566845 535.107165 
L 640.524064 536.686316 
L 660.417112 540.835024 
L 664.395722 541.478363 
L 668.374332 541.945143 
L 672.352941 542.16 
L 676.331551 542.033177 
L 680.31016 541.459884 
L 684.28877 540.321676 
L 688.26738 538.491131 
L 692.245989 535.840439 
L 696.224599 532.253056 
L 700.203209 527.64292 
L 704.181818 521.978596 
L 708.160428 515.311934 
L 712.139037 507.807948 
L 720.096257 491.63896 
L 724.074866 483.991255 
L 728.053476 477.466306 
L 732.032086 472.688796 
L 736.010695 470.16 
L 739.989305 470.160035 
L 743.967914 472.688725 
L 747.946524 477.466341 
L 751.925134 483.991325 
L 755.903743 491.639101 
L 763.860963 507.807913 
L 767.839572 515.312004 
L 771.818182 521.978666 
L 775.796791 527.64292 
L 779.775401 532.253056 
L 783.754011 535.840439 
L 787.73262 538.491166 
L 791.71123 540.321605 
L 795.68984 541.459954 
L 799.668449 542.033177 
L 803.647059 542.159965 
L 807.625668 541.945143 
L 811.604278 541.478399 
L 815.582888 540.834918 
L 823.540107 539.248164 
L 839.454545 535.875744 
L 847.411765 534.386739 
L 855.368984 533.100165 
L 863.326203 532.019192 
L 871.283422 531.128189 
L 879.240642 530.404489 
L 891.176471 529.577022 
L 903.112299 528.989579 
L 919.026738 528.469613 
L 938.919786 528.0896 
L 966.770053 527.831166 
L 1010.534759 527.695508 
L 1125.914439 527.6501 
L 1245.272727 527.64915 
L 1245.272727 527.64915 
" style="fill:none;stroke:#1f77b4;stroke-linecap:square;stroke-width:1.5;"/>
   </g>
   <g id="patch_27">
    <path d="M 180 545.76 
L 180 466.56 
" style="fill:none;stroke:#000000;stroke-linecap:square;stroke-linejoin:miter;stroke-width:0.8;"/>
   </g>
   <g id="patch_28">
    <path d="M 1296 545.76 
L 1296 466.56 
" style="fill:none;stroke:#000000;stroke-linecap:square;stroke-linejoin:miter;stroke-width:0.8;"/>
   </g>
   <g id="patch_29">
    <path d="M 180 545.76 
L 1296 545.76 
" style="fill:none;stroke:#000000;stroke-linecap:square;stroke-linejoin:miter;stroke-width:0.8;"/>
   </g>
   <g id="patch_30">
    <path d="M 180 466.56 
L 1296 466.56 
" style="fill:none;stroke:#000000;stroke-linecap:square;stroke-linejoin:miter;stroke-width:0.8;"/>
   </g>
   <g id="legend_5">
    <g id="patch_31">
     <path d="M 1220.339062 489.51625 
L 1289 489.51625 
Q 1291 489.51625 1291 487.51625 
L 1291 473.56 
Q 1291 471.56 1289 471.56 
L 1220.339062 471.56 
Q 1218.339062 471.56 1218.339062 473.56 
L 1218.339062 487.51625 
Q 1218.339062 489.51625 1220.339062 489.51625 
z
" style="fill:#ffffff;opacity:0.8;stroke:#cccccc;stroke-linejoin:miter;"/>
    </g>
    <g id="line2d_98">
     <path d="M 1222.339062 479.658437 
L 1242.339062 479.658437 
" style="fill:none;stroke:#1f77b4;stroke-linecap:square;stroke-width:1.5;"/>
    </g>
    <g id="line2d_99"/>
    <g id="text_49">
     <!-- temp_c -->
     <defs>
      <path d="M 18.3125 70.21875 
L 18.3125 54.6875 
L 36.8125 54.6875 
L 36.8125 47.703125 
L 18.3125 47.703125 
L 18.3125 18.015625 
Q 18.3125 11.328125 20.140625 9.421875 
Q 21.96875 7.515625 27.59375 7.515625 
L 36.8125 7.515625 
L 36.8125 0 
L 27.59375 0 
Q 17.1875 0 13.234375 3.875 
Q 9.28125 7.765625 9.28125 18.015625 
L 9.28125 47.703125 
L 2.6875 47.703125 
L 2.6875 54.6875 
L 9.28125 54.6875 
L 9.28125 70.21875 
z
" id="DejaVuSans-74"/>
      <path d="M 52 44.1875 
Q 55.375 50.25 60.0625 53.125 
Q 64.75 56 71.09375 56 
Q 79.640625 56 84.28125 50.015625 
Q 88.921875 44.046875 88.921875 33.015625 
L 88.921875 0 
L 79.890625 0 
L 79.890625 32.71875 
Q 79.890625 40.578125 77.09375 44.375 
Q 74.3125 48.1875 68.609375 48.1875 
Q 61.625 48.1875 57.5625 43.546875 
Q 53.515625 38.921875 53.515625 30.90625 
L 53.515625 0 
L 44.484375 0 
L 44.484375 32.71875 
Q 44.484375 40.625 41.703125 44.40625 
Q 38.921875 48.1875 33.109375 48.1875 
Q 26.21875 48.1875 22.15625 43.53125 
Q 18.109375 38.875 18.109375 30.90625 
L 18.109375 0 
L 9.078125 0 
L 9.078125 54.6875 
L 18.109375 54.6875 
L 18.109375 46.1875 
Q 21.1875 51.21875 25.484375 53.609375 
Q 29.78125 56 35.6875 56 
Q 41.65625 56 45.828125 52.96875 
Q 50 49.953125 52 44.1875 
" id="DejaVuSans-6d"/>
      <path d="M 18.109375 8.203125 
L 18.109375 -20.796875 
L 9.078125 -20.796875 
L 9.078125 54.6875 
L 18.109375 54.6875 
L 18.109375 46.390625 
Q 20.953125 51.265625 25.265625 53.625 
Q 29.59375 56 35.59375 56 
Q 45.5625 56 51.78125 48.09375 
Q 58.015625 40.1875 58.015625 27.296875 
Q 58.015625 14.40625 51.78125 6.484375 
Q 45.5625 -1.421875 35.59375 -1.421875 
Q 29.59375 -1.421875 25.265625 0.953125 
Q 20.953125 3.328125 18.109375 8.203125 
M 48.6875 27.296875 
Q 48.6875 37.203125 44.609375 42.84375 
Q 40.53125 48.484375 33.40625 48.484375 
Q 26.265625 48.484375 22.1875 42.84375 
Q 18.109375 37.203125 18.109375 27.296875 
Q 18.109375 17.390625 22.1875 11.75 
Q 26.265625 6.109375 33.40625 6.109375 
Q 40.53125 6.109375 44.609375 11.75 
Q 48.6875 17.390625 48.6875 27.296875 
" id="DejaVuSans-70"/>
     </defs>
     <g transform="translate(1250.339062 483.158437)scale(0.1 -0.1)">
      <use xlink:href="#DejaVuSans-74"/>
      <use x="39.208984" xlink:href="#DejaVuSans-65"/>
      <use x="100.732422" xlink:href="#DejaVuSans-6d"/>
      <use x="198.144531" xlink:href="#DejaVuSans-70"/>
      <use x="261.621094" xlink:href="#DejaVuSans-5f"/>
      <use x="311.621094" xlink:href="#DejaVuSans-63"/>
     </g>
    </g>
   </g>
  </g>
  <g id="axes_6">
   <g id="patch_32">
    <path d="M 180 640.8 
L 1296 640.8 
L 1296 561.6 
L 180 561.6 
z
" style="fill:#ffffff;"/>
   </g>
   <g id="matplotlib.axis_11">
    <g id="xtick_31">
     <g id="line2d_100">
      <path clip-path="url(#pf9fd5b3ce6)" d="M 230.727273 640.8 
L 230.727273 561.6 
" style="fill:none;stroke:#b0b0b0;stroke-linecap:square;stroke-width:0.8;"/>
     </g>
     <g id="line2d_101">
      <g>
       <use style="stroke:#000000;stroke-width:0.8;" x="230.727273" xlink:href="#mda04939b84" y="640.8"/>
      </g>
     </g>
     <g id="text_50">
      <!-- 0.0 -->
      <g transform="translate(222.77571 655.398438)scale(0.1 -0.1)">
       <use xlink:href="#DejaVuSans-30"/>
       <use x="63.623047" xlink:href="#DejaVuSans-2e"/>
       <use x="95.410156" xlink:href="#DejaVuSans-30"/>
      </g>
     </g>
    </g>
    <g id="xtick_32">
     <g id="line2d_102">
      <path clip-path="url(#pf9fd5b3ce6)" d="M 433.636364 640.8 
L 433.636364 561.6 
" style="fill:none;stroke:#b0b0b0;stroke-linecap:square;stroke-width:0.8;"/>
     </g>
     <g id="line2d_103">
      <g>
       <use style="stroke:#000000;stroke-width:0.8;" x="433.636364" xlink:href="#mda04939b84" y="640.8"/>
      </g>
     </g>
     <g id="text_51">
      <!-- 0.2 -->
      <g transform="translate(425.684801 655.398438)scale(0.1 -0.1)">
       <use xlink:href="#DejaVuSans-30"/>
       <use x="63.623047" xlink:href="#DejaVuSans-2e"/>
       <use x="95.410156" xlink:href="#DejaVuSans-32"/>
      </g>
     </g>
    </g>
    <g id="xtick_33">
     <g id="line2d_104">
      <path clip-path="url(#pf9fd5b3ce6)" d="M 636.545455 640.8 
L 636.545455 561.6 
" style="fill:none;stroke:#b0b0b0;stroke-linecap:square;stroke-width:0.8;"/>
     </g>
     <g id="line2d_105">
      <g>
       <use style="stroke:#000000;stroke-width:0.8;" x="636.545455" xlink:href="#mda04939b84" y="640.8"/>
      </g>
     </g>
     <g id="text_52">
      <!-- 0.4 -->
      <g transform="translate(628.593892 655.398438)scale(0.1 -0.1)">
       <use xlink:href="#DejaVuSans-30"/>
       <use x="63.623047" xlink:href="#DejaVuSans-2e"/>
       <use x="95.410156" xlink:href="#DejaVuSans-34"/>
      </g>
     </g>
    </g>
    <g id="xtick_34">
     <g id="line2d_106">
      <path clip-path="url(#pf9fd5b3ce6)" d="M 839.454545 640.8 
L 839.454545 561.6 
" style="fill:none;stroke:#b0b0b0;stroke-linecap:square;stroke-width:0.8;"/>
     </g>
     <g id="line2d_107">
      <g>
       <use style="stroke:#000000;stroke-width:0.8;" x="839.454545" xlink:href="#mda04939b84" y="640.8"/>
      </g>
     </g>
     <g id="text_53">
      <!-- 0.6 -->
      <g transform="translate(831.502983 655.398438)scale(0.1 -0.1)">
       <use xlink:href="#DejaVuSans-30"/>
       <use x="63.623047" xlink:href="#DejaVuSans-2e"/>
       <use x="95.410156" xlink:href="#DejaVuSans-36"/>
      </g>
     </g>
    </g>
    <g id="xtick_35">
     <g id="line2d_108">
      <path clip-path="url(#pf9fd5b3ce6)" d="M 1042.363636 640.8 
L 1042.363636 561.6 
" style="fill:none;stroke:#b0b0b0;stroke-linecap:square;stroke-width:0.8;"/>
     </g>
     <g id="line2d_109">
      <g>
       <use style="stroke:#000000;stroke-width:0.8;" x="1042.363636" xlink:href="#mda04939b84" y="640.8"/>
      </g>
     </g>
     <g id="text_54">
      <!-- 0.8 -->
      <g transform="translate(1034.412074 655.398438)scale(0.1 -0.1)">
       <use xlink:href="#DejaVuSans-30"/>
       <use x="63.623047" xlink:href="#DejaVuSans-2e"/>
       <use x="95.410156" xlink:href="#DejaVuSans-38"/>
      </g>
     </g>
    </g>
    <g id="xtick_36">
     <g id="line2d_110">
      <path clip-path="url(#pf9fd5b3ce6)" d="M 1245.272727 640.8 
L 1245.272727 561.6 
" style="fill:none;stroke:#b0b0b0;stroke-linecap:square;stroke-width:0.8;"/>
     </g>
     <g id="line2d_111">
      <g>
       <use style="stroke:#000000;stroke-width:0.8;" x="1245.272727" xlink:href="#mda04939b84" y="640.8"/>
      </g>
     </g>
     <g id="text_55">
      <!-- 1.0 -->
      <g transform="translate(1237.321165 655.398438)scale(0.1 -0.1)">
       <use xlink:href="#DejaVuSans-31"/>
       <use x="63.623047" xlink:href="#DejaVuSans-2e"/>
       <use x="95.410156" xlink:href="#DejaVuSans-30"/>
      </g>
     </g>
    </g>
   </g>
   <g id="matplotlib.axis_12">
    <g id="ytick_13">
     <g id="line2d_112">
      <path clip-path="url(#pf9fd5b3ce6)" d="M 180 615.271031 
L 1296 615.271031 
" style="fill:none;stroke:#b0b0b0;stroke-linecap:square;stroke-width:0.8;"/>
     </g>
     <g id="line2d_113">
      <g>
       <use style="stroke:#000000;stroke-width:0.8;" x="180" xlink:href="#mc6f8972b0c" y="615.271031"/>
      </g>
     </g>
     <g id="text_56">
      <!-- −1 -->
      <g transform="translate(158.257812 619.07025)scale(0.1 -0.1)">
       <use xlink:href="#DejaVuSans-2212"/>
       <use x="83.789062" xlink:href="#DejaVuSans-31"/>
      </g>
     </g>
    </g>
    <g id="ytick_14">
     <g id="line2d_114">
      <path clip-path="url(#pf9fd5b3ce6)" d="M 180 579.417391 
L 1296 579.417391 
" style="fill:none;stroke:#b0b0b0;stroke-linecap:square;stroke-width:0.8;"/>
     </g>
     <g id="line2d_115">
      <g>
       <use style="stroke:#000000;stroke-width:0.8;" x="180" xlink:href="#mc6f8972b0c" y="579.417391"/>
      </g>
     </g>
     <g id="text_57">
      <!-- 0 -->
      <g transform="translate(166.6375 583.21661)scale(0.1 -0.1)">
       <use xlink:href="#DejaVuSans-30"/>
      </g>
     </g>
    </g>
    <g id="text_58">
     <!-- 1e−9 -->
     <defs>
      <path d="M 10.984375 1.515625 
L 10.984375 10.5 
Q 14.703125 8.734375 18.5 7.8125 
Q 22.3125 6.890625 25.984375 6.890625 
Q 35.75 6.890625 40.890625 13.453125 
Q 46.046875 20.015625 46.78125 33.40625 
Q 43.953125 29.203125 39.59375 26.953125 
Q 35.25 24.703125 29.984375 24.703125 
Q 19.046875 24.703125 12.671875 31.3125 
Q 6.296875 37.9375 6.296875 49.421875 
Q 6.296875 60.640625 12.9375 67.421875 
Q 19.578125 74.21875 30.609375 74.21875 
Q 43.265625 74.21875 49.921875 64.515625 
Q 56.59375 54.828125 56.59375 36.375 
Q 56.59375 19.140625 48.40625 8.859375 
Q 40.234375 -1.421875 26.421875 -1.421875 
Q 22.703125 -1.421875 18.890625 -0.6875 
Q 15.09375 0.046875 10.984375 1.515625 
M 30.609375 32.421875 
Q 37.25 32.421875 41.125 36.953125 
Q 45.015625 41.5 45.015625 49.421875 
Q 45.015625 57.28125 41.125 61.84375 
Q 37.25 66.40625 30.609375 66.40625 
Q 23.96875 66.40625 20.09375 61.84375 
Q 16.21875 57.28125 16.21875 49.421875 
Q 16.21875 41.5 20.09375 36.953125 
Q 23.96875 32.421875 30.609375 32.421875 
" id="DejaVuSans-39"/>
     </defs>
     <g transform="translate(180 558.6)scale(0.1 -0.1)">
      <use xlink:href="#DejaVuSans-31"/>
      <use x="63.623047" xlink:href="#DejaVuSans-65"/>
      <use x="125.146484" xlink:href="#DejaVuSans-2212"/>
      <use x="208.935547" xlink:href="#DejaVuSans-39"/>
     </g>
    </g>
   </g>
   <g id="line2d_116">
    <path clip-path="url(#pf9fd5b3ce6)" d="M 230.727273 579.678261 
L 254.59893 579.613043 
L 258.57754 579.547826 
L 262.55615 579.808696 
L 266.534759 579.743478 
L 270.513369 579.547826 
L 278.470588 579.678261 
L 286.427807 579.613043 
L 290.406417 579.613043 
L 294.385027 579.743478 
L 302.342246 579.547826 
L 306.320856 579.678261 
L 314.278075 579.613043 
L 318.256684 579.482609 
L 322.235294 579.678261 
L 326.213904 579.678261 
L 334.171123 579.482609 
L 342.128342 579.678261 
L 346.106952 579.417391 
L 350.085561 579.352174 
L 354.064171 579.547826 
L 358.042781 579.417391 
L 362.02139 579.026087 
L 366 579.286957 
L 369.97861 579.352174 
L 373.957219 578.895652 
L 377.935829 578.569565 
L 381.914439 578.765217 
L 385.893048 578.43913 
L 389.871658 577.917391 
L 397.828877 577.330435 
L 401.807487 576.743478 
L 405.786096 576.286957 
L 409.764706 575.96087 
L 417.721925 574.982609 
L 425.679144 574.656522 
L 429.657754 574.852174 
L 437.614973 575.7 
L 441.593583 576.547826 
L 445.572193 577.591304 
L 449.550802 578.308696 
L 453.529412 578.895652 
L 457.508021 579.613043 
L 461.486631 579.808696 
L 473.42246 578.634783 
L 477.40107 577.526087 
L 481.379679 576.613043 
L 485.358289 576.221739 
L 493.315508 574.917391 
L 501.272727 575.113043 
L 505.251337 574.786957 
L 509.229947 574.917391 
L 513.208556 575.43913 
L 517.187166 575.569565 
L 521.165775 575.569565 
L 529.122995 576.613043 
L 537.080214 576.678261 
L 541.058824 577.2 
L 545.037433 577.330435 
L 549.016043 577.2 
L 552.994652 577.265217 
L 556.973262 577.591304 
L 560.951872 577.330435 
L 564.930481 576.93913 
L 568.909091 577.2 
L 572.887701 577.2 
L 576.86631 576.482609 
L 580.84492 576.352174 
L 584.823529 576.417391 
L 592.780749 575.113043 
L 596.759358 574.982609 
L 600.737968 574.46087 
L 604.716578 573.547826 
L 608.695187 573.156522 
L 612.673797 572.634783 
L 616.652406 571.656522 
L 628.588235 569.373913 
L 632.566845 568.395652 
L 636.545455 567.613043 
L 640.524064 566.96087 
L 644.502674 566.178261 
L 648.481283 565.526087 
L 652.459893 565.265217 
L 660.417112 565.2 
L 664.395722 565.786957 
L 668.374332 567.091304 
L 672.352941 568.786957 
L 676.331551 570.873913 
L 680.31016 574.069565 
L 684.28877 577.917391 
L 688.26738 582.221739 
L 692.245989 587.43913 
L 700.203209 599.504348 
L 712.139037 618.091304 
L 716.117647 623.43913 
L 720.096257 628.004348 
L 724.074866 631.786957 
L 728.053476 634.395652 
L 732.032086 636.156522 
L 736.010695 637.2 
L 739.989305 637.2 
L 743.967914 636.156522 
L 747.946524 634.395652 
L 751.925134 631.786957 
L 755.903743 628.069565 
L 759.882353 623.308696 
L 763.860963 618.026087 
L 767.839572 612.221739 
L 775.796791 599.373913 
L 783.754011 587.569565 
L 787.73262 582.221739 
L 791.71123 577.852174 
L 795.68984 574.069565 
L 799.668449 570.93913 
L 803.647059 568.656522 
L 811.604278 565.852174 
L 815.582888 565.2 
L 819.561497 565.2 
L 827.518717 565.526087 
L 831.497326 566.113043 
L 835.475936 567.091304 
L 843.433155 568.395652 
L 851.390374 570.352174 
L 855.368984 570.873913 
L 859.347594 571.591304 
L 863.326203 572.569565 
L 867.304813 573.156522 
L 871.283422 573.613043 
L 875.262032 574.46087 
L 879.240642 574.982609 
L 883.219251 575.178261 
L 887.197861 575.7 
L 891.176471 576.352174 
L 895.15508 576.352174 
L 899.13369 576.482609 
L 903.112299 577.134783 
L 907.090909 577.265217 
L 911.069519 576.93913 
L 919.026738 577.656522 
L 926.983957 577.069565 
L 930.962567 577.265217 
L 934.941176 577.265217 
L 938.919786 576.743478 
L 942.898396 576.613043 
L 946.877005 576.613043 
L 954.834225 575.569565 
L 958.812834 575.569565 
L 962.791444 575.43913 
L 966.770053 574.917391 
L 970.748663 574.852174 
L 974.727273 575.113043 
L 978.705882 574.917391 
L 982.684492 575.047826 
L 986.663102 575.569565 
L 990.641711 576.221739 
L 994.620321 576.613043 
L 1002.57754 578.569565 
L 1010.534759 579.482609 
L 1014.513369 579.808696 
L 1018.491979 579.547826 
L 1022.470588 578.895652 
L 1026.449198 578.373913 
L 1030.427807 577.395652 
L 1034.406417 576.613043 
L 1038.385027 575.7 
L 1046.342246 574.721739 
L 1058.278075 574.982609 
L 1074.192513 576.743478 
L 1078.171123 577.395652 
L 1086.128342 577.917391 
L 1090.106952 578.43913 
L 1094.085561 578.765217 
L 1098.064171 578.569565 
L 1106.02139 579.221739 
L 1110 579.286957 
L 1113.97861 579.026087 
L 1117.957219 579.417391 
L 1121.935829 579.613043 
L 1125.914439 579.417391 
L 1129.893048 579.417391 
L 1133.871658 579.613043 
L 1137.850267 579.613043 
L 1141.828877 579.482609 
L 1153.764706 579.678261 
L 1157.743316 579.482609 
L 1161.721925 579.743478 
L 1173.657754 579.613043 
L 1177.636364 579.678261 
L 1185.593583 579.613043 
L 1189.572193 579.678261 
L 1193.550802 579.613043 
L 1197.529412 579.678261 
L 1205.486631 579.613043 
L 1209.465241 579.743478 
L 1213.44385 579.743478 
L 1221.40107 579.547826 
L 1225.379679 579.678261 
L 1229.358289 579.678261 
L 1233.336898 579.547826 
L 1241.294118 579.743478 
L 1245.272727 579.613043 
L 1245.272727 579.613043 
" style="fill:none;stroke:#1f77b4;stroke-linecap:square;stroke-width:1.5;"/>
   </g>
   <g id="patch_33">
    <path d="M 180 640.8 
L 180 561.6 
" style="fill:none;stroke:#000000;stroke-linecap:square;stroke-linejoin:miter;stroke-width:0.8;"/>
   </g>
   <g id="patch_34">
    <path d="M 1296 640.8 
L 1296 561.6 
" style="fill:none;stroke:#000000;stroke-linecap:square;stroke-linejoin:miter;stroke-width:0.8;"/>
   </g>
   <g id="patch_35">
    <path d="M 180 640.8 
L 1296 640.8 
" style="fill:none;stroke:#000000;stroke-linecap:square;stroke-linejoin:miter;stroke-width:0.8;"/>
   </g>
   <g id="patch_36">
    <path d="M 180 561.6 
L 1296 561.6 
" style="fill:none;stroke:#000000;stroke-linecap:square;stroke-linejoin:miter;stroke-width:0.8;"/>
   </g>
   <g id="legend_6">
    <g id="patch_37">
     <path d="M 187 635.8 
L 256.5 635.8 
Q 258.5 635.8 258.5 633.8 
L 258.5 619.84375 
Q 258.5 617.84375 256.5 617.84375 
L 187 617.84375 
Q 185 617.84375 185 619.84375 
L 185 633.8 
Q 185 635.8 187 635.8 
z
" style="fill:#ffffff;opacity:0.8;stroke:#cccccc;stroke-linejoin:miter;"/>
    </g>
    <g id="line2d_117">
     <path d="M 189 625.942188 
L 209 625.942188 
" style="fill:none;stroke:#1f77b4;stroke-linecap:square;stroke-width:1.5;"/>
    </g>
    <g id="line2d_118"/>
    <g id="text_59">
     <!-- temp_n -->
     <g transform="translate(217 629.442188)scale(0.1 -0.1)">
      <use xlink:href="#DejaVuSans-74"/>
      <use x="39.208984" xlink:href="#DejaVuSans-65"/>
      <use x="100.732422" xlink:href="#DejaVuSans-6d"/>
      <use x="198.144531" xlink:href="#DejaVuSans-70"/>
      <use x="261.621094" xlink:href="#DejaVuSans-5f"/>
      <use x="311.621094" xlink:href="#DejaVuSans-6e"/>
     </g>
    </g>
   </g>
  </g>
  <g id="text_60">
   <!-- time 16.820000 -->
   <defs>
    <path d="M 9.421875 54.6875 
L 18.40625 54.6875 
L 18.40625 0 
L 9.421875 0 
z
M 9.421875 75.984375 
L 18.40625 75.984375 
L 18.40625 64.59375 
L 9.421875 64.59375 
z
" id="DejaVuSans-69"/>
    <path id="DejaVuSans-20"/>
   </defs>
   <g transform="translate(672.090937 23.518125)scale(0.12 -0.12)">
    <use xlink:href="#DejaVuSans-74"/>
    <use x="39.208984" xlink:href="#DejaVuSans-69"/>
    <use x="66.992188" xlink:href="#DejaVuSans-6d"/>
    <use x="164.404297" xlink:href="#DejaVuSans-65"/>
    <use x="225.927734" xlink:href="#DejaVuSans-20"/>
    <use x="257.714844" xlink:href="#DejaVuSans-31"/>
    <use x="321.337891" xlink:href="#DejaVuSans-36"/>
    <use x="384.960938" xlink:href="#DejaVuSans-2e"/>
    <use x="416.748047" xlink:href="#DejaVuSans-38"/>
    <use x="480.371094" xlink:href="#DejaVuSans-32"/>
    <use x="543.994141" xlink:href="#DejaVuSans-30"/>
    <use x="607.617188" xlink:href="#DejaVuSans-30"/>
    <use x="671.240234" xlink:href="#DejaVuSans-30"/>
    <use x="734.863281" xlink:href="#DejaVuSans-30"/>
   </g>
  </g>
 </g>
 <defs>
  <clipPath id="p3bae8d9c05">
   <rect height="79.2" width="1116" x="180" y="86.4"/>
  </clipPath>
  <clipPath id="p943d69f6ff">
   <rect height="79.2" width="1116" x="180" y="181.44"/>
  </clipPath>
  <clipPath id="pcbf64ae6c5">
   <rect height="79.2" width="1116" x="180" y="276.48"/>
  </clipPath>
  <clipPath id="pcb02f4b9d0">
   <rect height="79.2" width="1116" x="180" y="371.52"/>
  </clipPath>
  <clipPath id="p43d475a206">
   <rect height="79.2" width="1116" x="180" y="466.56"/>
  </clipPath>
  <clipPath id="pf9fd5b3ce6">
   <rect height="79.2" width="1116" x="180" y="561.6"/>
  </clipPath>
 </defs>
</svg>
